<svg width="160" height="44" viewBox="0 0 160 44" fill="none" xmlns="http://www.w3.org/2000/svg"><g clip-path="url(#clip0_3520_80)"><path fill-rule="evenodd" clip-rule="evenodd" d="M4.917 4.936a7.796 7.796 0 012.451-1.768 6.984 6.984 0 012.97-.643c1.16 0 2.093.15 2.797.455.703.305 1.387.74 2.05 1.314.32.25.65.362.99.335.34-.027.63-.15.869-.376.239-.223.361-.503.361-.846 0-.163-.014-.3-.04-.416a1.007 1.007 0 00-.164-.349 1.404 1.404 0 00-.336-.334c-1-.822-1.993-1.413-2.984-1.77C12.893.18 11.711 0 10.335 0c-1.466 0-2.82.278-4.07.83a10.277 10.277 0 00-3.279 2.294A10.672 10.672 0 00.79 6.534C.263 7.832 0 9.23 0 10.733c0 1.502.263 2.933.79 4.24a10.557 10.557 0 002.196 3.42 10.03 10.03 0 003.29 2.28c1.258.547 2.61.82 4.057.82 1.213 0 2.37-.196 3.467-.591a10.845 10.845 0 003.092-1.744c.141-.142.247-.3.32-.471.068-.172.106-.346.106-.525 0-.395-.106-.702-.32-.928a1.206 1.206 0 00-.788-.376c-.312-.027-.63.076-.95.31-.749.553-1.53.988-2.343 1.301a7.114 7.114 0 01-2.582.468 7.113 7.113 0 01-2.97-.631 7.668 7.668 0 01-2.451-1.758 8.172 8.172 0 01-1.648-2.615 8.624 8.624 0 01-.59-3.206c0-1.143.196-2.188.59-3.181a8.189 8.189 0 011.648-2.612l.003.002zM22.79.266c-.393 0-.722.131-.99.39-.27.261-.402.593-.402 1.004v18.167c0 .395.133.724.401.993.27.267.598.403.991.403.394 0 .747-.133 1.002-.403.26-.27.388-.598.388-.993V1.66c0-.41-.13-.748-.388-1.004-.258-.259-.592-.39-1.002-.39zm19.838 0H28.308c-.375 0-.681.123-.926.363-.239.24-.36.55-.36.928s.121.683.36.928c.239.239.549.361.926.361h5.783v16.986c0 .395.133.724.401.994.27.267.598.402.991.402.394 0 .723-.133.991-.402.269-.27.402-.599.402-.994V2.841h5.756c.374 0 .681-.122.925-.362.24-.24.361-.55.361-.928a1.27 1.27 0 00-.36-.928c-.242-.24-.552-.359-.929-.359v.003zm21.36.338a1.07 1.07 0 00-.803-.335c-.285 0-.527.058-.722.175a1.57 1.57 0 00-.508.495l-6.372 10.074-6.266-9.968a2.198 2.198 0 00-.507-.577c-.18-.133-.419-.199-.722-.199-.34 0-.639.104-.896.31-.261.207-.416.477-.467.806-.055.33.035.683.268 1.061l7.146 11.139v6.253c0 .395.133.724.402.993.268.267.589.403.966.403.378 0 .722-.133.991-.403s.402-.598.402-.993v-6.259l7.2-11.138c.214-.34.304-.675.269-1.004-.041-.33-.166-.61-.378-.83L63.99.604zM78.156.267c-.394 0-.723.13-.991.389-.27.261-.402.593-.402 1.004v18.167c0 .395.133.724.402.993.268.267.597.403.99.403.394 0 .747-.133 1.003-.403.26-.27.388-.598.388-.993V1.66c0-.41-.13-.748-.388-1.004-.258-.259-.592-.39-1.002-.39zm21.086 0c-.394 0-.722.13-.99.389-.27.261-.403.593-.403 1.004v14.678L86.178.776a1.337 1.337 0 00-1.072-.51c-.394 0-.72.131-.977.39-.261.261-.389.593-.389 1.004v18.167c0 .395.13.724.389.993.257.267.583.403.977.403s.746-.133 1.002-.403a1.38 1.38 0 00.388-.993V5.176l11.67 15.563c.126.16.289.28.495.362.207.081.397.122.576.122.41 0 .741-.133.991-.403.249-.27.374-.598.374-.993V1.66c0-.41-.125-.748-.374-1.004-.242-.259-.576-.39-.986-.39zm19.143 2.936a9.631 9.631 0 00-3.28-2.172c-1.257-.509-2.655-.764-4.189-.764h-4.846c-.394 0-.722.13-.991.389-.269.261-.402.593-.402 1.004v18.167c0 .395.133.724.402.993.269.267.597.403.991.403h4.846c1.534 0 2.929-.256 4.189-.765a9.7 9.7 0 003.28-2.171 9.7 9.7 0 002.142-3.328c.499-1.277.749-2.689.749-4.226 0-1.538-.25-2.942-.749-4.213a9.731 9.731 0 00-2.142-3.317zm-.777 11.674a7.37 7.37 0 01-2.717 2.844c-1.151.688-2.476 1.034-3.978 1.034h-3.453V2.735h3.453c1.499 0 2.824.34 3.978 1.02a7.281 7.281 0 012.717 2.82c.66 1.2.991 2.582.991 4.158 0 1.575-.328 2.936-.991 4.144zm20.891-12.036c.41 0 .739-.117.991-.351.247-.231.375-.536.375-.912 0-.375-.125-.713-.375-.952-.247-.24-.581-.362-.991-.362h-12.103c-.393 0-.722.13-.991.39-.268.26-.402.592-.402 1.003v18.167c0 .395.134.724.402.994.269.266.598.402.991.402h12.103c.41 0 .739-.122.991-.362.247-.239.375-.56.375-.952 0-.392-.125-.68-.375-.912-.247-.23-.581-.35-.991-.35h-10.71V11.94h7.683c.41 0 .738-.123.991-.362.247-.24.375-.55.375-.928s-.125-.683-.375-.928c-.25-.24-.581-.362-.991-.362h-7.683v-6.52h10.71zm15.1 7.78l6.103-8.156c.215-.32.313-.65.296-.993a1.312 1.312 0 00-.347-.857c-.215-.231-.508-.351-.885-.351-.41 0-.739.133-.991.403l-6 8L146.022.67c-.195-.269-.527-.402-.991-.402-.374 0-.673.125-.896.375a1.546 1.546 0 00-.388.887c-.035.34.054.65.269.94l5.88 8.177-6.23 8.324a1.541 1.541 0 00-.321.952c0 .351.106.653.321.912.214.261.526.39.936.39.375 0 .698-.134.967-.404l6.146-8.196 5.824 8.09c.141.18.298.31.467.39.171.081.369.122.602.122.394 0 .701-.125.926-.376.223-.25.345-.552.361-.911a1.454 1.454 0 00-.296-.966l-6.003-8.346.003-.006zM89.795 36.454c0 2.683-1.716 4.261-4.049 4.261a5.88 5.88 0 01-2.266-.457l-.63.585h-.19v-9.486c0-.822-.142-1.059-.676-1.309l-.394-.19v-.175l2.63-.585.204.142v4.814c.676-.648 1.276-1.073 2.316-1.073 1.827 0 3.055 1.468 3.055 3.473zm-1.687 1.029c0-2.115-.977-3.52-2.408-3.52-.534 0-.866.126-1.276.428v3.756c0 1.466.676 2.163 1.686 2.163 1.227 0 2.001-.98 2.001-2.825l-.003-.002zm10.401-4.341v.237l-.252.046c-.584.112-.85.441-1.401 1.72l-3.008 6.945C93.25 43.477 92.634 44 91.896 44c-.519 0-.804-.41-.804-.868 0-.585.692-.947 2.063-.868.237-.411.535-.947.804-1.578l-2.487-5.587c-.584-1.31-.74-1.562-1.4-1.674l-.27-.046v-.237c.378 0 1.355.017 2.031.017.676 0 1.7-.017 2.064-.017v.237l-.316.046c-.472.08-.613.237-.613.49s.095.585.204.868l1.607 4.071 1.322-3.41c.236-.615.377-1.088.377-1.42 0-.332-.203-.536-.63-.599l-.347-.046v-.237c.377 0 .928.017 1.591.017.662 0 1.04-.017 1.417-.017zm12.684 3.832c0 2.294-2.177 3.831-4.762 3.831-1.588 0-2.623-.258-3.415-.61l-.443-2.702h.331l.332.648c.793 1.535 1.773 2.202 3.342 2.202 1.791 0 2.807-.888 2.807-2.351 0-1.296-.739-1.962-2.881-2.703-2.418-.832-3.619-1.758-3.619-3.848s1.901-3.627 4.266-3.627c1.476 0 2.326.204 3.138.536l.442 2.814h-.35l-.315-.667c-.719-1.535-1.642-2.22-3.046-2.22-1.477 0-2.346.887-2.346 2.147 0 1.26.701 1.905 2.732 2.59 2.658.887 3.784 1.905 3.784 3.96h.003zm6.182 2.444l.222.296c-.738.648-1.514 1.072-2.473 1.072-1.422 0-2.161-.647-2.161-2.166v-5.921h-1.311v-.332l1.403-.536 1.385-2.776h.573v2.85h2.381v.794h-2.381v5.867c0 .87.423 1.295 1.127 1.295.48 0 .792-.13 1.237-.444h-.002zm9.678-3.13c0 2.572-1.865 4.553-4.485 4.553s-4.468-1.628-4.468-4.68c0-2.572 1.846-4.553 4.485-4.553 2.638 0 4.468 1.627 4.468 4.68zm-2.272.52c0-2.868-.904-4.738-2.454-4.738-1.255 0-1.977.963-1.977 3.57 0 2.868.923 4.738 2.454 4.738 1.274 0 1.977-.963 1.977-3.57zm13.2 3.57v.278c-.408 0-1.458-.02-2.254-.02-.795 0-1.827.02-2.269.02v-.278l.295-.054c.793-.147.943-.39.943-2.017V34.81c0-1.35-.592-2.016-1.624-2.016-.719 0-1.33.277-1.865.686v4.83c0 1.627.13 1.87.942 2.016l.296.055v.277c-.443 0-1.477-.019-2.27-.019-.792 0-1.846.02-2.269.02v-.278l.35-.055c.738-.111.885-.389.885-2.166v-3.867c0-.963-.166-1.222-.812-1.535l-.442-.223v-.204l3.084-.686.239.166v1.241c.977-.832 1.884-1.387 3.027-1.387 1.642 0 2.53.887 2.53 2.756v3.74c0 1.812.147 2.035.904 2.165l.315.055-.005-.003zm8.647-4.977h-6.055v.13c.055 2.537 1.423 4.09 3.269 4.09 1.015 0 1.716-.37 2.473-1.129l.239.185c-.961 1.334-2.196 2.166-3.803 2.166-2.346 0-4.1-1.61-4.1-4.367 0-2.98 2.235-4.866 4.393-4.866 2.381 0 3.527 1.334 3.581 3.793l.003-.002zm-6.057-.498h3.876c-.054-1.87-.719-2.814-1.791-2.814-1.2 0-1.977 1.037-2.085 2.814zm19.294 5.475v.278c-.35 0-2.069-.039-2.75-.039s-2.861.039-3.231.039v-.278l.608-.093c.592-.092.85-.258.85-.609 0-.316-.184-.686-.608-1.35l-2.142-3.293-2.142 2.961c-.5.686-.738 1.222-.738 1.592 0 .37.222.61.83.702l.628.093v.277c-.351 0-1.885-.038-2.566-.038-.681 0-1.792.038-2.142.038v-.277l.331-.055c.869-.147 1.681-.887 2.327-1.72l3.119-4.09-3.084-4.533c-.719-1.056-1.219-1.535-1.976-1.666l-.408-.073v-.278c.35 0 2.069.038 2.75.038.682 0 2.824-.038 3.193-.038v.278l-.608.093c-.516.073-.812.258-.812.609 0 .316.185.686.608 1.35l1.847 2.849 1.808-2.536c.48-.686.738-1.222.738-1.573 0-.37-.239-.61-.831-.702l-.627-.093v-.277c.35 0 1.884.038 2.566.038.681 0 1.792-.038 2.142-.038v.277l-.331.055c-.869.146-1.643.813-2.327 1.72l-2.788 3.662 3.377 4.958c.72 1.056 1.219 1.535 1.977 1.666l.407.073.005.003z" fill="#fff"/></g><defs><clipPath id="clip0_3520_80"><path fill="#fff" d="M0 0h160v44H0z"/></clipPath></defs></svg>