<svg width="728" height="20" viewBox="0 0 728 20" fill="none" xmlns="http://www.w3.org/2000/svg"><path fill="#fff" d="M0 0h728v20H0z"/><path d="M13.41 12.064c-.37-.531-.577-1.278-.577-2.151 0-2.106 1.008-3.267 2.592-3.267 1.18 0 2.106.675 2.25 1.827h-1.278c-.117-.504-.513-.783-1.07-.783-.81 0-1.27.648-1.27 1.809v.153c.027-.045.045-.081.081-.135.288-.45.837-.738 1.485-.738 1.27 0 2.133.864 2.133 2.133 0 1.287-.945 2.142-2.349 2.142-.882 0-1.557-.36-1.998-.99zm3.05-1.152c0-.666-.405-1.125-1.044-1.125s-1.08.45-1.08 1.125.423 1.125 1.062 1.125c.64 0 1.062-.459 1.062-1.125zm4.26 2.142c-1.296 0-2.133-.666-2.277-1.827h1.278c.108.495.495.783 1.071.783.837 0 1.287-.675 1.287-1.809 0-.045 0-.099-.009-.162l-.135.198c-.306.423-.81.657-1.404.657-1.278 0-2.142-.819-2.142-2.106 0-1.251.945-2.142 2.35-2.142.845 0 1.502.333 1.943.918.405.54.64 1.305.64 2.214 0 2.088-.928 3.276-2.602 3.276zm.01-3.159c.638 0 1.088-.45 1.088-1.125 0-.666-.432-1.107-1.07-1.107-.64 0-1.063.45-1.063 1.107 0 .666.405 1.125 1.044 1.125zm3.332-1.692c0-.9.702-1.557 1.656-1.557.945 0 1.647.657 1.647 1.557 0 .9-.702 1.557-1.647 1.557-.954 0-1.656-.657-1.656-1.557zM26.33 13h-1.251l4.32-6.3h1.25L26.33 13zm.009-4.797a.62.62 0 00-.621-.639c-.36 0-.63.279-.63.639 0 .369.27.639.63.639.35 0 .62-.27.62-.639zm2.025 3.294c0-.9.702-1.557 1.647-1.557.954 0 1.647.657 1.647 1.557 0 .9-.693 1.557-1.647 1.557-.945 0-1.647-.657-1.647-1.557zm2.277 0c0-.36-.27-.639-.63-.639a.62.62 0 00-.621.639c0 .369.27.639.62.639.36 0 .63-.27.63-.639zm6.48 1.557c-1.477 0-2.44-.945-2.44-2.367 0-1.422.963-2.367 2.44-2.367 1.475 0 2.438.945 2.438 2.367 0 1.431-.963 2.367-2.439 2.367zm0-1.035c.71 0 1.151-.549 1.151-1.332s-.44-1.332-1.152-1.332c-.71 0-1.143.549-1.143 1.332s.432 1.332 1.143 1.332zm2.777-2.574V8.374h.765v-.342c0-.855.46-1.332 1.395-1.332h1.035v1.08h-.81c-.252 0-.378.117-.378.378v.216h1.188v1.071h-1.16V13h-1.27V9.445h-.765zm8.689-1.071h.216v1.152h-.504c-.756 0-1.044.504-1.044 1.206V13h-1.27V8.374h1.153l.117.693c.252-.414.612-.693 1.332-.693zm3.01 4.68c-1.54 0-2.467-.927-2.467-2.358 0-1.44.945-2.376 2.376-2.376 1.386 0 2.322.864 2.34 2.223 0 .135-.009.288-.036.432h-3.357v.063c.027.657.45 1.053 1.09 1.053.512 0 .872-.225.98-.657h1.251c-.144.9-.945 1.62-2.178 1.62zm-1.117-2.907h2.088c-.09-.567-.477-.882-1.053-.882-.549 0-.963.333-1.035.882zm4.465 1.53V9.445h-.765V8.374h.765V7.078h1.27v1.296h1.061v1.071h-1.062v2.025c0 .324.126.459.46.459h.63V13h-1.036c-.882 0-1.323-.441-1.323-1.323zm7.42.252h.143V13h-.648c-.657 0-.864-.315-.855-.756-.324.513-.792.81-1.512.81-.999 0-1.719-.477-1.719-1.359 0-.981.738-1.539 2.124-1.539h.918v-.225c0-.414-.297-.684-.828-.684-.495 0-.828.225-.882.567h-1.224c.09-.9.918-1.494 2.142-1.494 1.296 0 2.043.576 2.043 1.683v1.638c0 .243.1.288.297.288zm-1.549-.837v-.09h-.927c-.53 0-.837.216-.837.603 0 .324.261.531.684.531.666 0 1.071-.414 1.08-1.044zm2.912-3.213c-.414 0-.738-.306-.738-.711 0-.414.324-.72.738-.72s.738.306.738.72c0 .405-.324.711-.738.711zM63.089 13V8.374h1.278V13h-1.278zm2.243 0V6.7h1.27V13h-1.27zm5.205-5.121c-.414 0-.738-.306-.738-.711 0-.414.324-.72.738-.72s.738.306.738.72c0 .405-.324.711-.738.711zM69.898 13V8.374h1.278V13h-1.278zm4.898-4.68c1 0 1.854.531 1.854 2.115V13h-1.269v-2.439c0-.783-.297-1.197-.936-1.197-.657 0-1.035.468-1.035 1.269V13h-1.269V8.374h1.107l.117.576c.297-.36.72-.63 1.431-.63zM78.544 13L76.88 8.374h1.36l1.115 3.33 1.098-3.33h1.332L80.12 13h-1.575zm5.82.054c-1.54 0-2.467-.927-2.467-2.358 0-1.44.945-2.376 2.376-2.376 1.386 0 2.322.864 2.34 2.223 0 .135-.009.288-.036.432H83.22v.063c.027.657.45 1.053 1.09 1.053.512 0 .872-.225.98-.657h1.251c-.144.9-.945 1.62-2.178 1.62zm-1.117-2.907h2.088c-.09-.567-.477-.882-1.053-.882-.549 0-.963.333-1.035.882zm3.899 1.314h1.206c.045.405.396.684 1.017.684.53 0 .855-.171.855-.495 0-.378-.315-.405-1.062-.504-1.08-.126-1.917-.369-1.917-1.323 0-.918.8-1.521 1.989-1.512 1.242 0 2.097.549 2.16 1.494h-1.215c-.036-.369-.387-.594-.9-.594-.495 0-.82.18-.82.477 0 .351.397.387 1.063.468 1.062.108 1.944.351 1.944 1.395 0 .918-.864 1.503-2.106 1.503-1.287 0-2.16-.603-2.214-1.593zm5.411.216V9.445h-.765V8.374h.765V7.078h1.27v1.296h1.061v1.071h-1.062v2.025c0 .324.126.459.46.459h.63V13H93.88c-.882 0-1.323-.441-1.323-1.323zm5.224 1.377c-1.476 0-2.439-.945-2.439-2.367 0-1.422.963-2.367 2.44-2.367 1.475 0 2.438.945 2.438 2.367 0 1.431-.963 2.367-2.439 2.367zm0-1.035c.711 0 1.152-.549 1.152-1.332s-.44-1.332-1.152-1.332c-.71 0-1.143.549-1.143 1.332s.432 1.332 1.143 1.332zm5.829-3.645h.216v1.152h-.504c-.756 0-1.044.504-1.044 1.206V13h-1.269V8.374h1.152l.117.693c.252-.414.612-.693 1.332-.693zm7.605 3.555h.144V13h-.648c-.657 0-.864-.315-.855-.756-.324.513-.792.81-1.512.81-.999 0-1.719-.477-1.719-1.359 0-.981.738-1.539 2.124-1.539h.918v-.225c0-.414-.297-.684-.828-.684-.495 0-.828.225-.882.567h-1.224c.09-.9.918-1.494 2.142-1.494 1.296 0 2.043.576 2.043 1.683v1.638c0 .243.099.288.297.288zm-1.548-.837v-.09h-.927c-.531 0-.837.216-.837.603 0 .324.261.531.684.531.666 0 1.071-.414 1.08-1.044zm4.433 1.962c-1.467 0-2.358-.909-2.358-2.367 0-1.431.936-2.367 2.403-2.367 1.26 0 2.043.684 2.223 1.782h-1.323c-.108-.459-.423-.747-.918-.747-.666 0-1.089.549-1.089 1.332 0 .792.423 1.332 1.089 1.332.495 0 .828-.297.918-.765h1.332c-.18 1.107-1.017 1.8-2.277 1.8zm5.214 0c-1.467 0-2.358-.909-2.358-2.367 0-1.431.936-2.367 2.403-2.367 1.26 0 2.043.684 2.223 1.782h-1.323c-.108-.459-.423-.747-.918-.747-.666 0-1.089.549-1.089 1.332 0 .792.423 1.332 1.089 1.332.495 0 .828-.297.918-.765h1.332c-.18 1.107-1.017 1.8-2.277 1.8zm5.295 0c-1.476 0-2.439-.945-2.439-2.367 0-1.422.963-2.367 2.439-2.367s2.439.945 2.439 2.367c0 1.431-.963 2.367-2.439 2.367zm0-1.035c.711 0 1.152-.549 1.152-1.332s-.441-1.332-1.152-1.332c-.711 0-1.143.549-1.143 1.332s.432 1.332 1.143 1.332zm6.315-1.332V8.374h1.269V13h-1.125l-.117-.558c-.297.36-.702.612-1.359.612-.954 0-1.836-.477-1.836-2.115V8.374h1.269v2.394c0 .828.27 1.233.9 1.233s.999-.459.999-1.314zm4.896-2.367c.999 0 1.854.531 1.854 2.115V13h-1.269v-2.439c0-.783-.297-1.197-.936-1.197-.657 0-1.035.468-1.035 1.269V13h-1.269V8.374h1.107l.117.576c.297-.36.72-.63 1.431-.63zm3.077 3.357V9.445h-.765V8.374h.765V7.078h1.269v1.296h1.062v1.071h-1.062v2.025c0 .324.126.459.459.459h.63V13h-1.035c-.882 0-1.323-.441-1.323-1.323zm2.819-.216h1.206c.045.405.396.684 1.017.684.531 0 .855-.171.855-.495 0-.378-.315-.405-1.062-.504-1.08-.126-1.917-.369-1.917-1.323 0-.918.801-1.521 1.989-1.512 1.242 0 2.097.549 2.16 1.494h-1.215c-.036-.369-.387-.594-.9-.594-.495 0-.819.18-.819.477 0 .351.396.387 1.062.468 1.062.108 1.944.351 1.944 1.395 0 .918-.864 1.503-2.106 1.503-1.287 0-2.16-.603-2.214-1.593zM149.117 13V6.7h1.269V13h-1.269zm4.502.054c-1.476 0-2.439-.945-2.439-2.367 0-1.422.963-2.367 2.439-2.367s2.439.945 2.439 2.367c0 1.431-.963 2.367-2.439 2.367zm0-1.035c.711 0 1.152-.549 1.152-1.332s-.441-1.332-1.152-1.332c-.711 0-1.143.549-1.143 1.332s.432 1.332 1.143 1.332zm2.976-.558h1.206c.045.405.396.684 1.017.684.531 0 .855-.171.855-.495 0-.378-.315-.405-1.062-.504-1.08-.126-1.917-.369-1.917-1.323 0-.918.801-1.521 1.989-1.512 1.242 0 2.097.549 2.16 1.494h-1.215c-.036-.369-.387-.594-.9-.594-.495 0-.819.18-.819.477 0 .351.396.387 1.062.468 1.062.108 1.944.351 1.944 1.395 0 .918-.864 1.503-2.106 1.503-1.287 0-2.16-.603-2.214-1.593zm7.365 1.593c-1.539 0-2.466-.927-2.466-2.358 0-1.44.945-2.376 2.376-2.376 1.386 0 2.322.864 2.34 2.223 0 .135-.009.288-.036.432h-3.357v.063c.027.657.45 1.053 1.089 1.053.513 0 .873-.225.981-.657h1.251c-.144.9-.945 1.62-2.178 1.62zm-1.116-2.907h2.088c-.09-.567-.477-.882-1.053-.882-.549 0-.963.333-1.035.882zm12.007-1.827c.954 0 1.71.54 1.71 2.025V13h-1.269v-2.583c0-.693-.252-1.053-.801-1.053s-.918.405-.918 1.107V13h-1.269v-2.583c0-.693-.252-1.053-.81-1.053-.549 0-.909.423-.909 1.116V13h-1.269V8.374h1.107l.117.576c.279-.36.684-.621 1.359-.63.567-.009 1.098.198 1.386.783.324-.495.864-.783 1.566-.783zm4.838 4.734c-1.476 0-2.439-.945-2.439-2.367 0-1.422.963-2.367 2.439-2.367s2.439.945 2.439 2.367c0 1.431-.963 2.367-2.439 2.367zm0-1.035c.711 0 1.152-.549 1.152-1.332s-.441-1.332-1.152-1.332c-.711 0-1.143.549-1.143 1.332s.432 1.332 1.143 1.332zm5.883-3.699c.999 0 1.854.531 1.854 2.115V13h-1.269v-2.439c0-.783-.297-1.197-.936-1.197-.657 0-1.035.468-1.035 1.269V13h-1.269V8.374h1.107l.117.576c.297-.36.72-.63 1.431-.63zm5.012 4.734c-1.539 0-2.466-.927-2.466-2.358 0-1.44.945-2.376 2.376-2.376 1.386 0 2.322.864 2.34 2.223 0 .135-.009.288-.036.432h-3.357v.063c.027.657.45 1.053 1.089 1.053.513 0 .873-.225.981-.657h1.251c-.144.9-.945 1.62-2.178 1.62zm-1.116-2.907h2.088c-.09-.567-.477-.882-1.053-.882-.549 0-.963.333-1.035.882zm5.261 2.88l-1.782-4.653h1.35l1.125 3.294 1.098-3.294h1.359l-2.052 5.283c-.288.765-.522 1.143-1.242 1.143h-1.233v-1.071h.702c.324 0 .432-.081.558-.396l.117-.306zm7.065-.027l-1.512-4.626h1.341l.927 3.258.873-3.258h1.143l.846 3.267.945-3.267h1.296L206.132 13h-1.35l-.81-2.79-.828 2.79h-1.35zm9.03-4.68c1.026 0 1.872.549 1.872 2.115V13h-1.269v-2.457c0-.756-.306-1.179-.936-1.179-.648 0-1.035.468-1.035 1.26V13h-1.269V6.7h1.269v2.241c.297-.36.711-.621 1.368-.621zm5.03 4.734c-1.539 0-2.466-.927-2.466-2.358 0-1.44.945-2.376 2.376-2.376 1.386 0 2.322.864 2.34 2.223 0 .135-.009.288-.036.432h-3.357v.063c.027.657.45 1.053 1.089 1.053.513 0 .873-.225.981-.657h1.251c-.144.9-.945 1.62-2.178 1.62zm-1.116-2.907h2.088c-.09-.567-.477-.882-1.053-.882-.549 0-.963.333-1.035.882zm6.804-1.827c.999 0 1.854.531 1.854 2.115V13h-1.269v-2.439c0-.783-.297-1.197-.936-1.197-.657 0-1.035.468-1.035 1.269V13h-1.269V8.374h1.107l.117.576c.297-.36.72-.63 1.431-.63zm5.399 3.357V9.445h-.765V8.374h.765V7.078h1.269v1.296h1.062v1.071h-1.062v2.025c0 .324.126.459.459.459h.63V13h-1.035c-.882 0-1.323-.441-1.323-1.323zm5.637-3.303h.216v1.152h-.504c-.756 0-1.044.504-1.044 1.206V13h-1.269V8.374h1.152l.117.693c.252-.414.612-.693 1.332-.693zm5.168 3.555h.144V13h-.648c-.657 0-.864-.315-.855-.756-.324.513-.792.81-1.512.81-.999 0-1.719-.477-1.719-1.359 0-.981.738-1.539 2.124-1.539h.918v-.225c0-.414-.297-.684-.828-.684-.495 0-.828.225-.882.567h-1.224c.09-.9.918-1.494 2.142-1.494 1.296 0 2.043.576 2.043 1.683v1.638c0 .243.099.288.297.288zm-1.548-.837v-.09h-.927c-.531 0-.837.216-.837.603 0 .324.261.531.684.531.666 0 1.071-.414 1.08-1.044zm5.613-2.142V6.7h1.269V13h-1.107l-.126-.639a1.713 1.713 0 01-1.422.693c-1.242 0-2.151-.909-2.151-2.376 0-1.431.909-2.358 2.142-2.358.639 0 1.098.252 1.395.63zm-1.107 3.069c.693 0 1.125-.54 1.125-1.323 0-.792-.432-1.341-1.125-1.341-.693 0-1.134.54-1.134 1.332s.441 1.332 1.134 1.332zm3.989-4.14c-.414 0-.738-.306-.738-.711 0-.414.324-.72.738-.72s.738.306.738.72c0 .405-.324.711-.738.711zM244.054 13V8.374h1.278V13h-1.278zm4.899-4.68c.999 0 1.854.531 1.854 2.115V13h-1.269v-2.439c0-.783-.297-1.197-.936-1.197-.657 0-1.035.468-1.035 1.269V13h-1.269V8.374h1.107l.117.576c.297-.36.72-.63 1.431-.63zm6.145.693l.108-.639h1.116v4.491c0 1.143-.702 1.989-2.475 1.989-1.287 0-2.169-.585-2.232-1.656h1.278c.117.441.468.693 1.053.693.711 0 1.134-.351 1.134-1.071v-.486c-.306.387-.765.639-1.413.639-1.242.009-2.151-.9-2.151-2.331 0-1.413.909-2.331 2.142-2.331.666 0 1.134.297 1.44.702zm-1.152 2.943c.693 0 1.125-.531 1.125-1.296 0-.774-.432-1.323-1.125-1.323-.693 0-1.134.54-1.134 1.314s.441 1.305 1.134 1.305zm8.526 1.098c-1.872 0-3.006-1.269-3.006-3.204 0-1.935 1.179-3.204 3.087-3.204 1.494 0 2.547.936 2.709 2.304h-1.368c-.162-.702-.666-1.161-1.413-1.161-1.026 0-1.638.846-1.638 2.061 0 1.206.603 2.061 1.62 2.061.765 0 1.269-.459 1.431-1.161h1.359c-.153 1.368-1.242 2.304-2.781 2.304zM266.11 13V6.7h4.158v1.161h-2.808v1.476h2.304v1.107h-2.304V13h-1.35zm7.281 0h-2.295V6.7h2.295c1.962 0 3.267 1.287 3.267 3.141 0 1.845-1.305 3.159-3.267 3.159zm-.945-5.175v4.05h.945c1.206 0 1.881-.837 1.881-2.034 0-1.206-.675-2.016-1.881-2.016h-.945zm4.806 3.636h1.206c.045.405.396.684 1.017.684.531 0 .855-.171.855-.495 0-.378-.315-.405-1.062-.504-1.08-.126-1.917-.369-1.917-1.323 0-.918.801-1.521 1.989-1.512 1.242 0 2.097.549 2.16 1.494h-1.215c-.036-.369-.387-.594-.9-.594-.495 0-.819.18-.819.477 0 .351.396.387 1.062.468 1.062.108 1.944.351 1.944 1.395 0 .918-.864 1.503-2.106 1.503-1.287 0-2.16-.603-2.214-1.593zM285.723 13l-1.512-4.626h1.341l.927 3.258.873-3.258h1.143l.846 3.267.945-3.267h1.296L290.061 13h-1.35l-.81-2.79-.828 2.79h-1.35zm7.033-5.121c-.414 0-.738-.306-.738-.711 0-.414.324-.72.738-.72s.738.306.738.72c0 .405-.324.711-.738.711zM292.117 13V8.374h1.278V13h-1.278zm2.576-1.323V9.445h-.765V8.374h.765V7.078h1.269v1.296h1.062v1.071h-1.062v2.025c0 .324.126.459.459.459h.63V13h-1.035c-.882 0-1.323-.441-1.323-1.323zm5.672-3.357c1.026 0 1.872.549 1.872 2.115V13h-1.269v-2.457c0-.756-.306-1.179-.936-1.179-.648 0-1.035.468-1.035 1.26V13h-1.269V6.7h1.269v2.241c.297-.36.711-.621 1.368-.621zm5.417 3.357V9.445h-.765V8.374h.765V7.078h1.269v1.296h1.062v1.071h-1.062v2.025c0 .324.126.459.459.459h.63V13h-1.035c-.882 0-1.323-.441-1.323-1.323zm5.672-3.357c1.026 0 1.872.549 1.872 2.115V13h-1.269v-2.457c0-.756-.306-1.179-.936-1.179-.648 0-1.035.468-1.035 1.26V13h-1.269V6.7h1.269v2.241c.297-.36.711-.621 1.368-.621zm3.401-.441c-.414 0-.738-.306-.738-.711 0-.414.324-.72.738-.72s.738.306.738.72c0 .405-.324.711-.738.711zM314.216 13V8.374h1.278V13h-1.278zm2.027-1.539h1.206c.045.405.396.684 1.017.684.531 0 .855-.171.855-.495 0-.378-.315-.405-1.062-.504-1.08-.126-1.917-.369-1.917-1.323 0-.918.801-1.521 1.989-1.512 1.242 0 2.097.549 2.16 1.494h-1.215c-.036-.369-.387-.594-.9-.594-.495 0-.819.18-.819.477 0 .351.396.387 1.062.468 1.062.108 1.944.351 1.944 1.395 0 .918-.864 1.503-2.106 1.503-1.287 0-2.16-.603-2.214-1.593zm10.056-3.141c1.251-.009 2.151.918 2.151 2.376 0 1.44-.9 2.358-2.142 2.358-.639 0-1.098-.261-1.395-.639V14.8h-1.269V8.374h1.107l.126.639c.297-.396.765-.693 1.422-.693zm-.279 3.699c.693 0 1.143-.549 1.143-1.341 0-.783-.45-1.323-1.143-1.323-.693 0-1.125.54-1.125 1.323 0 .792.432 1.341 1.125 1.341zm5.826-3.645h.216v1.152h-.504c-.756 0-1.044.504-1.044 1.206V13h-1.269V8.374h1.152l.117.693c.252-.414.612-.693 1.332-.693zm2.982 4.68c-1.476 0-2.439-.945-2.439-2.367 0-1.422.963-2.367 2.439-2.367s2.439.945 2.439 2.367c0 1.431-.963 2.367-2.439 2.367zm0-1.035c.711 0 1.152-.549 1.152-1.332s-.441-1.332-1.152-1.332c-.711 0-1.143.549-1.143 1.332s.432 1.332 1.143 1.332zm4.223.981l-1.665-4.626h1.359l1.116 3.33 1.098-3.33h1.332L340.626 13h-1.575zm4.392-5.121c-.414 0-.738-.306-.738-.711 0-.414.324-.72.738-.72s.738.306.738.72c0 .405-.324.711-.738.711zM342.804 13V8.374h1.278V13h-1.278zm5.6-4.05V6.7h1.269V13h-1.107l-.126-.639a1.713 1.713 0 01-1.422.693c-1.242 0-2.151-.909-2.151-2.376 0-1.431.909-2.358 2.142-2.358.639 0 1.098.252 1.395.63zm-1.107 3.069c.693 0 1.125-.54 1.125-1.323 0-.792-.432-1.341-1.125-1.341-.693 0-1.134.54-1.134 1.332s.441 1.332 1.134 1.332zm5.637 1.035c-1.539 0-2.466-.927-2.466-2.358 0-1.44.945-2.376 2.376-2.376 1.386 0 2.322.864 2.34 2.223 0 .135-.009.288-.036.432h-3.357v.063c.027.657.45 1.053 1.089 1.053.513 0 .873-.225.981-.657h1.251c-.144.9-.945 1.62-2.178 1.62zm-1.116-2.907h2.088c-.09-.567-.477-.882-1.053-.882-.549 0-.963.333-1.035.882zm6.751-1.773h.216v1.152h-.504c-.756 0-1.044.504-1.044 1.206V13h-1.269V8.374h1.152l.117.693c.252-.414.612-.693 1.332-.693zm.264 3.933c0-.441.324-.756.765-.756.432 0 .765.315.765.756 0 .432-.333.747-.765.747-.441 0-.765-.315-.765-.747zm6.751-1.638L363.208 6.7h.918l1.854 3.123 1.881-3.123h.882l-2.376 3.969V13h-.783v-2.331zm5.165 2.385c-1.341 0-2.277-.954-2.277-2.349 0-1.395.936-2.349 2.277-2.349 1.341 0 2.277.954 2.277 2.349 0 1.395-.936 2.349-2.277 2.349zm0-.657c.909 0 1.521-.711 1.521-1.692s-.612-1.692-1.521-1.692c-.909 0-1.521.711-1.521 1.692s.612 1.692 1.521 1.692zm6.426-1.692V8.41h.738V13h-.639l-.099-.612c-.27.342-.711.666-1.467.666-1.008 0-1.809-.567-1.809-2.088V8.41h.738v2.511c0 .954.432 1.458 1.197 1.458.837 0 1.341-.639 1.341-1.674zm4.091.783h.756c.027.54.504.936 1.269.936.648 0 1.107-.279 1.107-.702 0-.576-.504-.621-1.188-.702-1.026-.126-1.845-.333-1.845-1.287 0-.837.765-1.386 1.8-1.377 1.044.009 1.8.495 1.872 1.449h-.756c-.054-.468-.486-.819-1.116-.819-.639 0-1.071.27-1.071.693 0 .504.486.567 1.152.648 1.044.126 1.881.324 1.881 1.341 0 .855-.819 1.386-1.836 1.386-1.188 0-2.007-.558-2.025-1.566zm7.02-3.132c1.026 0 1.863.567 1.863 2.088V13h-.738v-2.511c0-.954-.459-1.458-1.251-1.458-.855 0-1.386.639-1.386 1.674V13h-.738V6.7h.738v2.466c.27-.432.738-.81 1.512-.81zm4.956 4.698c-1.341 0-2.277-.954-2.277-2.349 0-1.395.936-2.349 2.277-2.349 1.341 0 2.277.954 2.277 2.349 0 1.395-.936 2.349-2.277 2.349zm0-.657c.909 0 1.521-.711 1.521-1.692s-.612-1.692-1.521-1.692c-.909 0-1.521.711-1.521 1.692s.612 1.692 1.521 1.692zm6.426-1.692V8.41h.738V13h-.639l-.099-.612c-.27.342-.711.666-1.467.666-1.008 0-1.809-.567-1.809-2.088V8.41h.738v2.511c0 .954.432 1.458 1.197 1.458.837 0 1.341-.639 1.341-1.674zM401.502 13V6.7h.738V13h-.738zm5.457-3.888V6.7h.738V13h-.639l-.099-.738c-.306.423-.801.792-1.575.792-1.269 0-2.205-.855-2.205-2.349 0-1.404.936-2.349 2.205-2.349.774 0 1.296.315 1.575.756zm-1.503 3.285c.9 0 1.512-.693 1.512-1.674 0-1.008-.612-1.71-1.512-1.71-.909 0-1.521.693-1.521 1.692s.612 1.692 1.521 1.692zm7.843.657c-1.341 0-2.223-.909-2.223-2.34 0-1.404.909-2.358 2.241-2.358 1.125 0 1.836.63 2.025 1.638h-.774c-.135-.612-.585-.981-1.26-.981-.882 0-1.476.702-1.476 1.701 0 .999.594 1.683 1.476 1.683.657 0 1.107-.378 1.251-.963h.783c-.18.99-.927 1.62-2.043 1.62zm5.057 0c-1.341 0-2.277-.954-2.277-2.349 0-1.395.936-2.349 2.277-2.349 1.341 0 2.277.954 2.277 2.349 0 1.395-.936 2.349-2.277 2.349zm0-.657c.909 0 1.521-.711 1.521-1.692s-.612-1.692-1.521-1.692c-.909 0-1.521.711-1.521 1.692s.612 1.692 1.521 1.692zm5.463-4.041c1.035 0 1.854.567 1.854 2.088V13h-.738v-2.511c0-.954-.441-1.458-1.242-1.458-.864 0-1.386.639-1.386 1.674V13h-.738V8.41h.639l.099.621c.27-.351.738-.675 1.512-.675zm2.696 3.132h.756c.027.54.504.936 1.269.936.648 0 1.107-.279 1.107-.702 0-.576-.504-.621-1.188-.702-1.026-.126-1.845-.333-1.845-1.287 0-.837.765-1.386 1.8-1.377 1.044.009 1.8.495 1.872 1.449h-.756c-.054-.468-.486-.819-1.116-.819-.639 0-1.071.27-1.071.693 0 .504.486.567 1.152.648 1.044.126 1.881.324 1.881 1.341 0 .855-.819 1.386-1.836 1.386-1.188 0-2.007-.558-2.025-1.566zm5.148-3.852a.464.464 0 01-.477-.477c0-.279.207-.477.477-.477s.477.198.477.477a.464.464 0 01-.477.477zM431.285 13V8.41h.738V13h-.738zm5.457-3.888V6.7h.738V13h-.639l-.099-.738c-.306.423-.801.792-1.575.792-1.269 0-2.205-.855-2.205-2.349 0-1.404.936-2.349 2.205-2.349.774 0 1.296.315 1.575.756zm-1.503 3.285c.9 0 1.512-.693 1.512-1.674 0-1.008-.612-1.71-1.512-1.71-.909 0-1.521.693-1.521 1.692s.612 1.692 1.521 1.692zm5.452.657c-1.377 0-2.277-.945-2.277-2.349 0-1.395.882-2.349 2.178-2.349 1.296 0 2.142.819 2.178 2.178 0 .099-.009.207-.018.315h-3.564v.063c.027.873.576 1.485 1.449 1.485.648 0 1.152-.342 1.305-.936h.747c-.18.918-.936 1.593-1.998 1.593zm-1.458-2.817h2.745c-.072-.792-.612-1.233-1.377-1.233-.675 0-1.296.486-1.368 1.233zm6.593-1.827h.207v.72h-.369c-.963 0-1.224.801-1.224 1.53V13h-.738V8.41h.639l.099.693c.216-.351.567-.693 1.386-.693zm4.435 4.59l-1.485-4.59h.774l1.143 3.735 1.206-3.735h.684l1.143 3.735 1.197-3.735h.747L454.14 13h-.81l-1.107-3.411L451.071 13h-.81zm8.327-4.644c1.026 0 1.863.567 1.863 2.088V13h-.738v-2.511c0-.954-.459-1.458-1.251-1.458-.855 0-1.386.639-1.386 1.674V13h-.738V6.7h.738v2.466c.27-.432.738-.81 1.512-.81zm4.956 4.698c-1.377 0-2.277-.945-2.277-2.349 0-1.395.882-2.349 2.178-2.349 1.296 0 2.142.819 2.178 2.178 0 .099-.009.207-.018.315h-3.564v.063c.027.873.576 1.485 1.449 1.485.648 0 1.152-.342 1.305-.936h.747c-.18.918-.936 1.593-1.998 1.593zm-1.458-2.817h2.745c-.072-.792-.612-1.233-1.377-1.233-.675 0-1.296.486-1.368 1.233zm4.758 1.566V9.085h-.828V8.41h.828V7.123h.738V8.41h1.188v.675h-1.188v2.709c0 .387.135.531.531.531h.729V13h-.801c-.882 0-1.197-.387-1.197-1.197zm4.978-3.447c1.026 0 1.863.567 1.863 2.088V13h-.738v-2.511c0-.954-.459-1.458-1.251-1.458-.855 0-1.386.639-1.386 1.674V13h-.738V6.7h.738v2.466c.27-.432.738-.81 1.512-.81zm4.956 4.698c-1.377 0-2.277-.945-2.277-2.349 0-1.395.882-2.349 2.178-2.349 1.296 0 2.142.819 2.178 2.178 0 .099-.009.207-.018.315h-3.564v.063c.027.873.576 1.485 1.449 1.485.648 0 1.152-.342 1.305-.936h.747c-.18.918-.936 1.593-1.998 1.593zm-1.458-2.817h2.745c-.072-.792-.612-1.233-1.377-1.233-.675 0-1.296.486-1.368 1.233zm6.593-1.827h.207v.72h-.369c-.963 0-1.224.801-1.224 1.53V13h-.738V8.41h.639l.099.693c.216-.351.567-.693 1.386-.693zm4.714 4.617l-1.791-4.617h.783l1.413 3.663L488.4 8.41h.783l-2.115 5.364c-.288.738-.459 1.026-1.107 1.026h-.882v-.675h.657c.423 0 .495-.108.666-.54l.225-.558zm5.11.027c-1.341 0-2.277-.954-2.277-2.349 0-1.395.936-2.349 2.277-2.349 1.341 0 2.277.954 2.277 2.349 0 1.395-.936 2.349-2.277 2.349zm0-.657c.909 0 1.521-.711 1.521-1.692s-.612-1.692-1.521-1.692c-.909 0-1.521.711-1.521 1.692s.612 1.692 1.521 1.692zm6.426-1.692V8.41h.738V13h-.639l-.099-.612c-.27.342-.711.666-1.467.666-1.008 0-1.809-.567-1.809-2.088V8.41h.738v2.511c0 .954.432 1.458 1.197 1.458.837 0 1.341-.639 1.341-1.674zm6.34 2.349c-1.341 0-2.223-.909-2.223-2.34 0-1.404.909-2.358 2.241-2.358 1.125 0 1.836.63 2.025 1.638h-.774c-.135-.612-.585-.981-1.26-.981-.882 0-1.476.702-1.476 1.701 0 .999.594 1.683 1.476 1.683.657 0 1.107-.378 1.251-.963h.783c-.18.99-.927 1.62-2.043 1.62zm7.001-.729h.234V13h-.405c-.612 0-.819-.261-.828-.711-.288.414-.747.765-1.539.765-1.008 0-1.692-.504-1.692-1.341 0-.918.639-1.431 1.845-1.431h1.35v-.315c0-.594-.423-.954-1.143-.954-.648 0-1.08.306-1.17.774h-.738c.108-.9.837-1.431 1.944-1.431 1.17 0 1.845.585 1.845 1.656v2.007c0 .243.09.306.297.306zm-1.035-1.197v-.225h-1.422c-.657 0-1.026.243-1.026.765 0 .45.387.756.999.756.918 0 1.449-.531 1.449-1.296zm4.177-2.772c1.035 0 1.854.567 1.854 2.088V13h-.738v-2.511c0-.954-.441-1.458-1.242-1.458-.864 0-1.386.639-1.386 1.674V13h-.738V8.41h.639l.099.621c.27-.351.738-.675 1.512-.675zm9.389 3.969h.234V13h-.405c-.612 0-.819-.261-.828-.711-.288.414-.747.765-1.539.765-1.008 0-1.692-.504-1.692-1.341 0-.918.639-1.431 1.845-1.431H523v-.315c0-.594-.423-.954-1.143-.954-.648 0-1.08.306-1.17.774h-.738c.108-.9.837-1.431 1.944-1.431 1.17 0 1.845.585 1.845 1.656v2.007c0 .243.09.306.297.306zM523 11.128v-.225h-1.422c-.657 0-1.026.243-1.026.765 0 .45.387.756.999.756.918 0 1.449-.531 1.449-1.296zm6.85-3.753h-.801c-.369 0-.504.153-.504.504v.531h1.296v.675h-1.296V13h-.738V9.085h-1.8V13h-.738V9.085h-.828V8.41h.828v-.513c0-.81.342-1.197 1.197-1.197h.756v.675h-.711c-.369 0-.504.153-.504.504v.531h1.8v-.513c0-.81.342-1.197 1.197-1.197h.846v.675zm2.529 5.679c-1.341 0-2.277-.954-2.277-2.349 0-1.395.936-2.349 2.277-2.349 1.341 0 2.277.954 2.277 2.349 0 1.395-.936 2.349-2.277 2.349zm0-.657c.909 0 1.521-.711 1.521-1.692s-.612-1.692-1.521-1.692c-.909 0-1.521.711-1.521 1.692s.612 1.692 1.521 1.692zm5.337-3.987h.207v.72h-.369c-.963 0-1.224.801-1.224 1.53V13h-.738V8.41h.639l.099.693c.216-.351.567-.693 1.386-.693zm4.291.702V6.7h.738V13h-.639l-.099-.738c-.306.423-.801.792-1.575.792-1.269 0-2.205-.855-2.205-2.349 0-1.404.936-2.349 2.205-2.349.774 0 1.296.315 1.575.756zm-1.503 3.285c.9 0 1.512-.693 1.512-1.674 0-1.008-.612-1.71-1.512-1.71-.909 0-1.521.693-1.521 1.692s.612 1.692 1.521 1.692zm6.124-.594V9.085h-.828V8.41h.828V7.123h.738V8.41h1.188v.675h-1.188v2.709c0 .387.135.531.531.531h.729V13h-.801c-.882 0-1.197-.387-1.197-1.197zm4.728 1.251c-1.341 0-2.277-.954-2.277-2.349 0-1.395.936-2.349 2.277-2.349 1.341 0 2.277.954 2.277 2.349 0 1.395-.936 2.349-2.277 2.349zm0-.657c.909 0 1.521-.711 1.521-1.692s-.612-1.692-1.521-1.692c-.909 0-1.521.711-1.521 1.692s.612 1.692 1.521 1.692zm6.001-.594V9.085h-.828V8.41h.828V7.123h.738V8.41h1.188v.675h-1.188v2.709c0 .387.135.531.531.531h.729V13h-.801c-.882 0-1.197-.387-1.197-1.197zm6.716.522h.234V13h-.405c-.612 0-.819-.261-.828-.711-.288.414-.747.765-1.539.765-1.008 0-1.692-.504-1.692-1.341 0-.918.639-1.431 1.845-1.431h1.35v-.315c0-.594-.423-.954-1.143-.954-.648 0-1.08.306-1.17.774h-.738c.108-.9.837-1.431 1.944-1.431 1.17 0 1.845.585 1.845 1.656v2.007c0 .243.09.306.297.306zm-1.035-1.197v-.225h-1.422c-.657 0-1.026.243-1.026.765 0 .45.387.756.999.756.918 0 1.449-.531 1.449-1.296zM564.964 13V6.7h.738v4.149l2.304-2.439h.909l-1.791 1.899L569.041 13h-.891l-1.521-2.16-.927.954V13h-.738zm6.538.054c-1.377 0-2.277-.945-2.277-2.349 0-1.395.882-2.349 2.178-2.349 1.296 0 2.142.819 2.178 2.178 0 .099-.009.207-.018.315h-3.564v.063c.027.873.576 1.485 1.449 1.485.648 0 1.152-.342 1.305-.936h.747c-.18.918-.936 1.593-1.998 1.593zm-1.458-2.817h2.745c-.072-.792-.612-1.233-1.377-1.233-.675 0-1.296.486-1.368 1.233zm7.257 1.566V9.085h-.828V8.41h.828V7.123h.738V8.41h1.188v.675h-1.188v2.709c0 .387.135.531.531.531h.729V13h-.801c-.882 0-1.197-.387-1.197-1.197zm4.977-3.447c1.026 0 1.863.567 1.863 2.088V13h-.738v-2.511c0-.954-.459-1.458-1.251-1.458-.855 0-1.386.639-1.386 1.674V13h-.738V6.7h.738v2.466c.27-.432.738-.81 1.512-.81zm4.956 4.698c-1.377 0-2.277-.945-2.277-2.349 0-1.395.882-2.349 2.178-2.349 1.296 0 2.142.819 2.178 2.178 0 .099-.009.207-.018.315h-3.564v.063c.027.873.576 1.485 1.449 1.485.648 0 1.152-.342 1.305-.936h.747c-.18.918-.936 1.593-1.998 1.593zm-1.458-2.817h2.745c-.072-.792-.612-1.233-1.377-1.233-.675 0-1.296.486-1.368 1.233zm9.165-1.881c1.026 0 1.863.567 1.863 2.088V13h-.738v-2.511c0-.954-.459-1.458-1.251-1.458-.855 0-1.386.639-1.386 1.674V13h-.738V6.7h.738v2.466c.27-.432.738-.81 1.512-.81zm3.272-.72a.464.464 0 01-.477-.477c0-.279.207-.477.477-.477s.477.198.477.477a.464.464 0 01-.477.477zM597.835 13V8.41h.738V13h-.738zm5.457-3.798l.099-.792h.639v4.365c0 1.323-.702 2.079-2.277 2.079-1.17 0-1.989-.549-2.106-1.557h.756c.126.576.639.9 1.404.9.963 0 1.485-.45 1.485-1.449v-.54c-.306.522-.801.846-1.575.846-1.269 0-2.205-.855-2.205-2.349 0-1.404.936-2.349 2.205-2.349.774 0 1.287.333 1.575.846zm-1.503 3.195c.9 0 1.512-.693 1.512-1.674 0-1.008-.612-1.71-1.512-1.71-.909 0-1.521.693-1.521 1.692s.612 1.692 1.521 1.692zm5.586-4.041c1.026 0 1.863.567 1.863 2.088V13h-.738v-2.511c0-.954-.459-1.458-1.251-1.458-.855 0-1.386.639-1.386 1.674V13h-.738V6.7h.738v2.466c.27-.432.738-.81 1.512-.81zm7.463.054h.207v.72h-.369c-.963 0-1.224.801-1.224 1.53V13h-.738V8.41h.639l.099.693c.216-.351.567-.693 1.386-.693zm1.315-.774a.464.464 0 01-.477-.477c0-.279.207-.477.477-.477s.477.198.477.477a.464.464 0 01-.477.477zM615.775 13V8.41h.738V13h-.738zm1.65-1.512h.756c.027.54.504.936 1.269.936.648 0 1.107-.279 1.107-.702 0-.576-.504-.621-1.188-.702-1.026-.126-1.845-.333-1.845-1.287 0-.837.765-1.386 1.8-1.377 1.044.009 1.8.495 1.872 1.449h-.756c-.054-.468-.486-.819-1.116-.819-.639 0-1.071.27-1.071.693 0 .504.486.567 1.152.648 1.044.126 1.881.324 1.881 1.341 0 .855-.819 1.386-1.836 1.386-1.188 0-2.007-.558-2.025-1.566zm4.77 1.512V6.7h.738v4.149l2.304-2.439h.909l-1.791 1.899L626.272 13h-.891l-1.521-2.16-.927.954V13h-.738zm9.247.054c-1.341 0-2.277-.954-2.277-2.349 0-1.395.936-2.349 2.277-2.349 1.341 0 2.277.954 2.277 2.349 0 1.395-.936 2.349-2.277 2.349zm0-.657c.909 0 1.521-.711 1.521-1.692s-.612-1.692-1.521-1.692c-.909 0-1.521.711-1.521 1.692s.612 1.692 1.521 1.692zm2.675-3.312V8.41h.828v-.513c0-.81.342-1.197 1.197-1.197h.837v.675h-.792c-.369 0-.504.153-.504.504v.531h1.296v.675h-1.296V13h-.738V9.085h-.828zm5.93 3.915V6.7h.738V13h-.738zm3.954.054c-1.341 0-2.277-.954-2.277-2.349 0-1.395.936-2.349 2.277-2.349 1.341 0 2.277.954 2.277 2.349 0 1.395-.936 2.349-2.277 2.349zm0-.657c.909 0 1.521-.711 1.521-1.692s-.612-1.692-1.521-1.692c-.909 0-1.521.711-1.521 1.692s.612 1.692 1.521 1.692zm3.007-.909h.756c.027.54.504.936 1.269.936.648 0 1.107-.279 1.107-.702 0-.576-.504-.621-1.188-.702-1.026-.126-1.845-.333-1.845-1.287 0-.837.765-1.386 1.8-1.377 1.044.009 1.8.495 1.872 1.449h-.756c-.054-.468-.486-.819-1.116-.819-.639 0-1.071.27-1.071.693 0 .504.486.567 1.152.648 1.044.126 1.881.324 1.881 1.341 0 .855-.819 1.386-1.836 1.386-1.188 0-2.007-.558-2.025-1.566zm5.148-3.852a.464.464 0 01-.477-.477c0-.279.207-.477.477-.477s.477.198.477.477a.464.464 0 01-.477.477zM651.778 13V8.41h.738V13h-.738zm4.089-4.644c1.035 0 1.854.567 1.854 2.088V13h-.738v-2.511c0-.954-.441-1.458-1.242-1.458-.864 0-1.386.639-1.386 1.674V13h-.738V8.41h.639l.099.621c.27-.351.738-.675 1.512-.675zm6.503.846l.099-.792h.639v4.365c0 1.323-.702 2.079-2.277 2.079-1.17 0-1.989-.549-2.106-1.557h.756c.126.576.639.9 1.404.9.963 0 1.485-.45 1.485-1.449v-.54c-.306.522-.801.846-1.575.846-1.269 0-2.205-.855-2.205-2.349 0-1.404.936-2.349 2.205-2.349.774 0 1.287.333 1.575.846zm-1.503 3.195c.9 0 1.512-.693 1.512-1.674 0-1.008-.612-1.71-1.512-1.71-.909 0-1.521.693-1.521 1.692s.612 1.692 1.521 1.692zm7.114.63L666.19 8.41h.783l1.413 3.663 1.368-3.663h.783l-2.115 5.364c-.288.738-.459 1.026-1.107 1.026h-.882v-.675h.657c.423 0 .495-.108.666-.54l.225-.558zm5.109.027c-1.341 0-2.277-.954-2.277-2.349 0-1.395.936-2.349 2.277-2.349 1.341 0 2.277.954 2.277 2.349 0 1.395-.936 2.349-2.277 2.349zm0-.657c.909 0 1.521-.711 1.521-1.692s-.612-1.692-1.521-1.692c-.909 0-1.521.711-1.521 1.692s.612 1.692 1.521 1.692zm6.427-1.692V8.41h.738V13h-.639l-.099-.612c-.27.342-.711.666-1.467.666-1.008 0-1.809-.567-1.809-2.088V8.41h.738v2.511c0 .954.432 1.458 1.197 1.458.837 0 1.341-.639 1.341-1.674zm3.958-2.295h.207v.72h-.369c-.963 0-1.224.801-1.224 1.53V13h-.738V8.41h.639l.099.693c.216-.351.567-.693 1.386-.693zm8.503-.054c.954 0 1.737.549 1.737 1.998V13h-.738v-2.601c0-.9-.396-1.368-1.089-1.368-.765 0-1.233.576-1.233 1.512V13h-.738v-2.601c0-.9-.405-1.368-1.107-1.368-.756 0-1.215.63-1.215 1.548V13h-.738V8.41h.639l.099.63c.243-.333.63-.684 1.341-.684.639 0 1.188.288 1.449.873.279-.495.774-.873 1.593-.873zm4.836 4.698c-1.341 0-2.277-.954-2.277-2.349 0-1.395.936-2.349 2.277-2.349 1.341 0 2.277.954 2.277 2.349 0 1.395-.936 2.349-2.277 2.349zm0-.657c.909 0 1.521-.711 1.521-1.692s-.612-1.692-1.521-1.692c-.909 0-1.521.711-1.521 1.692s.612 1.692 1.521 1.692zm5.463-4.041c1.035 0 1.854.567 1.854 2.088V13h-.738v-2.511c0-.954-.441-1.458-1.242-1.458-.864 0-1.386.639-1.386 1.674V13h-.738V8.41h.639l.099.621c.27-.351.738-.675 1.512-.675zm4.947 4.698c-1.377 0-2.277-.945-2.277-2.349 0-1.395.882-2.349 2.178-2.349 1.296 0 2.142.819 2.178 2.178 0 .099-.009.207-.018.315h-3.564v.063c.027.873.576 1.485 1.449 1.485.648 0 1.152-.342 1.305-.936h.747c-.18.918-.936 1.593-1.998 1.593zm-1.458-2.817h2.745c-.072-.792-.612-1.233-1.377-1.233-.675 0-1.296.486-1.368 1.233zm5.599 2.79l-1.791-4.617h.783l1.413 3.663 1.368-3.663h.783l-2.115 5.364c-.288.738-.459 1.026-1.107 1.026h-.882v-.675h.657c.423 0 .495-.108.666-.54l.225-.558zm2.676-.477c0-.306.216-.504.513-.504.297 0 .513.198.513.504s-.216.504-.513.504c-.297 0-.513-.198-.513-.504z" fill="#000"/></svg>