<svg width="153" height="31" viewBox="0 0 153 31" fill="none" xmlns="http://www.w3.org/2000/svg"><rect width="153" height="31" rx="15.5" fill="url(#paint0_linear_3524_1125)"/><path d="M14.56 16.794h1.26c.098 1.316 1.12 2.184 2.618 2.184 1.316 0 2.254-.602 2.254-1.666 0-1.218-1.204-1.47-2.688-1.722-1.582-.266-3.206-.784-3.206-2.688 0-1.666 1.358-2.786 3.346-2.786 2.184 0 3.528 1.218 3.64 2.982h-1.26c-.14-1.134-1.05-1.876-2.38-1.876-1.274 0-2.128.56-2.128 1.61 0 1.176 1.19 1.414 2.66 1.666 1.596.266 3.234.798 3.234 2.702 0 1.694-1.428 2.884-3.486 2.884-2.394 0-3.794-1.358-3.864-3.29zm9.26 1.344V13.91h-1.288v-1.05h1.288v-2.002h1.148v2.002h1.848v1.05h-1.848v4.214c0 .602.21.826.826.826h1.134V20h-1.246c-1.372 0-1.862-.602-1.862-1.862zm10.307.812h.364V20h-.63c-.952 0-1.274-.406-1.288-1.106-.448.644-1.162 1.19-2.394 1.19-1.568 0-2.632-.784-2.632-2.086 0-1.428.994-2.226 2.87-2.226h2.1v-.49c0-.924-.658-1.484-1.778-1.484-1.008 0-1.68.476-1.82 1.204h-1.148c.168-1.4 1.302-2.226 3.024-2.226 1.82 0 2.87.91 2.87 2.576v3.122c0 .378.14.476.462.476zm-1.61-1.862v-.35h-2.212c-1.022 0-1.596.378-1.596 1.19 0 .7.602 1.176 1.554 1.176 1.428 0 2.254-.826 2.254-2.016zm6.16-4.228H39v1.12h-.574c-1.498 0-1.904 1.246-1.904 2.38V20h-1.148v-7.14h.994l.154 1.078c.336-.546.882-1.078 2.156-1.078zm2.082 5.278V13.91h-1.288v-1.05h1.288v-2.002h1.148v2.002h1.848v1.05h-1.848v4.214c0 .602.21.826.826.826h1.134V20h-1.246c-1.372 0-1.862-.602-1.862-1.862zm7.473-.49h1.176c.042.84.784 1.456 1.974 1.456 1.008 0 1.722-.434 1.722-1.092 0-.896-.784-.966-1.848-1.092-1.596-.196-2.87-.518-2.87-2.002 0-1.302 1.19-2.156 2.8-2.142 1.624.014 2.8.77 2.912 2.254h-1.176c-.084-.728-.756-1.274-1.736-1.274-.994 0-1.666.42-1.666 1.078 0 .784.756.882 1.792 1.008 1.624.196 2.926.504 2.926 2.086 0 1.33-1.274 2.156-2.856 2.156-1.848 0-3.122-.868-3.15-2.436zm10.879-4.872c1.974 0 3.43 1.33 3.43 3.654 0 2.184-1.456 3.654-3.43 3.654-1.204 0-2.017-.49-2.45-1.176V22.8h-1.148v-9.94h.994l.154 1.148c.475-.658 1.245-1.232 2.45-1.232zm-.112 6.286c1.413 0 2.365-1.078 2.365-2.632s-.951-2.632-2.365-2.632c-1.4 0-2.352 1.078-2.352 2.604 0 1.568.952 2.66 2.352 2.66zm8.157-6.202h.322v1.12h-.574c-1.498 0-1.904 1.246-1.904 2.38V20h-1.148v-7.14h.994L65 13.938c.336-.546.882-1.078 2.156-1.078zm4.197 7.224c-2.142 0-3.542-1.47-3.542-3.654 0-2.17 1.372-3.654 3.388-3.654s3.332 1.274 3.388 3.388c0 .154-.014.322-.028.49h-5.544v.098c.042 1.358.896 2.31 2.254 2.31 1.008 0 1.792-.532 2.03-1.456h1.162c-.28 1.428-1.456 2.478-3.108 2.478zm-2.268-4.382h4.27c-.112-1.232-.952-1.918-2.142-1.918-1.05 0-2.016.756-2.128 1.918zm13.126 3.248h.364V20h-.63c-.952 0-1.274-.406-1.288-1.106-.448.644-1.162 1.19-2.394 1.19-1.568 0-2.632-.784-2.632-2.086 0-1.428.994-2.226 2.87-2.226h2.1v-.49c0-.924-.658-1.484-1.778-1.484-1.008 0-1.68.476-1.82 1.204h-1.148c.168-1.4 1.302-2.226 3.024-2.226 1.82 0 2.87.91 2.87 2.576v3.122c0 .378.14.476.462.476zm-1.61-1.862v-.35H78.39c-1.022 0-1.596.378-1.596 1.19 0 .7.602 1.176 1.554 1.176 1.428 0 2.254-.826 2.254-2.016zm8.403-3.136V10.2h1.148V20h-.994l-.154-1.148c-.476.658-1.246 1.232-2.45 1.232-1.974 0-3.43-1.33-3.43-3.654 0-2.184 1.456-3.654 3.43-3.654 1.204 0 2.016.49 2.45 1.176zm-2.338 5.11c1.4 0 2.352-1.078 2.352-2.604 0-1.568-.952-2.66-2.352-2.66-1.414 0-2.366 1.078-2.366 2.632s.952 2.632 2.366 2.632zm12.312-6.286c1.974 0 3.43 1.33 3.43 3.654 0 2.184-1.456 3.654-3.43 3.654-1.204 0-2.016-.49-2.45-1.176L96.374 20h-.994v-9.8h1.148v3.808c.476-.658 1.246-1.232 2.45-1.232zm-.112 6.286c1.414 0 2.366-1.078 2.366-2.632s-.952-2.632-2.366-2.632c-1.4 0-2.352 1.078-2.352 2.604 0 1.568.952 2.66 2.352 2.66zm8.144 1.022c-2.142 0-3.542-1.47-3.542-3.654 0-2.17 1.372-3.654 3.388-3.654s3.332 1.274 3.388 3.388c0 .154-.014.322-.028.49h-5.544v.098c.042 1.358.896 2.31 2.254 2.31 1.008 0 1.792-.532 2.03-1.456h1.162c-.28 1.428-1.456 2.478-3.108 2.478zm-2.268-4.382h4.27c-.112-1.232-.952-1.918-2.142-1.918-1.05 0-2.016.756-2.128 1.918zm13.282 3.248h1.246V20h-1.316c-1.372 0-1.862-.602-1.862-1.862V13.91h-2.94v4.214c0 .602.21.826.784.826h1.022V20h-1.092c-1.372 0-1.862-.602-1.862-1.862V13.91h-1.288v-1.05h1.288v-2.002h1.148v2.002h2.94v-2.002h1.148v2.002h1.806v1.05h-1.806v4.214c0 .602.21.826.784.826zm2.827-7.294a.721.721 0 01-.742-.742c0-.434.322-.742.742-.742s.742.308.742.742a.721.721 0 01-.742.742zM120.263 20v-7.14h1.148V20h-1.148zm6.22-7.224c1.61 0 2.884.882 2.884 3.248V20h-1.148v-3.906c0-1.484-.686-2.268-1.932-2.268-1.344 0-2.156.994-2.156 2.604V20h-1.148v-7.14h.994l.154.966c.42-.546 1.148-1.05 2.352-1.05zm9.976 1.316l.154-1.232h.994v6.79c0 2.058-1.092 3.234-3.542 3.234-1.82 0-3.094-.854-3.276-2.422h1.176c.196.896.994 1.4 2.184 1.4 1.498 0 2.31-.7 2.31-2.254v-.84c-.476.812-1.246 1.316-2.45 1.316-1.974 0-3.43-1.33-3.43-3.654 0-2.184 1.456-3.654 3.43-3.654 1.204 0 2.002.518 2.45 1.316zm-2.338 4.97c1.4 0 2.352-1.078 2.352-2.604 0-1.568-.952-2.66-2.352-2.66-1.414 0-2.366 1.078-2.366 2.632s.952 2.632 2.366 2.632z" fill="#fff"/><defs><linearGradient id="paint0_linear_3524_1125" x1="0" y1="0" x2="13.364" y2="61.394" gradientUnits="userSpaceOnUse"><stop stop-color="#FF4343"/><stop offset="1" stop-color="#E62B50"/></linearGradient></defs></svg>