<svg width="276" height="180" viewBox="0 0 276 180" fill="none" xmlns="http://www.w3.org/2000/svg"><path d="M16.898 27H9.282V4.6h7.616c7.008 0 11.424 4.512 11.424 11.168S23.906 27 16.898 27zM12.962 7.8v16h3.936c4.928 0 7.648-3.232 7.648-8.032S21.826 7.8 16.898 7.8h-3.936zm20.01.512c-1.184 0-2.112-.864-2.112-2.08 0-1.216.928-2.08 2.112-2.08 1.184 0 2.112.864 2.112 2.08 0 1.216-.928 2.08-2.112 2.08zM31.212 27V10.616h3.456V27h-3.456zm6.14-5.408h3.391c.128 1.696 1.6 2.912 4.096 2.912 2.144 0 3.552-.832 3.552-2.144 0-1.76-1.504-1.888-4.032-2.208-3.744-.448-6.688-1.248-6.688-4.64 0-3.104 2.784-5.12 6.72-5.088 4.032 0 6.88 1.856 7.104 5.216h-3.392c-.192-1.504-1.6-2.56-3.648-2.56s-3.392.832-3.392 2.144c0 1.536 1.568 1.728 3.936 1.984 3.744.448 6.784 1.216 6.784 4.864 0 3.136-2.976 5.12-6.944 5.12-4.384 0-7.392-2.048-7.488-5.6zm24.63 5.6c-4.96 0-8.128-3.232-8.128-8.352 0-5.056 3.264-8.416 8.224-8.416 4.224 0 6.848 2.336 7.52 6.048h-3.616c-.448-1.92-1.824-3.104-3.968-3.104-2.784 0-4.608 2.24-4.608 5.472 0 3.2 1.824 5.408 4.608 5.408 2.112 0 3.52-1.216 3.936-3.104h3.648c-.64 3.712-3.424 6.048-7.616 6.048zm18.005 0c-4.992 0-8.352-3.36-8.352-8.384 0-4.992 3.36-8.384 8.352-8.384 4.992 0 8.352 3.392 8.352 8.384 0 5.024-3.36 8.384-8.352 8.384zm0-2.944c2.912 0 4.832-2.272 4.832-5.44 0-3.168-1.92-5.44-4.832-5.44s-4.8 2.272-4.8 5.44c0 3.168 1.888 5.44 4.8 5.44zM94.784 27l-6.048-16.384h3.712l4.512 12.672 4.448-12.672h3.648L99.008 27h-4.224zm19.047.192c-5.152 0-8.384-3.328-8.384-8.352 0-5.056 3.232-8.416 8.064-8.416 4.736 0 7.904 3.008 8 7.808 0 .416-.032.864-.096 1.312h-12.352v.224c.096 2.784 1.856 4.608 4.576 4.608 2.112 0 3.648-1.056 4.128-2.88h3.456c-.576 3.232-3.328 5.696-7.392 5.696zm-4.64-10.176h8.736c-.288-2.432-1.984-3.808-4.384-3.808-2.208 0-4.096 1.472-4.352 3.808zm23.402-6.4h.768v3.232h-1.536c-3.072 0-4.064 2.4-4.064 4.928V27h-3.456V10.616h3.072l.384 2.464c.832-1.376 2.144-2.464 4.832-2.464zm12.271 11.936v-8.896h-2.848v-3.04h2.848V6.04h3.488v4.576h4v3.04h-4V22.2c0 1.28.448 1.76 1.76 1.76h2.432V27h-3.2c-3.136 0-4.48-1.472-4.48-4.448zm24.667 1.44h.704V27h-1.824c-2.24 0-3.008-.992-3.008-2.624-1.088 1.664-2.752 2.816-5.408 2.816-3.584 0-6.08-1.76-6.08-4.8 0-3.36 2.432-5.248 7.008-5.248h4.128v-.992c0-1.824-1.312-2.944-3.584-2.944-2.048 0-3.424.96-3.68 2.4h-3.392c.352-3.2 3.104-5.184 7.232-5.184 4.352 0 6.848 2.08 6.848 5.952v6.56c0 .832.352 1.056 1.056 1.056zm-4.48-3.712v-.576h-4.288c-2.144 0-3.328.8-3.328 2.464 0 1.376 1.152 2.336 3.04 2.336 2.88 0 4.544-1.696 4.576-4.224zm5.371 6.72l6.144-8.384-5.792-8h4.032l3.904 5.536 4-5.536h3.808l-5.824 8L186.87 27h-4.032l-4.288-5.952L174.23 27h-3.808zm27.353-7.68h-10.88v-2.848h10.88v2.848zm1.148-5.664v-3.04h2.848V9.08c0-2.944 1.408-4.48 4.576-4.48h3.296v3.04h-2.848c-1.12 0-1.6.48-1.6 1.6v1.376h4.448v3.04h-4.384V27h-3.488V13.656h-2.848zm20.795-3.04h.768v3.232h-1.536c-3.072 0-4.064 2.4-4.064 4.928V27h-3.456V10.616h3.072l.384 2.464c.832-1.376 2.144-2.464 4.832-2.464zm9.895 16.576c-5.152 0-8.384-3.328-8.384-8.352 0-5.056 3.232-8.416 8.064-8.416 4.736 0 7.904 3.008 8 7.808 0 .416-.032.864-.096 1.312h-12.352v.224c.096 2.784 1.856 4.608 4.576 4.608 2.112 0 3.648-1.056 4.128-2.88h3.456c-.576 3.232-3.328 5.696-7.392 5.696zm-4.64-10.176h8.736c-.288-2.432-1.984-3.808-4.384-3.808-2.208 0-4.096 1.472-4.352 3.808zm22.89 10.176c-5.152 0-8.384-3.328-8.384-8.352 0-5.056 3.232-8.416 8.064-8.416 4.736 0 7.904 3.008 8 7.808 0 .416-.032.864-.096 1.312h-12.352v.224c.096 2.784 1.856 4.608 4.576 4.608 2.112 0 3.648-1.056 4.128-2.88h3.456c-.576 3.232-3.328 5.696-7.392 5.696zm-4.64-10.176h8.736c-.288-2.432-1.984-3.808-4.384-3.808-2.208 0-4.096 1.472-4.352 3.808zm23.28-10.208l.96 2.272-3.808 1.408 2.624 2.976-1.856 1.6-2.56-3.36-2.528 3.328-1.824-1.6 2.624-2.976-3.776-1.408.96-2.24 3.488 1.664-.096-3.904h2.368l-.096 3.936 3.52-1.696zM32.93 52.592h3.392c.127 1.696 1.6 2.912 4.095 2.912 2.145 0 3.552-.832 3.552-2.144 0-1.76-1.504-1.888-4.032-2.208-3.743-.448-6.688-1.248-6.688-4.64 0-3.104 2.784-5.12 6.72-5.088 4.032 0 6.88 1.856 7.105 5.216h-3.392c-.193-1.504-1.6-2.56-3.649-2.56-2.047 0-3.392.832-3.392 2.144 0 1.536 1.569 1.728 3.937 1.984 3.743.448 6.783 1.216 6.783 4.864 0 3.136-2.975 5.12-6.944 5.12-4.384 0-7.392-2.048-7.488-5.6zm25.878-11.168c4.48 0 7.744 3.136 7.744 8.384 0 5.056-3.264 8.384-7.744 8.384-2.528 0-4.288-1.024-5.312-2.496V64.4H50.04V41.616h3.008l.416 2.432c1.088-1.44 2.784-2.624 5.344-2.624zm-.576 13.856c2.88 0 4.8-2.272 4.8-5.472 0-3.232-1.92-5.44-4.8-5.44s-4.768 2.208-4.768 5.376c0 3.264 1.888 5.536 4.768 5.536zm19.377-13.664h.768v3.232h-1.536c-3.072 0-4.064 2.4-4.064 4.928V58h-3.456V41.616h3.072l.384 2.464c.832-1.376 2.144-2.464 4.832-2.464zm9.894 16.576c-5.152 0-8.384-3.328-8.384-8.352 0-5.056 3.232-8.416 8.064-8.416 4.736 0 7.904 3.008 8 7.808 0 .416-.032.864-.096 1.312H82.735v.224c.096 2.784 1.856 4.608 4.576 4.608 2.112 0 3.648-1.056 4.128-2.88h3.456c-.576 3.232-3.328 5.696-7.392 5.696zm-4.64-10.176H91.6c-.288-2.432-1.984-3.808-4.384-3.808-2.208 0-4.096 1.472-4.352 3.808zm30.09 6.976h.704V58h-1.824c-2.24 0-3.008-.992-3.008-2.624-1.088 1.664-2.752 2.816-5.408 2.816-3.584 0-6.08-1.76-6.08-4.8 0-3.36 2.432-5.248 7.008-5.248h4.128v-.992c0-1.824-1.312-2.944-3.584-2.944-2.048 0-3.424.96-3.68 2.4h-3.392c.352-3.2 3.104-5.184 7.232-5.184 4.352 0 6.848 2.08 6.848 5.952v6.56c0 .832.352 1.056 1.056 1.056zm-4.48-3.712v-.576h-4.288c-2.144 0-3.328.8-3.328 2.464 0 1.376 1.152 2.336 3.04 2.336 2.88 0 4.544-1.696 4.576-4.224zm19.39-7.392V35.6h3.456V58h-3.008l-.416-2.464c-1.056 1.44-2.752 2.656-5.344 2.656-4.448 0-7.744-3.136-7.744-8.384 0-5.056 3.296-8.384 7.744-8.384 2.496 0 4.256 1.024 5.312 2.464zm-4.736 11.392c2.88 0 4.768-2.24 4.768-5.408 0-3.264-1.888-5.504-4.768-5.504s-4.768 2.24-4.768 5.44c0 3.232 1.888 5.472 4.768 5.472zm28.525-13.856c4.48 0 7.744 3.104 7.744 8.384 0 5.024-3.264 8.384-7.744 8.384-2.56 0-4.32-1.088-5.344-2.56L145.891 58h-3.007V35.6h3.456v8.448c1.088-1.472 2.784-2.624 5.312-2.624zm-.576 13.856c2.88 0 4.8-2.24 4.8-5.472 0-3.2-1.92-5.44-4.8-5.44s-4.768 2.24-4.768 5.408c0 3.232 1.888 5.504 4.768 5.504zm18.865 2.912c-5.152 0-8.384-3.328-8.384-8.352 0-5.056 3.232-8.416 8.064-8.416 4.736 0 7.904 3.008 8 7.808 0 .416-.032.864-.096 1.312h-12.352v.224c.096 2.784 1.856 4.608 4.576 4.608 2.112 0 3.648-1.056 4.128-2.88h3.456c-.576 3.232-3.328 5.696-7.392 5.696zm-4.64-10.176h8.736c-.288-2.432-1.984-3.808-4.384-3.808-2.208 0-4.096 1.472-4.352 3.808zm31.117 6.944h2.624V58h-3.328c-3.136 0-4.448-1.472-4.448-4.448v-8.896h-6.304V53.2c0 1.28.448 1.76 1.696 1.76h2.144V58h-2.848c-3.136 0-4.48-1.472-4.48-4.448v-8.896h-2.848v-3.04h2.848V37.04h3.488v4.576h6.304V37.04h3.456v4.576h3.968v3.04h-3.968V53.2c0 1.28.48 1.76 1.696 1.76zm6.601-15.648c-1.184 0-2.112-.864-2.112-2.08 0-1.216.928-2.08 2.112-2.08 1.184 0 2.112.864 2.112 2.08 0 1.216-.928 2.08-2.112 2.08zM201.259 58V41.616h3.456V58h-3.456zm15.483-16.576c3.616 0 6.592 1.984 6.592 7.456V58h-3.488v-8.832c0-3.104-1.312-4.768-3.904-4.768-2.752 0-4.384 2.016-4.384 5.344V58h-3.456V41.616h3.008l.384 2.144c1.024-1.28 2.592-2.336 5.248-2.336zm22.247 2.752l.384-2.56h3.008v15.712c0 4.448-2.496 7.264-8.384 7.264-4.352 0-7.392-2.016-7.712-5.696h3.52c.416 1.824 2.016 2.88 4.448 2.88 3.008 0 4.704-1.44 4.704-4.576v-1.824c-1.088 1.632-2.784 2.688-5.344 2.688-4.448 0-7.744-3.104-7.744-8.32 0-5.024 3.296-8.32 7.744-8.32 2.56 0 4.32 1.12 5.376 2.752zm-4.8 10.976c2.88 0 4.768-2.208 4.768-5.344 0-3.232-1.888-5.472-4.768-5.472s-4.768 2.24-4.768 5.408c0 3.2 1.888 5.408 4.768 5.408zM.431 84.6V83h10.82v1.6h-4.54V97h-1.74V84.6H.431zm19.877 10.9h.52V97h-.9c-1.36 0-1.82-.58-1.84-1.58-.64.92-1.66 1.7-3.42 1.7-2.24 0-3.76-1.12-3.76-2.98 0-2.04 1.42-3.18 4.1-3.18h3v-.7c0-1.32-.94-2.12-2.54-2.12-1.44 0-2.4.68-2.6 1.72h-1.64c.24-2 1.86-3.18 4.32-3.18 2.6 0 4.1 1.3 4.1 3.68v4.46c0 .54.2.68.66.68zm-2.3-2.66v-.5h-3.16c-1.46 0-2.28.54-2.28 1.7 0 1 .86 1.68 2.22 1.68 2.04 0 3.22-1.18 3.22-2.88zm4.08 4.16V83h1.64v9.22l5.12-5.42h2.02l-3.98 4.22 4.26 5.98h-1.98l-3.38-4.8-2.06 2.12V97h-1.64zm14.33.12c-3.06 0-5.06-2.1-5.06-5.22 0-3.1 1.96-5.22 4.84-5.22s4.76 1.82 4.84 4.84c0 .22-.02.46-.04.7h-7.92v.14c.06 1.94 1.28 3.3 3.22 3.3 1.44 0 2.56-.76 2.9-2.08h1.66c-.4 2.04-2.08 3.54-4.44 3.54zm-3.24-6.26h6.1c-.16-1.76-1.36-2.74-3.06-2.74-1.5 0-2.88 1.08-3.04 2.74zm23.985 4.64h.52V97h-.9c-1.36 0-1.82-.58-1.84-1.58-.64.92-1.66 1.7-3.42 1.7-2.24 0-3.76-1.12-3.76-2.98 0-2.04 1.42-3.18 4.1-3.18h3v-.7c0-1.32-.94-2.12-2.54-2.12-1.44 0-2.4.68-2.6 1.72h-1.64c.24-2 1.86-3.18 4.32-3.18 2.6 0 4.1 1.3 4.1 3.68v4.46c0 .54.2.68.66.68zm-2.3-2.66v-.5h-3.16c-1.46 0-2.28.54-2.28 1.7 0 1 .86 1.68 2.22 1.68 2.04 0 3.22-1.18 3.22-2.88zm14.456-6.16c2.82 0 4.9 1.9 4.9 5.22 0 3.12-2.08 5.22-4.9 5.22-1.72 0-2.88-.7-3.5-1.68V101h-1.64V86.8h1.42l.22 1.64c.68-.94 1.78-1.76 3.5-1.76zm-.16 8.98c2.02 0 3.38-1.54 3.38-3.76 0-2.22-1.36-3.76-3.38-3.76-2 0-3.36 1.54-3.36 3.72 0 2.24 1.36 3.8 3.36 3.8zm11.634 1.46c-2.98 0-5.06-2.12-5.06-5.22 0-3.1 2.08-5.22 5.06-5.22 2.98 0 5.06 2.12 5.06 5.22 0 3.1-2.08 5.22-5.06 5.22zm0-1.46c2.02 0 3.38-1.58 3.38-3.76 0-2.18-1.36-3.76-3.38-3.76-2.02 0-3.38 1.58-3.38 3.76 0 2.18 1.36 3.76 3.38 3.76zm6.481-2.02h1.68c.06 1.2 1.12 2.08 2.82 2.08 1.44 0 2.46-.62 2.46-1.56 0-1.28-1.12-1.38-2.64-1.56-2.28-.28-4.1-.74-4.1-2.86 0-1.86 1.7-3.08 4-3.06 2.32.02 4 1.1 4.16 3.22h-1.68c-.12-1.04-1.08-1.82-2.48-1.82-1.42 0-2.38.6-2.38 1.54 0 1.12 1.08 1.26 2.56 1.44 2.32.28 4.18.72 4.18 2.98 0 1.9-1.82 3.08-4.08 3.08-2.64 0-4.46-1.24-4.5-3.48zm11.24-8.56c-.6 0-1.06-.44-1.06-1.06 0-.62.46-1.06 1.06-1.06.6 0 1.06.44 1.06 1.06 0 .62-.46 1.06-1.06 1.06zM97.675 97V86.8h1.64V97h-1.64zm4.647-2.66V88.3h-1.84v-1.5h1.84v-2.86h1.64v2.86h2.64v1.5h-2.64v6.02c0 .86.3 1.18 1.18 1.18h1.62V97h-1.78c-1.96 0-2.66-.86-2.66-2.66zm6.702-9.26c-.6 0-1.06-.44-1.06-1.06 0-.62.46-1.06 1.06-1.06.6 0 1.06.44 1.06 1.06 0 .62-.46 1.06-1.06 1.06zm-.84 11.92V86.8h1.64V97h-1.64zm8.586.12c-2.98 0-5.06-2.12-5.06-5.22 0-3.1 2.08-5.22 5.06-5.22 2.98 0 5.06 2.12 5.06 5.22 0 3.1-2.08 5.22-5.06 5.22zm0-1.46c2.02 0 3.38-1.58 3.38-3.76 0-2.18-1.36-3.76-3.38-3.76-2.02 0-3.38 1.58-3.38 3.76 0 2.18 1.36 3.76 3.38 3.76zm11.941-8.98c2.3 0 4.12 1.26 4.12 4.64V97h-1.64v-5.58c0-2.12-.98-3.24-2.76-3.24-1.92 0-3.08 1.42-3.08 3.72V97h-1.64V86.8h1.42l.22 1.38c.6-.78 1.64-1.5 3.36-1.5zm16.145 10.44c-2.98 0-5.06-2.12-5.06-5.22 0-3.1 2.08-5.22 5.06-5.22 2.98 0 5.06 2.12 5.06 5.22 0 3.1-2.08 5.22-5.06 5.22zm0-1.46c2.02 0 3.38-1.58 3.38-3.76 0-2.18-1.36-3.76-3.38-3.76-2.02 0-3.38 1.58-3.38 3.76 0 2.18 1.36 3.76 3.38 3.76zm11.941-8.98c2.3 0 4.12 1.26 4.12 4.64V97h-1.64v-5.58c0-2.12-.98-3.24-2.76-3.24-1.92 0-3.08 1.42-3.08 3.72V97h-1.64V86.8h1.42l.22 1.38c.6-.78 1.64-1.5 3.36-1.5zm10.725-2.08V83h10.82v1.6h-4.54V97h-1.74V84.6h-4.54zm15.244 12.52c-3.06 0-5.06-2.1-5.06-5.22 0-3.1 1.96-5.22 4.84-5.22s4.76 1.82 4.84 4.84c0 .22-.02.46-.04.7h-7.92v.14c.06 1.94 1.28 3.3 3.22 3.3 1.44 0 2.56-.76 2.9-2.08h1.66c-.4 2.04-2.08 3.54-4.44 3.54zm-3.24-6.26h6.1c-.16-1.76-1.36-2.74-3.06-2.74-1.5 0-2.88 1.08-3.04 2.74zm9.273 2.78h1.68c.06 1.2 1.12 2.08 2.82 2.08 1.44 0 2.46-.62 2.46-1.56 0-1.28-1.12-1.38-2.64-1.56-2.28-.28-4.1-.74-4.1-2.86 0-1.86 1.7-3.08 4-3.06 2.32.02 4 1.1 4.16 3.22h-1.68c-.12-1.04-1.08-1.82-2.48-1.82-1.42 0-2.38.6-2.38 1.54 0 1.12 1.08 1.26 2.56 1.44 2.32.28 4.18.72 4.18 2.98 0 1.9-1.82 3.08-4.08 3.08-2.64 0-4.46-1.24-4.5-3.48zm10.4 3.36V83h1.64v14h-1.64zm12.907-1.5h.52V97h-.9c-1.36 0-1.82-.58-1.84-1.58-.64.92-1.66 1.7-3.42 1.7-2.24 0-3.76-1.12-3.76-2.98 0-2.04 1.42-3.18 4.1-3.18h3v-.7c0-1.32-.94-2.12-2.54-2.12-1.44 0-2.4.68-2.6 1.72h-1.64c.24-2 1.86-3.18 4.32-3.18 2.6 0 4.1 1.3 4.1 3.68v4.46c0 .54.2.68.66.68zm-2.3-2.66v-.5h-3.16c-1.46 0-2.28.54-2.28 1.7 0 1 .86 1.68 2.22 1.68 2.04 0 3.22-1.18 3.22-2.88zm4.821 2.06c.98 0 1.58.94 1.58 2.04 0 1.7-1.06 2.72-2.82 2.76v-.94c1.28-.02 1.68-.92 1.68-1.6 0-.1 0-.18-.02-.26-.16.16-.44.24-.68.24-.6 0-1.06-.36-1.06-1.08 0-.66.48-1.16 1.32-1.16zm10.555 2.1h-1.7V83h1.6l7.52 10.8V83h1.7v14h-1.6l-7.52-10.8V97zm14.395 0l-3.82-10.2h1.76l3.08 8.34 3.06-8.34h1.72l-3.82 10.2h-1.98zm7.864-11.92c-.6 0-1.06-.44-1.06-1.06 0-.62.46-1.06 1.06-1.06.6 0 1.06.44 1.06 1.06 0 .62-.46 1.06-1.06 1.06zM246.6 97V86.8h1.64V97h-1.64zm11.927-8.64V83h1.64v14h-1.42l-.22-1.64c-.68.94-1.78 1.76-3.5 1.76-2.82 0-4.9-1.9-4.9-5.22 0-3.12 2.08-5.22 4.9-5.22 1.72 0 2.88.7 3.5 1.68zm-3.34 7.3c2 0 3.36-1.54 3.36-3.72 0-2.24-1.36-3.8-3.36-3.8-2.02 0-3.38 1.54-3.38 3.76 0 2.22 1.36 3.76 3.38 3.76zm8.054-10.58c-.6 0-1.06-.44-1.06-1.06 0-.62.46-1.06 1.06-1.06.6 0 1.06.44 1.06 1.06 0 .62-.46 1.06-1.06 1.06zm-.84 11.92V86.8h1.64V97h-1.64zm12.907-1.5h.52V97h-.9c-1.36 0-1.82-.58-1.84-1.58-.64.92-1.66 1.7-3.42 1.7-2.24 0-3.76-1.12-3.76-2.98 0-2.04 1.42-3.18 4.1-3.18h3v-.7c0-1.32-.94-2.12-2.54-2.12-1.44 0-2.4.68-2.6 1.72h-1.64c.24-2 1.86-3.18 4.32-3.18 2.6 0 4.1 1.3 4.1 3.68v4.46c0 .54.2.68.66.68zm-2.3-2.66v-.5h-3.16c-1.46 0-2.28.54-2.28 1.7 0 1 .86 1.68 2.22 1.68 2.04 0 3.22-1.18 3.22-2.88zm-227.986 26.7h1.32V121h-1.52c-.86 0-1.6-.16-2.12-.76l-.8-.9c-1.14 1.18-2.44 1.78-3.94 1.78-2.46 0-4.4-1.26-4.4-3.64 0-1.46.82-3.02 3.14-4-1.02-1.24-1.38-2.04-1.38-3.24 0-1.92 1.7-3.36 3.94-3.36 1.9 0 3.3 1.32 3.3 3.06 0 1.54-.84 2.92-3.4 3.92l2.8 3.12 2.36-3.54h1.74l-3.1 4.66.78.88c.4.46.76.56 1.28.56zm-5.88-11.28c-1.28 0-2.12.8-2.12 1.92 0 1 .34 1.6 1.26 2.68 1.8-.72 2.62-1.7 2.62-2.88 0-1-.7-1.72-1.76-1.72zm-1.14 11.4c1.12 0 2.08-.48 2.94-1.4l-3.26-3.64c-.04-.04-.08-.1-.14-.14-1.7.82-2.3 1.58-2.3 2.84 0 1.48 1.14 2.34 2.76 2.34zm22.798-5.9c1.56.36 2.8 1.56 2.8 3.48 0 2.26-1.94 3.88-5.1 3.88-3.16 0-5.1-1.62-5.1-3.88 0-1.9 1.22-3.12 2.8-3.48-1.34-.3-2.4-1.48-2.4-3.16 0-2.2 1.84-3.72 4.7-3.72 2.86 0 4.7 1.52 4.7 3.72 0 1.6-1.04 2.86-2.4 3.16zm-5.28-3.16c0 1.38 1.18 2.3 2.98 2.3s2.98-.92 2.98-2.3c0-1.36-1.18-2.28-2.98-2.28s-2.98.92-2.98 2.28zm2.98 9.08c2 0 3.38-1.06 3.38-2.56 0-1.48-1.38-2.54-3.38-2.54s-3.38 1.06-3.38 2.54c0 1.5 1.4 2.56 3.38 2.56zm7.327-.78c.98 0 1.58.94 1.58 2.04 0 1.7-1.06 2.72-2.82 2.76v-.94c1.28-.02 1.68-.92 1.68-1.6 0-.1 0-.18-.02-.26-.16.16-.44.24-.68.24-.6 0-1.06-.36-1.06-1.08 0-.66.48-1.16 1.32-1.16zm7.638-7.28c2.74 0 4.64 1.92 4.64 4.7 0 3.1-2.28 4.78-4.9 4.78-3.12 0-4.92-2.02-5.06-4.46h1.66c.16 1.62 1.38 2.96 3.4 2.96 1.64 0 3.18-1.1 3.18-3.26 0-1.9-1.22-3.24-3.16-3.24-.86 0-2.58.24-3.18 1.9l-1.62-.04.46-7.96h8.38v1.54h-6.84l-.32 4.42c.86-1.02 2.06-1.34 3.36-1.34zm6.127 2.7v-.64c0-3.98 2.16-6.8 5.32-6.8 3.14 0 5.3 2.82 5.3 6.8v.64c0 4.18-2.16 6.8-5.3 6.8-3.16 0-5.32-2.62-5.32-6.8zm8.92-.06v-.52c0-3.32-1.44-5.32-3.6-5.32-2.18 0-3.62 2-3.62 5.32v.52c0 3.32 1.44 5.32 3.62 5.32 2.16 0 3.6-2 3.6-5.32zm3.424.06v-.64c0-3.98 2.16-6.8 5.32-6.8 3.14 0 5.3 2.82 5.3 6.8v.64c0 4.18-2.16 6.8-5.3 6.8-3.16 0-5.32-2.62-5.32-6.8zm8.92-.06v-.52c0-3.32-1.44-5.32-3.6-5.32-2.18 0-3.62 2-3.62 5.32v.52c0 3.32 1.44 5.32 3.62 5.32 2.16 0 3.6-2 3.6-5.32zm7.044.32v-3.5h1.5v3.5h3.34v1.38h-3.34v3.52h-1.5v-3.52h-3.32v-1.38h3.32zm17.063 6.54c-2.98 0-5.06-2.12-5.06-5.22 0-3.1 2.08-5.22 5.06-5.22 2.98 0 5.06 2.12 5.06 5.22 0 3.1-2.08 5.22-5.06 5.22zm0-1.46c2.02 0 3.38-1.58 3.38-3.76 0-2.18-1.36-3.76-3.38-3.76-2.02 0-3.38 1.58-3.38 3.76 0 2.18 1.36 3.76 3.38 3.76zm7.583-1.32v-6.04h-1.84v-1.5h1.84v-2.86h1.64v2.86h2.64v1.5h-2.64v6.02c0 .86.3 1.18 1.18 1.18h1.62v1.5h-1.78c-1.96 0-2.66-.86-2.66-2.66zm10.861-7.66c2.28 0 4.14 1.26 4.14 4.64V121h-1.64v-5.58c0-2.12-1.02-3.24-2.78-3.24-1.9 0-3.08 1.42-3.08 3.72v5.1h-1.64v-14h1.64v5.48c.6-.96 1.64-1.8 3.36-1.8zm10.813 10.44c-3.06 0-5.06-2.1-5.06-5.22 0-3.1 1.96-5.22 4.84-5.22s4.76 1.82 4.84 4.84c0 .22-.02.46-.04.7h-7.92v.14c.06 1.94 1.28 3.3 3.22 3.3 1.44 0 2.56-.76 2.9-2.08h1.66c-.4 2.04-2.08 3.54-4.44 3.54zm-3.24-6.26h6.1c-.16-1.76-1.36-2.74-3.06-2.74-1.5 0-2.88 1.08-3.04 2.74zm14.452-4.06h.46v1.6h-.82c-2.14 0-2.72 1.78-2.72 3.4v5.2h-1.64v-10.2h1.42l.22 1.54c.48-.78 1.26-1.54 3.08-1.54zm18.496-.12c2.12 0 3.86 1.22 3.86 4.44V121h-1.64v-5.78c0-2-.88-3.04-2.42-3.04-1.7 0-2.74 1.28-2.74 3.36V121h-1.64v-5.78c0-2-.9-3.04-2.46-3.04-1.68 0-2.7 1.4-2.7 3.44V121h-1.64v-10.2h1.42l.22 1.4c.54-.74 1.4-1.52 2.98-1.52 1.42 0 2.64.64 3.22 1.94.62-1.1 1.72-1.94 3.54-1.94zm14.983 8.82h.52v1.5h-.9c-1.36 0-1.82-.58-1.84-1.58-.64.92-1.66 1.7-3.42 1.7-2.24 0-3.76-1.12-3.76-2.98 0-2.04 1.42-3.18 4.1-3.18h3v-.7c0-1.32-.94-2.12-2.54-2.12-1.44 0-2.4.68-2.6 1.72h-1.64c.24-2 1.86-3.18 4.32-3.18 2.6 0 4.1 1.3 4.1 3.68v4.46c0 .54.2.68.66.68zm-2.3-2.66v-.5h-3.16c-1.46 0-2.28.54-2.28 1.7 0 1 .86 1.68 2.22 1.68 2.04 0 3.22-1.18 3.22-2.88zm8.801-6.04h.46v1.6h-.82c-2.14 0-2.72 1.78-2.72 3.4v5.2h-1.64v-10.2h1.42l.22 1.54c.48-.78 1.26-1.54 3.08-1.54zm1.882 10.2v-14h1.64v9.22l5.12-5.42h2.02l-3.98 4.22 4.26 5.98h-1.98l-3.38-4.8-2.06 2.12V121h-1.64zm14.329.12c-3.06 0-5.06-2.1-5.06-5.22 0-3.1 1.96-5.22 4.84-5.22s4.76 1.82 4.84 4.84c0 .22-.02.46-.04.7h-7.92v.14c.06 1.94 1.28 3.3 3.22 3.3 1.44 0 2.56-.76 2.9-2.08h1.66c-.4 2.04-2.08 3.54-4.44 3.54zm-3.24-6.26h6.1c-.16-1.76-1.36-2.74-3.06-2.74-1.5 0-2.88 1.08-3.04 2.74zm10.374 3.48v-6.04h-1.84v-1.5h1.84v-2.86h1.64v2.86h2.64v1.5h-2.64v6.02c0 .86.3 1.18 1.18 1.18h1.62v1.5h-1.78c-1.96 0-2.66-.86-2.66-2.66zm5.441-.7h1.68c.06 1.2 1.12 2.08 2.82 2.08 1.44 0 2.46-.62 2.46-1.56 0-1.28-1.12-1.38-2.64-1.56-2.28-.28-4.1-.74-4.1-2.86 0-1.86 1.7-3.08 4-3.06 2.32.02 4 1.1 4.16 3.22h-1.68c-.12-1.04-1.08-1.82-2.48-1.82-1.42 0-2.38.6-2.38 1.54 0 1.12 1.08 1.26 2.56 1.44 2.32.28 4.18.72 4.18 2.98 0 1.9-1.82 3.08-4.08 3.08-2.64 0-4.46-1.24-4.5-3.48z" fill="#fff"/><rect x="29" y="142" width="218" height="38" rx="19" fill="url(#paint0_linear_3524_657)"/><path d="M49.8 162.42h1.8c.14 1.88 1.6 3.12 3.74 3.12 1.88 0 3.22-.86 3.22-2.38 0-1.74-1.72-2.1-3.84-2.46-2.26-.38-4.58-1.12-4.58-3.84 0-2.38 1.94-3.98 4.78-3.98 3.12 0 5.04 1.74 5.2 4.26h-1.8c-.2-1.62-1.5-2.68-3.4-2.68-1.82 0-3.04.8-3.04 2.3 0 1.68 1.7 2.02 3.8 2.38 2.28.38 4.62 1.14 4.62 3.86 0 2.42-2.04 4.12-4.98 4.12-3.42 0-5.42-1.94-5.52-4.7zm13.228 1.92v-6.04h-1.84v-1.5h1.84v-2.86h1.64v2.86h2.64v1.5h-2.64v6.02c0 .86.3 1.18 1.18 1.18h1.62v1.5h-1.78c-1.96 0-2.66-.86-2.66-2.66zm14.725 1.16h.52v1.5h-.9c-1.36 0-1.82-.58-1.84-1.58-.64.92-1.66 1.7-3.42 1.7-2.24 0-3.76-1.12-3.76-2.98 0-2.04 1.42-3.18 4.1-3.18h3v-.7c0-1.32-.94-2.12-2.54-2.12-1.44 0-2.4.68-2.6 1.72h-1.64c.24-2 1.86-3.18 4.32-3.18 2.6 0 4.1 1.3 4.1 3.68v4.46c0 .54.2.68.66.68zm-2.3-2.66v-.5h-3.16c-1.46 0-2.28.54-2.28 1.7 0 1 .86 1.68 2.22 1.68 2.04 0 3.22-1.18 3.22-2.88zm8.801-6.04h.46v1.6h-.82c-2.14 0-2.72 1.78-2.72 3.4v5.2h-1.64v-10.2h1.42l.22 1.54c.48-.78 1.26-1.54 3.08-1.54zm2.974 7.54v-6.04h-1.84v-1.5h1.84v-2.86h1.64v2.86h2.64v1.5h-2.64v6.02c0 .86.3 1.18 1.18 1.18h1.62v1.5h-1.78c-1.96 0-2.66-.86-2.66-2.66zm10.675-.7h1.68c.06 1.2 1.12 2.08 2.82 2.08 1.44 0 2.46-.62 2.46-1.56 0-1.28-1.12-1.38-2.64-1.56-2.28-.28-4.1-.74-4.1-2.86 0-1.86 1.7-3.08 4-3.06 2.32.02 4 1.1 4.16 3.22h-1.68c-.12-1.04-1.08-1.82-2.48-1.82-1.42 0-2.38.6-2.38 1.54 0 1.12 1.08 1.26 2.56 1.44 2.32.28 4.18.72 4.18 2.98 0 1.9-1.82 3.08-4.08 3.08-2.64 0-4.46-1.24-4.5-3.48zm15.541-6.96c2.82 0 4.9 1.9 4.9 5.22 0 3.12-2.08 5.22-4.9 5.22-1.72 0-2.88-.7-3.5-1.68V171h-1.64v-14.2h1.42l.22 1.64c.68-.94 1.78-1.76 3.5-1.76zm-.16 8.98c2.02 0 3.38-1.54 3.38-3.76 0-2.22-1.36-3.76-3.38-3.76-2 0-3.36 1.54-3.36 3.72 0 2.24 1.36 3.8 3.36 3.8zm11.654-8.86h.46v1.6h-.82c-2.14 0-2.72 1.78-2.72 3.4v5.2h-1.64v-10.2h1.42l.22 1.54c.48-.78 1.26-1.54 3.08-1.54zm5.995 10.32c-3.06 0-5.06-2.1-5.06-5.22 0-3.1 1.96-5.22 4.84-5.22s4.76 1.82 4.84 4.84c0 .22-.02.46-.04.7h-7.92v.14c.06 1.94 1.28 3.3 3.22 3.3 1.44 0 2.56-.76 2.9-2.08h1.66c-.4 2.04-2.08 3.54-4.44 3.54zm-3.24-6.26h6.1c-.16-1.76-1.36-2.74-3.06-2.74-1.5 0-2.88 1.08-3.04 2.74zm18.752 4.64h.52v1.5h-.9c-1.36 0-1.82-.58-1.84-1.58-.64.92-1.66 1.7-3.42 1.7-2.24 0-3.76-1.12-3.76-2.98 0-2.04 1.42-3.18 4.1-3.18h3v-.7c0-1.32-.94-2.12-2.54-2.12-1.44 0-2.4.68-2.6 1.72h-1.64c.24-2 1.86-3.18 4.32-3.18 2.6 0 4.1 1.3 4.1 3.68v4.46c0 .54.2.68.66.68zm-2.3-2.66v-.5h-3.16c-1.46 0-2.28.54-2.28 1.7 0 1 .86 1.68 2.22 1.68 2.04 0 3.22-1.18 3.22-2.88zm12.003-4.48V153h1.64v14h-1.42l-.22-1.64c-.68.94-1.78 1.76-3.5 1.76-2.82 0-4.9-1.9-4.9-5.22 0-3.12 2.08-5.22 4.9-5.22 1.72 0 2.88.7 3.5 1.68zm-3.34 7.3c2 0 3.36-1.54 3.36-3.72 0-2.24-1.36-3.8-3.36-3.8-2.02 0-3.38 1.54-3.38 3.76 0 2.22 1.36 3.76 3.38 3.76zm17.589-8.98c2.82 0 4.9 1.9 4.9 5.22 0 3.12-2.08 5.22-4.9 5.22-1.72 0-2.88-.7-3.5-1.68l-.22 1.56h-1.42v-14h1.64v5.44c.68-.94 1.78-1.76 3.5-1.76zm-.16 8.98c2.02 0 3.38-1.54 3.38-3.76 0-2.22-1.36-3.76-3.38-3.76-2 0-3.36 1.54-3.36 3.72 0 2.24 1.36 3.8 3.36 3.8zm11.634 1.46c-3.06 0-5.06-2.1-5.06-5.22 0-3.1 1.96-5.22 4.84-5.22s4.76 1.82 4.84 4.84c0 .22-.02.46-.04.7h-7.92v.14c.06 1.94 1.28 3.3 3.22 3.3 1.44 0 2.56-.76 2.9-2.08h1.66c-.4 2.04-2.08 3.54-4.44 3.54zm-3.24-6.26h6.1c-.16-1.76-1.36-2.74-3.06-2.74-1.5 0-2.88 1.08-3.04 2.74zm18.974 4.64h1.78v1.5h-1.88c-1.96 0-2.66-.86-2.66-2.66v-6.04h-4.2v6.02c0 .86.3 1.18 1.12 1.18h1.46v1.5h-1.56c-1.96 0-2.66-.86-2.66-2.66v-6.04h-1.84v-1.5h1.84v-2.86h1.64v2.86h4.2v-2.86h1.64v2.86h2.58v1.5h-2.58v6.02c0 .86.3 1.18 1.12 1.18zm4.039-10.42c-.6 0-1.06-.44-1.06-1.06 0-.62.46-1.06 1.06-1.06.6 0 1.06.44 1.06 1.06 0 .62-.46 1.06-1.06 1.06zm-.84 11.92v-10.2h1.64V167h-1.64zm8.886-10.32c2.3 0 4.12 1.26 4.12 4.64V167h-1.64v-5.58c0-2.12-.98-3.24-2.76-3.24-1.92 0-3.08 1.42-3.08 3.72v5.1h-1.64v-10.2h1.42l.22 1.38c.6-.78 1.64-1.5 3.36-1.5zm14.251 1.88l.22-1.76h1.42v9.7c0 2.94-1.56 4.62-5.06 4.62-2.6 0-4.42-1.22-4.68-3.46h1.68c.28 1.28 1.42 2 3.12 2 2.14 0 3.3-1 3.3-3.22v-1.2c-.68 1.16-1.78 1.88-3.5 1.88-2.82 0-4.9-1.9-4.9-5.22 0-3.12 2.08-5.22 4.9-5.22 1.72 0 2.86.74 3.5 1.88zm-3.34 7.1c2 0 3.36-1.54 3.36-3.72 0-2.24-1.36-3.8-3.36-3.8-2.02 0-3.38 1.54-3.38 3.76 0 2.22 1.36 3.76 3.38 3.76z" fill="#fff"/><defs><linearGradient id="paint0_linear_3524_657" x1="29" y1="142" x2="43.261" y2="218.153" gradientUnits="userSpaceOnUse"><stop stop-color="#FF4343"/><stop offset="1" stop-color="#E62B50"/></linearGradient></defs></svg>