<svg width="300" height="54" viewBox="0 0 300 54" fill="none" xmlns="http://www.w3.org/2000/svg"><path fill="#fff" d="M0 0h300v54H0z"/><path d="M12.99 12.96c-.41-.59-.64-1.42-.64-2.39 0-2.34 1.12-3.63 2.88-3.63 1.31 0 2.34.75 2.5 2.03h-1.42c-.13-.56-.57-.87-1.19-.87-.9 0-1.41.72-1.41 2.01v.17c.03-.05.05-.09.09-.15.32-.5.93-.82 1.65-.82 1.41 0 2.37.96 2.37 2.37 0 1.43-1.05 2.38-2.61 2.38-.98 0-1.73-.4-2.22-1.1zm3.39-1.28c0-.74-.45-1.25-1.16-1.25s-1.2.5-1.2 1.25.47 1.25 1.18 1.25 1.18-.51 1.18-1.25zm4.733 2.38c-1.44 0-2.37-.74-2.53-2.03h1.42c.12.55.55.87 1.19.87.93 0 1.43-.75 1.43-2.01 0-.05 0-.11-.01-.18l-.15.22c-.34.47-.9.73-1.56.73-1.42 0-2.38-.91-2.38-2.34 0-1.39 1.05-2.38 2.61-2.38.94 0 1.67.37 2.16 1.02.45.6.71 1.45.71 2.46 0 2.32-1.03 3.64-2.89 3.64zm.01-3.51c.71 0 1.21-.5 1.21-1.25 0-.74-.48-1.23-1.19-1.23s-1.18.5-1.18 1.23c0 .74.45 1.25 1.16 1.25zm3.703-1.88c0-1 .78-1.73 1.84-1.73 1.05 0 1.83.73 1.83 1.73s-.78 1.73-1.83 1.73c-1.06 0-1.84-.73-1.84-1.73zm2.52 5.33h-1.39l4.8-7h1.39l-4.8 7zm.01-5.33c0-.4-.3-.71-.69-.71-.4 0-.7.31-.7.71 0 .41.3.71.7.71.39 0 .69-.3.69-.71zm2.25 3.66c0-1 .78-1.73 1.83-1.73 1.06 0 1.83.73 1.83 1.73s-.77 1.73-1.83 1.73c-1.05 0-1.83-.73-1.83-1.73zm2.53 0c0-.4-.3-.71-.7-.71a.69.69 0 00-.69.71c0 .41.3.71.69.71.4 0 .7-.3.7-.71zm7.2 1.73c-1.64 0-2.71-1.05-2.71-2.63 0-1.58 1.07-2.63 2.71-2.63s2.71 1.05 2.71 2.63c0 1.59-1.07 2.63-2.71 2.63zm0-1.15c.79 0 1.28-.61 1.28-1.48s-.49-1.48-1.28-1.48-1.27.61-1.27 1.48.48 1.48 1.27 1.48zm3.086-2.86V8.86h.85v-.38c0-.95.51-1.48 1.55-1.48h1.15v1.2h-.9c-.28 0-.42.13-.42.42v.24h1.32v1.19h-1.29V14h-1.41v-3.95h-.85zm9.654-1.19h.24v1.28h-.56c-.84 0-1.16.56-1.16 1.34V14h-1.41V8.86h1.28l.13.77c.28-.46.68-.77 1.48-.77zm3.344 5.2c-1.71 0-2.74-1.03-2.74-2.62 0-1.6 1.05-2.64 2.64-2.64 1.54 0 2.58.96 2.6 2.47 0 .15-.01.32-.04.48h-3.73v.07c.03.73.5 1.17 1.21 1.17.57 0 .97-.25 1.09-.73h1.39c-.16 1-1.05 1.8-2.42 1.8zm-1.24-3.23h2.32c-.1-.63-.53-.98-1.17-.98-.61 0-1.07.37-1.15.98zm4.96 1.7v-2.48h-.85V8.86h.85V7.42h1.41v1.44h1.18v1.19h-1.18v2.25c0 .36.14.51.51.51h.7V14h-1.15c-.98 0-1.47-.49-1.47-1.47zm8.244.28h.16V14h-.72c-.73 0-.96-.35-.95-.84-.36.57-.88.9-1.68.9-1.11 0-1.91-.53-1.91-1.51 0-1.09.82-1.71 2.36-1.71h1.02v-.25c0-.46-.33-.76-.92-.76-.55 0-.92.25-.98.63h-1.36c.1-1 1.02-1.66 2.38-1.66 1.44 0 2.27.64 2.27 1.87v1.82c0 .27.11.32.33.32zm-1.72-.93v-.1h-1.03c-.59 0-.93.24-.93.67 0 .36.29.59.76.59.74 0 1.19-.46 1.2-1.16zM68.9 8.31c-.46 0-.82-.34-.82-.79 0-.46.36-.8.82-.8.46 0 .82.34.82.8 0 .45-.36.79-.82.79zM68.19 14V8.86h1.42V14h-1.42zm2.492 0V7h1.41v7h-1.41zm5.783-5.69c-.46 0-.82-.34-.82-.79 0-.46.36-.8.82-.8.46 0 .82.34.82.8 0 .45-.36.79-.82.79zm-.71 5.69V8.86h1.42V14h-1.42zm5.443-5.2c1.11 0 2.06.59 2.06 2.35V14h-1.41v-2.71c0-.87-.33-1.33-1.04-1.33-.73 0-1.15.52-1.15 1.41V14h-1.41V8.86h1.23l.13.64c.33-.4.8-.7 1.59-.7zm4.164 5.2l-1.85-5.14h1.51l1.24 3.7 1.22-3.7h1.48L87.112 14h-1.75zm6.466.06c-1.71 0-2.74-1.03-2.74-2.62 0-1.6 1.05-2.64 2.64-2.64 1.54 0 2.58.96 2.6 2.47 0 .15-.01.32-.04.48h-3.73v.07c.03.73.5 1.17 1.21 1.17.57 0 .97-.25 1.09-.73h1.39c-.16 1-1.05 1.8-2.42 1.8zm-1.24-3.23h2.32c-.1-.63-.53-.98-1.17-.98-.61 0-1.07.37-1.15.98zm4.331 1.46h1.34c.05.45.44.76 1.13.76.59 0 .95-.19.95-.55 0-.42-.35-.45-1.18-.56-1.2-.14-2.13-.41-2.13-1.47 0-1.02.89-1.69 2.21-1.68 1.38 0 2.33.61 2.4 1.66h-1.35c-.04-.41-.43-.66-1-.66-.55 0-.91.2-.91.53 0 .39.44.43 1.18.52 1.18.12 2.16.39 2.16 1.55 0 1.02-.96 1.67-2.34 1.67-1.43 0-2.4-.67-2.46-1.77zm6.013.24v-2.48h-.85V8.86h.85V7.42h1.41v1.44h1.18v1.19h-1.18v2.25c0 .36.14.51.51.51h.7V14h-1.15c-.98 0-1.47-.49-1.47-1.47zm5.804 1.53c-1.64 0-2.71-1.05-2.71-2.63 0-1.58 1.07-2.63 2.71-2.63s2.71 1.05 2.71 2.63c0 1.59-1.07 2.63-2.71 2.63zm0-1.15c.79 0 1.28-.61 1.28-1.48s-.49-1.48-1.28-1.48-1.27.61-1.27 1.48.48 1.48 1.27 1.48zm6.476-4.05h.24v1.28h-.56c-.84 0-1.16.56-1.16 1.34V14h-1.41V8.86h1.28l.13.77c.28-.46.68-.77 1.48-.77zm8.451 3.95h.16V14h-.72c-.73 0-.96-.35-.95-.84-.36.57-.88.9-1.68.9-1.11 0-1.91-.53-1.91-1.51 0-1.09.82-1.71 2.36-1.71h1.02v-.25c0-.46-.33-.76-.92-.76-.55 0-.92.25-.98.63h-1.36c.1-1 1.02-1.66 2.38-1.66 1.44 0 2.27.64 2.27 1.87v1.82c0 .27.11.32.33.32zm-1.72-.93v-.1h-1.03c-.59 0-.93.24-.93.67 0 .36.29.59.76.59.74 0 1.19-.46 1.2-1.16zm4.926 2.18c-1.63 0-2.62-1.01-2.62-2.63 0-1.59 1.04-2.63 2.67-2.63 1.4 0 2.27.76 2.47 1.98h-1.47c-.12-.51-.47-.83-1.02-.83-.74 0-1.21.61-1.21 1.48 0 .88.47 1.48 1.21 1.48.55 0 .92-.33 1.02-.85h1.48c-.2 1.23-1.13 2-2.53 2zm5.793 0c-1.63 0-2.62-1.01-2.62-2.63 0-1.59 1.04-2.63 2.67-2.63 1.4 0 2.27.76 2.47 1.98h-1.47c-.12-.51-.47-.83-1.02-.83-.74 0-1.21.61-1.21 1.48 0 .88.47 1.48 1.21 1.48.55 0 .92-.33 1.02-.85h1.48c-.2 1.23-1.13 2-2.53 2zm5.883 0c-1.64 0-2.71-1.05-2.71-2.63 0-1.58 1.07-2.63 2.71-2.63s2.71 1.05 2.71 2.63c0 1.59-1.07 2.63-2.71 2.63zm0-1.15c.79 0 1.28-.61 1.28-1.48s-.49-1.48-1.28-1.48-1.27.61-1.27 1.48.48 1.48 1.27 1.48zm7.016-1.48V8.86h1.41V14h-1.25l-.13-.62c-.33.4-.78.68-1.51.68-1.06 0-2.04-.53-2.04-2.35V8.86h1.41v2.66c0 .92.3 1.37 1 1.37s1.11-.51 1.11-1.46zm5.441-2.63c1.11 0 2.06.59 2.06 2.35V14h-1.41v-2.71c0-.87-.33-1.33-1.04-1.33-.73 0-1.15.52-1.15 1.41V14h-1.41V8.86h1.23l.13.64c.33-.4.8-.7 1.59-.7zm3.418 3.73v-2.48h-.85V8.86h.85V7.42h1.41v1.44h1.18v1.19h-1.18v2.25c0 .36.14.51.51.51h.7V14h-1.15c-.98 0-1.47-.49-1.47-1.47zm3.133-.24h1.34c.05.45.44.76 1.13.76.59 0 .95-.19.95-.55 0-.42-.35-.45-1.18-.56-1.2-.14-2.13-.41-2.13-1.47 0-1.02.89-1.69 2.21-1.68 1.38 0 2.33.61 2.4 1.66h-1.35c-.04-.41-.43-.66-1-.66-.55 0-.91.2-.91.53 0 .39.44.43 1.18.52 1.18.12 2.16.39 2.16 1.55 0 1.02-.96 1.67-2.34 1.67-1.43 0-2.4-.67-2.46-1.77zm8.223 1.71V7h1.41v7h-1.41zm5.003.06c-1.64 0-2.71-1.05-2.71-2.63 0-1.58 1.07-2.63 2.71-2.63s2.71 1.05 2.71 2.63c0 1.59-1.07 2.63-2.71 2.63zm0-1.15c.79 0 1.28-.61 1.28-1.48s-.49-1.48-1.28-1.48-1.27.61-1.27 1.48.48 1.48 1.27 1.48zm3.307-.62h1.34c.05.45.44.76 1.13.76.59 0 .95-.19.95-.55 0-.42-.35-.45-1.18-.56-1.2-.14-2.13-.41-2.13-1.47 0-1.02.89-1.69 2.21-1.68 1.38 0 2.33.61 2.4 1.66h-1.35c-.04-.41-.43-.66-1-.66-.55 0-.91.2-.91.53 0 .39.44.43 1.18.52 1.18.12 2.16.39 2.16 1.55 0 1.02-.96 1.67-2.34 1.67-1.43 0-2.4-.67-2.46-1.77zm8.182 1.77c-1.71 0-2.74-1.03-2.74-2.62 0-1.6 1.05-2.64 2.64-2.64 1.54 0 2.58.96 2.6 2.47 0 .15-.01.32-.04.48h-3.73v.07c.03.73.5 1.17 1.21 1.17.57 0 .97-.25 1.09-.73h1.39c-.16 1-1.05 1.8-2.42 1.8zm-1.24-3.23h2.32c-.1-.63-.53-.98-1.17-.98-.61 0-1.07.37-1.15.98zm13.341-2.03c1.06 0 1.9.6 1.9 2.25V14h-1.41v-2.87c0-.77-.28-1.17-.89-1.17s-1.02.45-1.02 1.23V14h-1.41v-2.87c0-.77-.28-1.17-.9-1.17-.61 0-1.01.47-1.01 1.24V14h-1.41V8.86h1.23l.13.64c.31-.4.76-.69 1.51-.7.63-.01 1.22.22 1.54.87.36-.55.96-.87 1.74-.87zm5.376 5.26c-1.64 0-2.71-1.05-2.71-2.63 0-1.58 1.07-2.63 2.71-2.63s2.71 1.05 2.71 2.63c0 1.59-1.07 2.63-2.71 2.63zm0-1.15c.79 0 1.28-.61 1.28-1.48s-.49-1.48-1.28-1.48-1.27.61-1.27 1.48.48 1.48 1.27 1.48zm6.536-4.11c1.11 0 2.06.59 2.06 2.35V14h-1.41v-2.71c0-.87-.33-1.33-1.04-1.33-.73 0-1.15.52-1.15 1.41V14h-1.41V8.86h1.23l.13.64c.33-.4.8-.7 1.59-.7zm5.569 5.26c-1.71 0-2.74-1.03-2.74-2.62 0-1.6 1.05-2.64 2.64-2.64 1.54 0 2.58.96 2.6 2.47 0 .15-.01.32-.04.48h-3.73v.07c.03.73.5 1.17 1.21 1.17.57 0 .97-.25 1.09-.73h1.39c-.16 1-1.05 1.8-2.42 1.8zm-1.24-3.23h2.32c-.1-.63-.53-.98-1.17-.98-.61 0-1.07.37-1.15.98zm5.847 3.2l-1.98-5.17h1.5l1.25 3.66 1.22-3.66h1.51l-2.28 5.87c-.32.85-.58 1.27-1.38 1.27h-1.37v-1.19h.78c.36 0 .48-.09.62-.44l.13-.34zM13.68 25L12 19.86h1.49l1.03 3.62.97-3.62h1.27l.94 3.63 1.05-3.63h1.44L18.5 25H17l-.9-3.1-.92 3.1h-1.5zm10.033-5.2c1.14 0 2.08.61 2.08 2.35V25h-1.41v-2.73c0-.84-.34-1.31-1.04-1.31-.72 0-1.15.52-1.15 1.4V25h-1.41v-7h1.41v2.49c.33-.4.79-.69 1.52-.69zm5.59 5.26c-1.71 0-2.74-1.03-2.74-2.62 0-1.6 1.05-2.64 2.64-2.64 1.54 0 2.58.96 2.6 2.47 0 .15-.01.32-.04.48h-3.73v.07c.03.73.5 1.17 1.21 1.17.57 0 .97-.25 1.09-.73h1.39c-.16 1-1.05 1.8-2.42 1.8zm-1.24-3.23h2.32c-.1-.63-.53-.98-1.17-.98-.61 0-1.07.37-1.15.98zm7.56-2.03c1.11 0 2.06.59 2.06 2.35V25h-1.41v-2.71c0-.87-.33-1.33-1.04-1.33-.73 0-1.15.52-1.15 1.41V25h-1.41v-5.14h1.23l.13.64c.33-.4.8-.7 1.59-.7zm5.999 3.73v-2.48h-.85v-1.19h.85v-1.44h1.41v1.44h1.18v1.19h-1.18v2.25c0 .36.14.51.51.51h.7V25h-1.15c-.98 0-1.47-.49-1.47-1.47zm6.262-3.67h.24v1.28h-.56c-.84 0-1.16.56-1.16 1.34V25h-1.41v-5.14h1.28l.13.77c.28-.46.68-.77 1.48-.77zm5.743 3.95h.16V25h-.72c-.73 0-.96-.35-.95-.84-.36.57-.88.9-1.68.9-1.11 0-1.91-.53-1.91-1.51 0-1.09.82-1.71 2.36-1.71h1.02v-.25c0-.46-.33-.76-.92-.76-.55 0-.92.25-.98.63h-1.36c.1-1 1.02-1.66 2.38-1.66 1.44 0 2.27.64 2.27 1.87v1.82c0 .27.11.32.33.32zm-1.72-.93v-.1h-1.03c-.59 0-.93.24-.93.67 0 .36.29.59.76.59.74 0 1.19-.46 1.2-1.16zm6.236-2.38V18h1.41v7h-1.23l-.14-.71c-.34.44-.84.77-1.58.77-1.38 0-2.39-1.01-2.39-2.64 0-1.59 1.01-2.62 2.38-2.62.71 0 1.22.28 1.55.7zm-1.23 3.41c.77 0 1.25-.6 1.25-1.47 0-.88-.48-1.49-1.25-1.49s-1.26.6-1.26 1.48.49 1.48 1.26 1.48zm4.433-4.6c-.46 0-.82-.34-.82-.79 0-.46.36-.8.82-.8.46 0 .82.34.82.8 0 .45-.36.79-.82.79zm-.71 5.69v-5.14h1.42V25h-1.42zm5.443-5.2c1.11 0 2.06.59 2.06 2.35V25h-1.41v-2.71c0-.87-.33-1.33-1.04-1.33-.73 0-1.15.52-1.15 1.41V25h-1.41v-5.14h1.23l.13.64c.33-.4.8-.7 1.59-.7zm6.828.77l.12-.71h1.24v4.99c0 1.27-.78 2.21-2.75 2.21-1.43 0-2.41-.65-2.48-1.84h1.42c.13.49.52.77 1.17.77.79 0 1.26-.39 1.26-1.19v-.54c-.34.43-.85.71-1.57.71-1.38.01-2.39-1-2.39-2.59 0-1.57 1.01-2.59 2.38-2.59.74 0 1.26.33 1.6.78zm-1.28 3.27c.77 0 1.25-.59 1.25-1.44 0-.86-.48-1.47-1.25-1.47s-1.26.6-1.26 1.46.49 1.45 1.26 1.45zm9.474 1.22c-2.08 0-3.34-1.41-3.34-3.56 0-2.15 1.31-3.56 3.43-3.56 1.66 0 2.83 1.04 3.01 2.56h-1.52c-.18-.78-.74-1.29-1.57-1.29-1.14 0-1.82.94-1.82 2.29 0 1.34.67 2.29 1.8 2.29.85 0 1.41-.51 1.59-1.29h1.51c-.17 1.52-1.38 2.56-3.09 2.56zm4.042-.06v-7h4.62v1.29h-3.12v1.64h2.56v1.23h-2.56V25h-1.5zm8.089 0h-2.55v-7h2.55c2.18 0 3.63 1.43 3.63 3.49 0 2.05-1.45 3.51-3.63 3.51zm-1.05-5.75v4.5h1.05c1.34 0 2.09-.93 2.09-2.26 0-1.34-.75-2.24-2.09-2.24h-1.05zm5.34 4.04h1.34c.05.45.44.76 1.13.76.59 0 .95-.19.95-.55 0-.42-.35-.45-1.18-.56-1.2-.14-2.13-.41-2.13-1.47 0-1.02.89-1.69 2.21-1.68 1.38 0 2.33.61 2.4 1.66h-1.35c-.04-.41-.43-.66-1-.66-.55 0-.91.2-.91.53 0 .39.44.43 1.18.52 1.18.12 2.16.39 2.16 1.55 0 1.02-.96 1.67-2.34 1.67-1.43 0-2.4-.67-2.46-1.77zm9.413 1.71l-1.68-5.14h1.49l1.03 3.62.97-3.62h1.27l.94 3.63 1.05-3.63h1.44l-1.69 5.14h-1.5l-.9-3.1-.92 3.1h-1.5zm7.813-5.69c-.46 0-.82-.34-.82-.79 0-.46.36-.8.82-.8.46 0 .82.34.82.8 0 .45-.36.79-.82.79zm-.71 5.69v-5.14h1.42V25h-1.42zm2.863-1.47v-2.48h-.85v-1.19h.85v-1.44h1.41v1.44h1.18v1.19h-1.18v2.25c0 .36.14.51.51.51h.7V25h-1.15c-.98 0-1.47-.49-1.47-1.47zm6.303-3.73c1.14 0 2.08.61 2.08 2.35V25h-1.41v-2.73c0-.84-.34-1.31-1.04-1.31-.72 0-1.15.52-1.15 1.4V25h-1.41v-7h1.41v2.49c.33-.4.79-.69 1.52-.69zm6.019 3.73v-2.48h-.85v-1.19h.85v-1.44h1.41v1.44h1.18v1.19h-1.18v2.25c0 .36.14.51.51.51h.7V25h-1.15c-.98 0-1.47-.49-1.47-1.47zm6.302-3.73c1.14 0 2.08.61 2.08 2.35V25h-1.41v-2.73c0-.84-.34-1.31-1.04-1.31-.72 0-1.15.52-1.15 1.4V25h-1.41v-7h1.41v2.49c.33-.4.79-.69 1.52-.69zm3.779-.49c-.46 0-.82-.34-.82-.79 0-.46.36-.8.82-.8.46 0 .82.34.82.8 0 .45-.36.79-.82.79zm-.71 5.69v-5.14h1.42V25h-1.42zm2.252-1.71h1.34c.05.45.44.76 1.13.76.59 0 .95-.19.95-.55 0-.42-.35-.45-1.18-.56-1.2-.14-2.13-.41-2.13-1.47 0-1.02.89-1.69 2.21-1.68 1.38 0 2.33.61 2.4 1.66h-1.35c-.04-.41-.43-.66-1-.66-.55 0-.91.2-.91.53 0 .39.44.43 1.18.52 1.18.12 2.16.39 2.16 1.55 0 1.02-.96 1.67-2.34 1.67-1.43 0-2.4-.67-2.46-1.77zm11.173-3.49c1.39-.01 2.39 1.02 2.39 2.64 0 1.6-1 2.62-2.38 2.62-.71 0-1.22-.29-1.55-.71V27h-1.41v-7.14h1.23l.14.71c.33-.44.85-.77 1.58-.77zm-.31 4.11c.77 0 1.27-.61 1.27-1.49 0-.87-.5-1.47-1.27-1.47s-1.25.6-1.25 1.47c0 .88.48 1.49 1.25 1.49zm6.473-4.05h.24v1.28h-.56c-.84 0-1.16.56-1.16 1.34V25h-1.41v-5.14h1.28l.13.77c.28-.46.68-.77 1.48-.77zm3.314 5.2c-1.64 0-2.71-1.05-2.71-2.63 0-1.58 1.07-2.63 2.71-2.63s2.71 1.05 2.71 2.63c0 1.59-1.07 2.63-2.71 2.63zm0-1.15c.79 0 1.28-.61 1.28-1.48s-.49-1.48-1.28-1.48-1.27.61-1.27 1.48.48 1.48 1.27 1.48zm4.692 1.09l-1.85-5.14h1.51l1.24 3.7 1.22-3.7h1.48l-1.85 5.14h-1.75zm4.88-5.69c-.46 0-.82-.34-.82-.79 0-.46.36-.8.82-.8.46 0 .82.34.82.8 0 .45-.36.79-.82.79zm-.71 5.69v-5.14h1.42V25h-1.42zm6.223-4.5V18h1.41v7h-1.23l-.14-.71c-.34.44-.84.77-1.58.77-1.38 0-2.39-1.01-2.39-2.64 0-1.59 1.01-2.62 2.38-2.62.71 0 1.22.28 1.55.7zm-1.23 3.41c.77 0 1.25-.6 1.25-1.47 0-.88-.48-1.49-1.25-1.49s-1.26.6-1.26 1.48.49 1.48 1.26 1.48zm6.263 1.15c-1.71 0-2.74-1.03-2.74-2.62 0-1.6 1.05-2.64 2.64-2.64 1.54 0 2.58.96 2.6 2.47 0 .15-.01.32-.04.48h-3.73v.07c.03.73.5 1.17 1.21 1.17.57 0 .97-.25 1.09-.73h1.39c-.16 1-1.05 1.8-2.42 1.8zm-1.24-3.23h2.32c-.1-.63-.53-.98-1.17-.98-.61 0-1.07.37-1.15.98zm7.5-1.97h.24v1.28h-.56c-.84 0-1.16.56-1.16 1.34V25h-1.41v-5.14h1.28l.13.77c.28-.46.68-.77 1.48-.77zm.294 4.37c0-.49.36-.84.85-.84.48 0 .85.35.85.84 0 .48-.37.83-.85.83-.49 0-.85-.35-.85-.83zm7.501-1.82l-2.64-4.41h1.02l2.06 3.47 2.09-3.47h.98l-2.64 4.41V25h-.87v-2.59zm5.739 2.65c-1.49 0-2.53-1.06-2.53-2.61 0-1.55 1.04-2.61 2.53-2.61 1.49 0 2.53 1.06 2.53 2.61 0 1.55-1.04 2.61-2.53 2.61zm0-.73c1.01 0 1.69-.79 1.69-1.88 0-1.09-.68-1.88-1.69-1.88-1.01 0-1.69.79-1.69 1.88 0 1.09.68 1.88 1.69 1.88zm7.14-1.88V19.9h.82V25h-.71l-.11-.68c-.3.38-.79.74-1.63.74-1.12 0-2.01-.63-2.01-2.32V19.9h.82v2.79c0 1.06.48 1.62 1.33 1.62.93 0 1.49-.71 1.49-1.86zm4.545.87h.84c.03.6.56 1.04 1.41 1.04.72 0 1.23-.31 1.23-.78 0-.64-.56-.69-1.32-.78-1.14-.14-2.05-.37-2.05-1.43 0-.93.85-1.54 2-1.53 1.16.01 2 .55 2.08 1.61h-.84c-.06-.52-.54-.91-1.24-.91-.71 0-1.19.3-1.19.77 0 .56.54.63 1.28.72 1.16.14 2.09.36 2.09 1.49 0 .95-.91 1.54-2.04 1.54-1.32 0-2.23-.62-2.25-1.74zm7.8-3.48c1.14 0 2.07.63 2.07 2.32V25h-.82v-2.79c0-1.06-.51-1.62-1.39-1.62-.95 0-1.54.71-1.54 1.86V25h-.82v-7h.82v2.74c.3-.48.82-.9 1.68-.9zm5.507 5.22c-1.49 0-2.53-1.06-2.53-2.61 0-1.55 1.04-2.61 2.53-2.61 1.49 0 2.53 1.06 2.53 2.61 0 1.55-1.04 2.61-2.53 2.61zm0-.73c1.01 0 1.69-.79 1.69-1.88 0-1.09-.68-1.88-1.69-1.88-1.01 0-1.69.79-1.69 1.88 0 1.09.68 1.88 1.69 1.88zm7.14-1.88V19.9h.82V25h-.71l-.11-.68c-.3.38-.79.74-1.63.74-1.12 0-2.01-.63-2.01-2.32V19.9h.82v2.79c0 1.06.48 1.62 1.33 1.62.93 0 1.49-.71 1.49-1.86zm2.038 2.55v-7h.82v7h-.82zm6.063-4.32V18h.82v7h-.71l-.11-.82c-.34.47-.89.88-1.75.88-1.41 0-2.45-.95-2.45-2.61 0-1.56 1.04-2.61 2.45-2.61.86 0 1.44.35 1.75.84zm-1.67 3.65c1 0 1.68-.77 1.68-1.86 0-1.12-.68-1.9-1.68-1.9-1.01 0-1.69.77-1.69 1.88 0 1.11.68 1.88 1.69 1.88zm8.715.73c-1.49 0-2.47-1.01-2.47-2.6 0-1.56 1.01-2.62 2.49-2.62 1.25 0 2.04.7 2.25 1.82h-.86c-.15-.68-.65-1.09-1.4-1.09-.98 0-1.64.78-1.64 1.89 0 1.11.66 1.87 1.64 1.87.73 0 1.23-.42 1.39-1.07h.87c-.2 1.1-1.03 1.8-2.27 1.8zm5.619 0c-1.49 0-2.53-1.06-2.53-2.61 0-1.55 1.04-2.61 2.53-2.61 1.49 0 2.53 1.06 2.53 2.61 0 1.55-1.04 2.61-2.53 2.61zm0-.73c1.01 0 1.69-.79 1.69-1.88 0-1.09-.68-1.88-1.69-1.88-1.01 0-1.69.79-1.69 1.88 0 1.09.68 1.88 1.69 1.88zm6.07-4.49c1.15 0 2.06.63 2.06 2.32V25h-.82v-2.79c0-1.06-.49-1.62-1.38-1.62-.96 0-1.54.71-1.54 1.86V25h-.82v-5.1h.71l.11.69c.3-.39.82-.75 1.68-.75zm2.995 3.48h.84c.03.6.56 1.04 1.41 1.04.72 0 1.23-.31 1.23-.78 0-.64-.56-.69-1.32-.78-1.14-.14-2.05-.37-2.05-1.43 0-.93.85-1.54 2-1.53 1.16.01 2 .55 2.08 1.61h-.84c-.06-.52-.54-.91-1.24-.91-.71 0-1.19.3-1.19.77 0 .56.54.63 1.28.72 1.16.14 2.09.36 2.09 1.49 0 .95-.91 1.54-2.04 1.54-1.32 0-2.23-.62-2.25-1.74zm5.721-4.28c-.3 0-.53-.22-.53-.53 0-.31.23-.53.53-.53.3 0 .53.22.53.53 0 .31-.23.53-.53.53zm-.42 5.96v-5.1h.82V25h-.82zm6.063-4.32V18h.82v7h-.71l-.11-.82c-.34.47-.89.88-1.75.88-1.41 0-2.45-.95-2.45-2.61 0-1.56 1.04-2.61 2.45-2.61.86 0 1.44.35 1.75.84zm-1.67 3.65c1 0 1.68-.77 1.68-1.86 0-1.12-.68-1.9-1.68-1.9-1.01 0-1.69.77-1.69 1.88 0 1.11.68 1.88 1.69 1.88zm6.057.73c-1.53 0-2.53-1.05-2.53-2.61 0-1.55.98-2.61 2.42-2.61s2.38.91 2.42 2.42c0 .11-.01.23-.02.35h-3.96v.07c.03.97.64 1.65 1.61 1.65.72 0 1.28-.38 1.45-1.04h.83c-.2 1.02-1.04 1.77-2.22 1.77zm-1.62-3.13h3.05c-.08-.88-.68-1.37-1.53-1.37-.75 0-1.44.54-1.52 1.37zm7.326-2.03h.23v.8h-.41c-1.07 0-1.36.89-1.36 1.7V25h-.82v-5.1h.71l.11.77c.24-.39.63-.77 1.54-.77zM13.73 36l-1.65-5.1h.86l1.27 4.15 1.34-4.15h.76l1.27 4.15 1.33-4.15h.83l-1.7 5.1h-.9l-1.23-3.79L14.63 36h-.9zm9.252-5.16c1.14 0 2.07.63 2.07 2.32V36h-.82v-2.79c0-1.06-.51-1.62-1.39-1.62-.95 0-1.54.71-1.54 1.86V36h-.82v-7h.82v2.74c.3-.48.82-.9 1.68-.9zm5.507 5.22c-1.53 0-2.53-1.05-2.53-2.61 0-1.55.98-2.61 2.42-2.61s2.38.91 2.42 2.42c0 .11-.01.23-.02.35h-3.96v.07c.03.97.64 1.65 1.61 1.65.72 0 1.28-.38 1.45-1.04h.83c-.2 1.02-1.04 1.77-2.22 1.77zm-1.62-3.13h3.05c-.08-.88-.68-1.37-1.53-1.37-.75 0-1.44.54-1.52 1.37zm5.287 1.74v-3.02h-.92v-.75h.92v-1.43h.82v1.43h1.32v.75h-1.32v3.01c0 .43.15.59.59.59h.81V36h-.89c-.98 0-1.33-.43-1.33-1.33zm5.53-3.83c1.14 0 2.07.63 2.07 2.32V36h-.82v-2.79c0-1.06-.51-1.62-1.39-1.62-.95 0-1.54.71-1.54 1.86V36h-.82v-7h.82v2.74c.3-.48.82-.9 1.68-.9zm5.507 5.22c-1.53 0-2.53-1.05-2.53-2.61 0-1.55.98-2.61 2.42-2.61s2.38.91 2.42 2.42c0 .11-.01.23-.02.35h-3.96v.07c.03.97.64 1.65 1.61 1.65.72 0 1.28-.38 1.45-1.04h.83c-.2 1.02-1.04 1.77-2.22 1.77zm-1.62-3.13h3.05c-.08-.88-.68-1.37-1.53-1.37-.75 0-1.44.54-1.52 1.37zM48.9 30.9h.23v.8h-.41c-1.07 0-1.36.89-1.36 1.7V36h-.82v-5.1h.71l.11.77c.24-.39.63-.77 1.54-.77zm5.238 5.13l-1.99-5.13h.87l1.57 4.07 1.52-4.07h.87l-2.35 5.96c-.32.82-.51 1.14-1.23 1.14h-.98v-.75h.73c.47 0 .55-.12.74-.6l.25-.62zm5.677.03c-1.49 0-2.53-1.06-2.53-2.61 0-1.55 1.04-2.61 2.53-2.61 1.49 0 2.53 1.06 2.53 2.61 0 1.55-1.04 2.61-2.53 2.61zm0-.73c1.01 0 1.69-.79 1.69-1.88 0-1.09-.68-1.88-1.69-1.88-1.01 0-1.69.79-1.69 1.88 0 1.09.68 1.88 1.69 1.88zm7.14-1.88V30.9h.82V36h-.71l-.11-.68c-.3.38-.79.74-1.63.74-1.12 0-2.01-.63-2.01-2.32V30.9h.82v2.79c0 1.06.48 1.62 1.33 1.62.93 0 1.49-.71 1.49-1.86zM74 36.06c-1.49 0-2.47-1.01-2.47-2.6 0-1.56 1.01-2.62 2.49-2.62 1.25 0 2.04.7 2.25 1.82h-.86c-.15-.68-.65-1.09-1.4-1.09-.98 0-1.64.78-1.64 1.89 0 1.11.66 1.87 1.64 1.87.73 0 1.23-.42 1.39-1.07h.87c-.2 1.1-1.03 1.8-2.27 1.8zm7.78-.81h.26V36h-.45c-.68 0-.91-.29-.92-.79-.32.46-.83.85-1.71.85-1.12 0-1.88-.56-1.88-1.49 0-1.02.71-1.59 2.05-1.59h1.5v-.35c0-.66-.47-1.06-1.27-1.06-.72 0-1.2.34-1.3.86h-.82c.12-1 .93-1.59 2.16-1.59 1.3 0 2.05.65 2.05 1.84v2.23c0 .27.1.34.33.34zm-1.15-1.33v-.25h-1.58c-.73 0-1.14.27-1.14.85 0 .5.43.84 1.11.84 1.02 0 1.61-.59 1.61-1.44zm4.64-3.08c1.15 0 2.06.63 2.06 2.32V36h-.82v-2.79c0-1.06-.49-1.62-1.38-1.62-.96 0-1.54.71-1.54 1.86V36h-.82v-5.1h.71l.11.69c.3-.39.82-.75 1.68-.75zM95.7 35.25h.26V36h-.45c-.68 0-.91-.29-.92-.79-.32.46-.83.85-1.71.85-1.12 0-1.88-.56-1.88-1.49 0-1.02.71-1.59 2.05-1.59h1.5v-.35c0-.66-.47-1.06-1.27-1.06-.72 0-1.2.34-1.3.86h-.82c.12-1 .93-1.59 2.16-1.59 1.3 0 2.05.65 2.05 1.84v2.23c0 .27.1.34.33.34zm-1.15-1.33v-.25h-1.58c-.73 0-1.14.27-1.14.85 0 .5.43.84 1.11.84 1.02 0 1.61-.59 1.61-1.44zm7.611-4.17h-.89c-.41 0-.56.17-.56.56v.59h1.44v.75h-1.44V36h-.82v-4.35h-2V36h-.82v-4.35h-.92v-.75h.92v-.57c0-.9.38-1.33 1.33-1.33h.84v.75h-.79c-.41 0-.56.17-.56.56v.59h2v-.57c0-.9.38-1.33 1.33-1.33h.94v.75zm2.81 6.31c-1.49 0-2.53-1.06-2.53-2.61 0-1.55 1.04-2.61 2.53-2.61 1.49 0 2.53 1.06 2.53 2.61 0 1.55-1.04 2.61-2.53 2.61zm0-.73c1.01 0 1.69-.79 1.69-1.88 0-1.09-.68-1.88-1.69-1.88-1.01 0-1.69.79-1.69 1.88 0 1.09.68 1.88 1.69 1.88zm5.93-4.43h.23v.8h-.41c-1.07 0-1.36.89-1.36 1.7V36h-.82v-5.1h.71l.11.77c.24-.39.63-.77 1.54-.77zm4.768.78V29h.82v7h-.71l-.11-.82c-.34.47-.89.88-1.75.88-1.41 0-2.45-.95-2.45-2.61 0-1.56 1.04-2.61 2.45-2.61.86 0 1.44.35 1.75.84zM114 35.33c1 0 1.68-.77 1.68-1.86 0-1.12-.68-1.9-1.68-1.9-1.01 0-1.69.77-1.69 1.88 0 1.11.68 1.88 1.69 1.88zm6.804-.66v-3.02h-.92v-.75h.92v-1.43h.82v1.43h1.32v.75h-1.32v3.01c0 .43.15.59.59.59h.81V36h-.89c-.98 0-1.33-.43-1.33-1.33zm5.254 1.39c-1.49 0-2.53-1.06-2.53-2.61 0-1.55 1.04-2.61 2.53-2.61 1.49 0 2.53 1.06 2.53 2.61 0 1.55-1.04 2.61-2.53 2.61zm0-.73c1.01 0 1.69-.79 1.69-1.88 0-1.09-.68-1.88-1.69-1.88-1.01 0-1.69.79-1.69 1.88 0 1.09.68 1.88 1.69 1.88zm6.667-.66v-3.02h-.92v-.75h.92v-1.43h.82v1.43h1.32v.75h-1.32v3.01c0 .43.15.59.59.59h.81V36h-.89c-.98 0-1.33-.43-1.33-1.33zm7.463.58h.26V36h-.45c-.68 0-.91-.29-.92-.79-.32.46-.83.85-1.71.85-1.12 0-1.88-.56-1.88-1.49 0-1.02.71-1.59 2.05-1.59h1.5v-.35c0-.66-.47-1.06-1.27-1.06-.72 0-1.2.34-1.3.86h-.82c.12-1 .93-1.59 2.16-1.59 1.3 0 2.05.65 2.05 1.84v2.23c0 .27.1.34.33.34zm-1.15-1.33v-.25h-1.58c-.73 0-1.14.27-1.14.85 0 .5.43.84 1.11.84 1.02 0 1.61-.59 1.61-1.44zm2.14 2.08v-7h.82v4.61l2.56-2.71h1.01l-1.99 2.11 2.13 2.99h-.99l-1.69-2.4-1.03 1.06V36h-.82zm7.264.06c-1.53 0-2.53-1.05-2.53-2.61 0-1.55.98-2.61 2.42-2.61s2.38.91 2.42 2.42c0 .11-.01.23-.02.35h-3.96v.07c.03.97.64 1.65 1.61 1.65.72 0 1.28-.38 1.45-1.04h.83c-.2 1.02-1.04 1.77-2.22 1.77zm-1.62-3.13h3.05c-.08-.88-.68-1.37-1.53-1.37-.75 0-1.44.54-1.52 1.37zm8.063 1.74v-3.02h-.92v-.75h.92v-1.43h.82v1.43h1.32v.75h-1.32v3.01c0 .43.15.59.59.59h.81V36h-.89c-.98 0-1.33-.43-1.33-1.33zm5.531-3.83c1.14 0 2.07.63 2.07 2.32V36h-.82v-2.79c0-1.06-.51-1.62-1.39-1.62-.95 0-1.54.71-1.54 1.86V36h-.82v-7h.82v2.74c.3-.48.82-.9 1.68-.9zm5.506 5.22c-1.53 0-2.53-1.05-2.53-2.61 0-1.55.98-2.61 2.42-2.61s2.38.91 2.42 2.42c0 .11-.01.23-.02.35h-3.96v.07c.03.97.64 1.65 1.61 1.65.72 0 1.28-.38 1.45-1.04h.83c-.2 1.02-1.04 1.77-2.22 1.77zm-1.62-3.13h3.05c-.08-.88-.68-1.37-1.53-1.37-.75 0-1.44.54-1.52 1.37zm10.183-2.09c1.14 0 2.07.63 2.07 2.32V36h-.82v-2.79c0-1.06-.51-1.62-1.39-1.62-.95 0-1.54.71-1.54 1.86V36h-.82v-7h.82v2.74c.3-.48.82-.9 1.68-.9zm3.636-.8c-.3 0-.53-.22-.53-.53 0-.31.23-.53.53-.53.3 0 .53.22.53.53 0 .31-.23.53-.53.53zm-.42 5.96v-5.1h.82V36h-.82zm6.063-4.22l.11-.88h.71v4.85c0 1.47-.78 2.31-2.53 2.31-1.3 0-2.21-.61-2.34-1.73h.84c.14.64.71 1 1.56 1 1.07 0 1.65-.5 1.65-1.61v-.6c-.34.58-.89.94-1.75.94-1.41 0-2.45-.95-2.45-2.61 0-1.56 1.04-2.61 2.45-2.61.86 0 1.43.37 1.75.94zm-1.67 3.55c1 0 1.68-.77 1.68-1.86 0-1.12-.68-1.9-1.68-1.9-1.01 0-1.69.77-1.69 1.88 0 1.11.68 1.88 1.69 1.88zm6.207-4.49c1.14 0 2.07.63 2.07 2.32V36h-.82v-2.79c0-1.06-.51-1.62-1.39-1.62-.95 0-1.54.71-1.54 1.86V36h-.82v-7h.82v2.74c.3-.48.82-.9 1.68-.9zm8.292.06h.23v.8h-.41c-1.07 0-1.36.89-1.36 1.7V36h-.82v-5.1h.71l.11.77c.24-.39.63-.77 1.54-.77zm1.461-.86c-.3 0-.53-.22-.53-.53 0-.31.23-.53.53-.53.3 0 .53.22.53.53 0 .31-.23.53-.53.53zm-.42 5.96v-5.1h.82V36h-.82zm1.834-1.68h.84c.03.6.56 1.04 1.41 1.04.72 0 1.23-.31 1.23-.78 0-.64-.56-.69-1.32-.78-1.14-.14-2.05-.37-2.05-1.43 0-.93.85-1.54 2-1.53 1.16.01 2 .55 2.08 1.61h-.84c-.06-.52-.54-.91-1.24-.91-.71 0-1.19.3-1.19.77 0 .56.54.63 1.28.72 1.16.14 2.09.36 2.09 1.49 0 .95-.91 1.54-2.04 1.54-1.32 0-2.23-.62-2.25-1.74zm5.3 1.68v-7h.82v4.61l2.56-2.71h1.01l-1.99 2.11 2.13 2.99h-.99l-1.69-2.4-1.03 1.06V36h-.82zm10.274.06c-1.49 0-2.53-1.06-2.53-2.61 0-1.55 1.04-2.61 2.53-2.61 1.49 0 2.53 1.06 2.53 2.61 0 1.55-1.04 2.61-2.53 2.61zm0-.73c1.01 0 1.69-.79 1.69-1.88 0-1.09-.68-1.88-1.69-1.88-1.01 0-1.69.79-1.69 1.88 0 1.09.68 1.88 1.69 1.88zm2.972-3.68v-.75h.92v-.57c0-.9.38-1.33 1.33-1.33h.93v.75h-.88c-.41 0-.56.17-.56.56v.59h1.44v.75h-1.44V36h-.82v-4.35h-.92zm6.59 4.35v-7h.82v7h-.82zm4.393.06c-1.49 0-2.53-1.06-2.53-2.61 0-1.55 1.04-2.61 2.53-2.61 1.49 0 2.53 1.06 2.53 2.61 0 1.55-1.04 2.61-2.53 2.61zm0-.73c1.01 0 1.69-.79 1.69-1.88 0-1.09-.68-1.88-1.69-1.88-1.01 0-1.69.79-1.69 1.88 0 1.09.68 1.88 1.69 1.88zm3.341-1.01h.84c.03.6.56 1.04 1.41 1.04.72 0 1.23-.31 1.23-.78 0-.64-.56-.69-1.32-.78-1.14-.14-2.05-.37-2.05-1.43 0-.93.85-1.54 2-1.53 1.16.01 2 .55 2.08 1.61h-.84c-.06-.52-.54-.91-1.24-.91-.71 0-1.19.3-1.19.77 0 .56.54.63 1.28.72 1.16.14 2.09.36 2.09 1.49 0 .95-.91 1.54-2.04 1.54-1.32 0-2.23-.62-2.25-1.74zm5.72-4.28c-.3 0-.53-.22-.53-.53 0-.31.23-.53.53-.53.3 0 .53.22.53.53 0 .31-.23.53-.53.53zm-.42 5.96v-5.1h.82V36h-.82zm4.543-5.16c1.15 0 2.06.63 2.06 2.32V36h-.82v-2.79c0-1.06-.49-1.62-1.38-1.62-.96 0-1.54.71-1.54 1.86V36h-.82v-5.1h.71l.11.69c.3-.39.82-.75 1.68-.75zm7.226.94l.11-.88h.71v4.85c0 1.47-.78 2.31-2.53 2.31-1.3 0-2.21-.61-2.34-1.73h.84c.14.64.71 1 1.56 1 1.07 0 1.65-.5 1.65-1.61v-.6c-.34.58-.89.94-1.75.94-1.41 0-2.45-.95-2.45-2.61 0-1.56 1.04-2.61 2.45-2.61.86 0 1.43.37 1.75.94zm-1.67 3.55c1 0 1.68-.77 1.68-1.86 0-1.12-.68-1.9-1.68-1.9-1.01 0-1.69.77-1.69 1.88 0 1.11.68 1.88 1.69 1.88zm7.904.7l-1.99-5.13h.87l1.57 4.07 1.52-4.07h.87l-2.35 5.96c-.32.82-.51 1.14-1.23 1.14h-.98v-.75h.73c.47 0 .55-.12.74-.6l.25-.62zm5.677.03c-1.49 0-2.53-1.06-2.53-2.61 0-1.55 1.04-2.61 2.53-2.61 1.49 0 2.53 1.06 2.53 2.61 0 1.55-1.04 2.61-2.53 2.61zm0-.73c1.01 0 1.69-.79 1.69-1.88 0-1.09-.68-1.88-1.69-1.88-1.01 0-1.69.79-1.69 1.88 0 1.09.68 1.88 1.69 1.88zm7.141-1.88V30.9h.82V36h-.71l-.11-.68c-.3.38-.79.74-1.63.74-1.12 0-2.01-.63-2.01-2.32V30.9h.82v2.79c0 1.06.48 1.62 1.33 1.62.93 0 1.49-.71 1.49-1.86zm4.397-2.55h.23v.8h-.41c-1.07 0-1.36.89-1.36 1.7V36h-.82v-5.1h.71l.11.77c.24-.39.63-.77 1.54-.77zM18.25 41.84c1.06 0 1.93.61 1.93 2.22V47h-.82v-2.89c0-1-.44-1.52-1.21-1.52-.85 0-1.37.64-1.37 1.68V47h-.82v-2.89c0-1-.45-1.52-1.23-1.52-.84 0-1.35.7-1.35 1.72V47h-.82v-5.1h.71l.11.7c.27-.37.7-.76 1.49-.76.71 0 1.32.32 1.61.97.31-.55.86-.97 1.77-.97zm5.373 5.22c-1.49 0-2.53-1.06-2.53-2.61 0-1.55 1.04-2.61 2.53-2.61 1.49 0 2.53 1.06 2.53 2.61 0 1.55-1.04 2.61-2.53 2.61zm0-.73c1.01 0 1.69-.79 1.69-1.88 0-1.09-.68-1.88-1.69-1.88-1.01 0-1.69.79-1.69 1.88 0 1.09.68 1.88 1.69 1.88zm6.07-4.49c1.15 0 2.06.63 2.06 2.32V47h-.82v-2.79c0-1.06-.49-1.62-1.38-1.62-.96 0-1.54.71-1.54 1.86V47h-.82v-5.1h.71l.11.69c.3-.39.82-.75 1.68-.75zm5.497 5.22c-1.53 0-2.53-1.05-2.53-2.61 0-1.55.98-2.61 2.42-2.61s2.38.91 2.42 2.42c0 .11-.01.23-.02.35h-3.96v.07c.03.97.64 1.65 1.61 1.65.72 0 1.28-.38 1.45-1.04h.83c-.2 1.02-1.04 1.77-2.22 1.77zm-1.62-3.13h3.05c-.08-.88-.68-1.37-1.53-1.37-.75 0-1.44.54-1.52 1.37zm6.222 3.1l-1.99-5.13h.87l1.57 4.07 1.52-4.07h.87l-2.35 5.96c-.32.82-.51 1.14-1.23 1.14h-.98v-.75h.73c.47 0 .55-.12.74-.6l.25-.62zm2.973-.53c0-.34.24-.56.57-.56.33 0 .57.22.57.56 0 .34-.24.56-.57.56-.33 0-.57-.22-.57-.56z" fill="#000"/></svg>