<svg width="178" height="34" viewBox="0 0 178 34" fill="none" xmlns="http://www.w3.org/2000/svg"><path d="M.28 5.32V4.2h7.574v1.12H4.676V14H3.458V5.32H.28zm13.914 7.63h.364V14h-.63c-.952 0-1.274-.406-1.288-1.106-.448.644-1.162 1.19-2.394 1.19-1.568 0-2.632-.784-2.632-2.086 0-1.428.994-2.226 2.87-2.226h2.1v-.49c0-.924-.658-1.484-1.778-1.484-1.008 0-1.68.476-1.82 1.204H7.838c.168-1.4 1.302-2.226 3.024-2.226 1.82 0 2.87.91 2.87 2.576v3.122c0 .378.14.476.462.476zm-1.61-1.862v-.35h-2.212c-1.022 0-1.596.378-1.596 1.19 0 .7.602 1.176 1.554 1.176 1.428 0 2.254-.826 2.254-2.016zM15.44 14V4.2h1.148v6.454l3.584-3.794h1.414L18.8 9.814 21.782 14h-1.386l-2.366-3.36-1.442 1.484V14H15.44zm10.03.084c-2.142 0-3.541-1.47-3.541-3.654 0-2.17 1.372-3.654 3.388-3.654 2.015 0 3.331 1.274 3.387 3.388 0 .154-.014.322-.027.49h-5.544v.098c.041 1.358.896 2.31 2.254 2.31 1.008 0 1.791-.532 2.03-1.456h1.161c-.28 1.428-1.456 2.478-3.107 2.478zm-2.267-4.382h4.27c-.113-1.232-.953-1.918-2.142-1.918-1.05 0-2.017.756-2.128 1.918zm16.79 3.248h.363V14h-.63c-.951 0-1.273-.406-1.288-1.106-.448.644-1.162 1.19-2.394 1.19-1.567 0-2.631-.784-2.631-2.086 0-1.428.994-2.226 2.87-2.226h2.1v-.49c0-.924-.659-1.484-1.779-1.484-1.008 0-1.68.476-1.82 1.204h-1.148c.168-1.4 1.302-2.226 3.024-2.226 1.82 0 2.87.91 2.87 2.576v3.122c0 .378.14.476.462.476zm-1.61-1.862v-.35H36.17c-1.022 0-1.596.378-1.596 1.19 0 .7.602 1.176 1.555 1.176 1.428 0 2.254-.826 2.254-2.016zM48.5 6.776c1.974 0 3.43 1.33 3.43 3.654 0 2.184-1.456 3.654-3.43 3.654-1.204 0-2.016-.49-2.45-1.176V16.8h-1.148V6.86h.994l.154 1.148c.476-.658 1.246-1.232 2.45-1.232zm-.112 6.286c1.414 0 2.366-1.078 2.366-2.632s-.952-2.632-2.366-2.632c-1.4 0-2.352 1.078-2.352 2.604 0 1.568.952 2.66 2.352 2.66zm8.144 1.022c-2.086 0-3.542-1.484-3.542-3.654s1.456-3.654 3.542-3.654 3.542 1.484 3.542 3.654-1.456 3.654-3.542 3.654zm0-1.022c1.414 0 2.366-1.106 2.366-2.632s-.952-2.632-2.366-2.632c-1.414 0-2.366 1.106-2.366 2.632s.952 2.632 2.366 2.632zm4.537-1.414h1.176c.042.84.784 1.456 1.974 1.456 1.008 0 1.722-.434 1.722-1.092 0-.896-.784-.966-1.848-1.092-1.596-.196-2.87-.518-2.87-2.002 0-1.302 1.19-2.156 2.8-2.142 1.624.014 2.8.77 2.912 2.254H65.76c-.084-.728-.756-1.274-1.736-1.274-.994 0-1.666.42-1.666 1.078 0 .784.756.882 1.792 1.008 1.624.196 2.926.504 2.926 2.086 0 1.33-1.274 2.156-2.856 2.156-1.848 0-3.122-.868-3.15-2.436zm7.868-5.992a.721.721 0 01-.742-.742c0-.434.322-.742.742-.742s.742.308.742.742a.721.721 0 01-.742.742zM68.35 14V6.86h1.148V14H68.35zm3.253-1.862V7.91h-1.288V6.86h1.288V4.858h1.148V6.86H74.6v1.05h-1.848v4.214c0 .602.21.826.826.826h1.134V14h-1.246c-1.372 0-1.862-.602-1.862-1.862zm4.69-6.482a.721.721 0 01-.741-.742c0-.434.322-.742.742-.742s.742.308.742.742a.721.721 0 01-.742.742zM75.707 14V6.86h1.148V14h-1.148zm6.01.084c-2.085 0-3.541-1.484-3.541-3.654s1.456-3.654 3.542-3.654 3.542 1.484 3.542 3.654-1.456 3.654-3.542 3.654zm0-1.022c1.415 0 2.367-1.106 2.367-2.632s-.952-2.632-2.366-2.632c-1.414 0-2.366 1.106-2.366 2.632s.952 2.632 2.366 2.632zm8.359-6.286c1.61 0 2.884.882 2.884 3.248V14h-1.148v-3.906c0-1.484-.686-2.268-1.932-2.268-1.344 0-2.156.994-2.156 2.604V14h-1.148V6.86h.994l.154.966c.42-.546 1.148-1.05 2.352-1.05zm11.302 7.308c-2.086 0-3.542-1.484-3.542-3.654s1.456-3.654 3.542-3.654 3.542 1.484 3.542 3.654-1.456 3.654-3.542 3.654zm0-1.022c1.414 0 2.366-1.106 2.366-2.632s-.952-2.632-2.366-2.632c-1.414 0-2.366 1.106-2.366 2.632s.952 2.632 2.366 2.632zm8.358-6.286c1.61 0 2.884.882 2.884 3.248V14h-1.148v-3.906c0-1.484-.686-2.268-1.932-2.268-1.344 0-2.156.994-2.156 2.604V14h-1.148V6.86h.994l.154.966c.42-.546 1.148-1.05 2.352-1.05zm7.508-1.456V4.2h7.574v1.12h-3.178V14h-1.218V5.32h-3.178zm10.671 8.764c-2.142 0-3.542-1.47-3.542-3.654 0-2.17 1.372-3.654 3.388-3.654s3.332 1.274 3.388 3.388c0 .154-.014.322-.028.49h-5.544v.098c.042 1.358.896 2.31 2.254 2.31 1.008 0 1.792-.532 2.03-1.456h1.162c-.28 1.428-1.456 2.478-3.108 2.478zm-2.268-4.382h4.27c-.112-1.232-.952-1.918-2.142-1.918-1.05 0-2.016.756-2.128 1.918zm6.49 1.946h1.176c.042.84.784 1.456 1.974 1.456 1.008 0 1.722-.434 1.722-1.092 0-.896-.784-.966-1.848-1.092-1.596-.196-2.87-.518-2.87-2.002 0-1.302 1.19-2.156 2.8-2.142 1.624.014 2.8.77 2.912 2.254h-1.176c-.084-.728-.756-1.274-1.736-1.274-.994 0-1.666.42-1.666 1.078 0 .784.756.882 1.792 1.008 1.624.196 2.926.504 2.926 2.086 0 1.33-1.274 2.156-2.856 2.156-1.848 0-3.122-.868-3.15-2.436zM139.417 14V4.2h1.148V14h-1.148zm9.035-1.05h.364V14h-.63c-.952 0-1.274-.406-1.288-1.106-.448.644-1.162 1.19-2.394 1.19-1.568 0-2.632-.784-2.632-2.086 0-1.428.994-2.226 2.87-2.226h2.1v-.49c0-.924-.658-1.484-1.778-1.484-1.008 0-1.68.476-1.82 1.204h-1.148c.168-1.4 1.302-2.226 3.024-2.226 1.82 0 2.87.91 2.87 2.576v3.122c0 .378.14.476.462.476zm-1.61-1.862v-.35h-2.212c-1.022 0-1.596.378-1.596 1.19 0 .7.602 1.176 1.554 1.176 1.428 0 2.254-.826 2.254-2.016zm3.374 1.442c.686 0 1.106.658 1.106 1.428 0 1.19-.742 1.904-1.974 1.932v-.658c.896-.014 1.176-.644 1.176-1.12 0-.07 0-.126-.014-.182-.112.112-.308.168-.476.168-.42 0-.742-.252-.742-.756 0-.462.336-.812.924-.812zM2.142 31H.952v-9.8h1.12l5.264 7.56V21.2h1.19V31h-1.12l-5.264-7.56V31zm10.077 0l-2.674-7.14h1.232l2.156 5.838 2.142-5.838h1.204L13.605 31h-1.386zm5.505-8.344a.721.721 0 01-.742-.742c0-.434.322-.742.742-.742s.742.308.742.742a.721.721 0 01-.742.742zM17.136 31v-7.14h1.148V31h-1.148zm8.348-6.048V21.2h1.148V31h-.994l-.154-1.148c-.476.658-1.246 1.232-2.45 1.232-1.974 0-3.43-1.33-3.43-3.654 0-2.184 1.456-3.654 3.43-3.654 1.204 0 2.016.49 2.45 1.176zm-2.338 5.11c1.4 0 2.352-1.078 2.352-2.604 0-1.568-.952-2.66-2.352-2.66-1.414 0-2.366 1.078-2.366 2.632s.952 2.632 2.366 2.632zm5.638-7.406a.721.721 0 01-.742-.742c0-.434.322-.742.742-.742s.742.308.742.742a.721.721 0 01-.742.742zM28.196 31v-7.14h1.148V31h-1.148zm9.035-1.05h.364V31h-.63c-.952 0-1.274-.406-1.288-1.106-.448.644-1.162 1.19-2.394 1.19-1.568 0-2.632-.784-2.632-2.086 0-1.428.994-2.226 2.87-2.226h2.1v-.49c0-.924-.658-1.484-1.778-1.484-1.008 0-1.68.476-1.82 1.204h-1.148c.168-1.4 1.302-2.226 3.024-2.226 1.82 0 2.87.91 2.87 2.576v3.122c0 .378.14.476.462.476zm-1.61-1.862v-.35h-2.212c-1.022 0-1.596.378-1.596 1.19 0 .7.602 1.176 1.554 1.176 1.428 0 2.254-.826 2.254-2.016zm12.834 1.862h.364V31h-.63c-.952 0-1.274-.406-1.288-1.106-.448.644-1.162 1.19-2.394 1.19-1.568 0-2.632-.784-2.632-2.086 0-1.428.994-2.226 2.87-2.226h2.1v-.49c0-.924-.658-1.484-1.778-1.484-1.008 0-1.68.476-1.82 1.204H42.1c.168-1.4 1.302-2.226 3.024-2.226 1.82 0 2.87.91 2.87 2.576v3.122c0 .378.14.476.462.476zm-1.61-1.862v-.35h-2.212c-1.022 0-1.596.378-1.596 1.19 0 .7.602 1.176 1.554 1.176 1.428 0 2.254-.826 2.254-2.016zm6.357-4.312c1.61 0 2.884.882 2.884 3.248V31h-1.148v-3.906c0-1.484-.686-2.268-1.932-2.268-1.344 0-2.156.994-2.156 2.604V31h-1.148v-7.14h.994l.154.966c.42-.546 1.148-1.05 2.352-1.05zm9.894 1.176V21.2h1.148V31h-.994l-.154-1.148c-.476.658-1.246 1.232-2.45 1.232-1.974 0-3.43-1.33-3.43-3.654 0-2.184 1.456-3.654 3.43-3.654 1.204 0 2.016.49 2.45 1.176zm-2.338 5.11c1.4 0 2.352-1.078 2.352-2.604 0-1.568-.952-2.66-2.352-2.66-1.414 0-2.366 1.078-2.366 2.632s.952 2.632 2.366 2.632zm16.68-6.286c1.483 0 2.701.854 2.701 3.108V31h-1.147v-4.046c0-1.4-.617-2.128-1.695-2.128-1.19 0-1.918.896-1.918 2.352V31h-1.148v-4.046c0-1.4-.63-2.128-1.721-2.128-1.177 0-1.89.98-1.89 2.408V31h-1.148v-7.14h.994l.154.98c.377-.518.98-1.064 2.085-1.064.995 0 1.849.448 2.255 1.358.434-.77 1.204-1.358 2.478-1.358zm7.382 7.308c-2.086 0-3.542-1.484-3.542-3.654s1.456-3.654 3.542-3.654 3.542 1.484 3.542 3.654-1.456 3.654-3.542 3.654zm0-1.022c1.414 0 2.366-1.106 2.366-2.632s-.952-2.632-2.366-2.632c-1.414 0-2.366 1.106-2.366 2.632s.952 2.632 2.366 2.632zm8.163-6.202h.322v1.12h-.575c-1.498 0-1.904 1.246-1.904 2.38V31H89.68v-7.14h.993l.154 1.078c.337-.546.883-1.078 2.157-1.078zm4.197 7.224c-2.143 0-3.543-1.47-3.543-3.654 0-2.17 1.373-3.654 3.388-3.654 2.016 0 3.332 1.274 3.388 3.388 0 .154-.014.322-.028.49h-5.544v.098c.043 1.358.897 2.31 2.255 2.31 1.007 0 1.791-.532 2.03-1.456h1.161c-.28 1.428-1.456 2.478-3.108 2.478zm-2.269-4.382h4.27c-.111-1.232-.951-1.918-2.141-1.918-1.05 0-2.017.756-2.129 1.918z" fill="#fff"/></svg>