<svg width="161" height="35" viewBox="0 0 161 35" fill="none" xmlns="http://www.w3.org/2000/svg"><path d="M.38 2.06V.02h10.94v2.04H7v11.96H4.7V2.06H.38zm17.779 1.6c2.28 0 4.14 1.24 4.14 4.66v5.7h-2.16V8.5c0-1.94-.86-2.98-2.46-2.98-1.7 0-2.74 1.26-2.74 3.32v5.18h-2.16v-14h2.16v5.24c.64-.88 1.62-1.6 3.22-1.6zm10.886 10.48c-3.22 0-5.24-2.08-5.24-5.22 0-3.16 2.02-5.26 5.04-5.26 2.96 0 4.94 1.88 5 4.88 0 .26-.02.54-.06.82h-7.72v.14c.06 1.74 1.16 2.88 2.86 2.88 1.32 0 2.28-.66 2.58-1.8h2.16c-.36 2.02-2.08 3.56-4.62 3.56zm-2.9-6.36h5.46c-.18-1.52-1.24-2.38-2.74-2.38-1.38 0-2.56.92-2.72 2.38zm15.303 3.46V5.68h-1.78v-1.9h1.78V.92h2.18v2.86h2.5v1.9h-2.5v5.34c0 .8.28 1.1 1.1 1.1h1.52v1.9h-2c-1.96 0-2.8-.92-2.8-2.78zm15.417.9h.44v1.88h-1.14c-1.4 0-1.88-.62-1.88-1.64-.68 1.04-1.72 1.76-3.38 1.76-2.24 0-3.8-1.1-3.8-3 0-2.1 1.52-3.28 4.38-3.28h2.58v-.62c0-1.14-.82-1.84-2.24-1.84-1.28 0-2.14.6-2.3 1.5h-2.12c.22-2 1.94-3.24 4.52-3.24 2.72 0 4.28 1.3 4.28 3.72v4.1c0 .52.22.66.66.66zm-2.8-2.32v-.36h-2.68c-1.34 0-2.08.5-2.08 1.54 0 .86.72 1.46 1.9 1.46 1.8 0 2.84-1.06 2.86-2.64zm3.357 4.2l3.84-5.24-3.62-5h2.52l2.44 3.46 2.5-3.46h2.38l-3.64 5 3.86 5.24h-2.52l-2.68-3.72-2.7 3.72h-2.38zm17.095-4.8h-6.8V7.44h6.8v1.78zm.718-3.54v-1.9h1.78v-.96c0-1.84.88-2.8 2.86-2.8h2.06v1.9h-1.78c-.7 0-1 .3-1 1v.86h2.78v1.9h-2.74v8.34h-2.18V5.68h-1.78zm12.997-1.9h.48V5.8h-.96c-1.92 0-2.54 1.5-2.54 3.08v5.14h-2.16V3.78h1.92l.24 1.54c.52-.86 1.34-1.54 3.02-1.54zm6.184 10.36c-3.22 0-5.24-2.08-5.24-5.22 0-3.16 2.02-5.26 5.04-5.26 2.96 0 4.94 1.88 5 4.88 0 .26-.02.54-.06.82h-7.72v.14c.06 1.74 1.16 2.88 2.86 2.88 1.32 0 2.28-.66 2.58-1.8h2.16c-.36 2.02-2.08 3.56-4.62 3.56zm-2.9-6.36h5.46c-.18-1.52-1.24-2.38-2.74-2.38-1.38 0-2.56.92-2.72 2.38zm14.306 6.36c-3.22 0-5.24-2.08-5.24-5.22 0-3.16 2.02-5.26 5.04-5.26 2.96 0 4.94 1.88 5 4.88 0 .26-.02.54-.06.82h-7.72v.14c.06 1.74 1.16 2.88 2.86 2.88 1.32 0 2.28-.66 2.58-1.8h2.16c-.36 2.02-2.08 3.56-4.62 3.56zm-2.9-6.36h5.46c-.18-1.52-1.24-2.38-2.74-2.38-1.38 0-2.56.92-2.72 2.38zm14.551-6.38l.6 1.42-2.38.88 1.64 1.86-1.16 1-1.6-2.1-1.58 2.08-1.14-1 1.64-1.86-2.36-.88.6-1.4 2.18 1.04-.06-2.44h1.48l-.06 2.46 2.2-1.06zm9.951 12.62l-3.34-10.24h2.28l2.34 7.84 2.34-7.84h1.98l2.24 7.84 2.42-7.84h2.2l-3.4 10.24h-2.32l-2.16-6.96-2.24 6.96h-2.34zm22.527-1.88h.44v1.88h-1.14c-1.4 0-1.88-.62-1.88-1.64-.68 1.04-1.72 1.76-3.38 1.76-2.24 0-3.8-1.1-3.8-3 0-2.1 1.52-3.28 4.38-3.28h2.58v-.62c0-1.14-.82-1.84-2.24-1.84-1.28 0-2.14.6-2.3 1.5h-2.12c.22-2 1.94-3.24 4.52-3.24 2.72 0 4.28 1.3 4.28 3.72v4.1c0 .52.22.66.66.66zm-2.8-2.32v-.36h-2.68c-1.34 0-2.08.5-2.08 1.54 0 .86.72 1.46 1.9 1.46 1.8 0 2.84-1.06 2.86-2.64zm6.947 4.26l-3.98-10.3h2.3l2.86 7.78 2.78-7.78h2.3l-4.64 11.84c-.64 1.66-1.08 2.4-2.58 2.4h-2.32v-1.9h1.52c.84 0 1.04-.2 1.36-1.04l.4-1zM1.78 31.24v-5.56H0v-1.9h1.78v-2.86h2.18v2.86h2.5v1.9h-2.5v5.34c0 .8.28 1.1 1.1 1.1h1.52v1.9h-2c-1.96 0-2.8-.92-2.8-2.78zm10.8 2.9c-3.12 0-5.22-2.1-5.22-5.24 0-3.12 2.1-5.24 5.22-5.24 3.12 0 5.22 2.12 5.22 5.24 0 3.14-2.1 5.24-5.22 5.24zm0-1.84c1.82 0 3.02-1.42 3.02-3.4s-1.2-3.4-3.02-3.4-3 1.42-3 3.4 1.18 3.4 3 3.4zm21.434-.16h.44v1.88h-1.14c-1.4 0-1.88-.62-1.88-1.64-.68 1.04-1.72 1.76-3.38 1.76-2.24 0-3.8-1.1-3.8-3 0-2.1 1.52-3.28 4.38-3.28h2.58v-.62c0-1.14-.82-1.84-2.24-1.84-1.28 0-2.14.6-2.3 1.5h-2.12c.22-2 1.94-3.24 4.52-3.24 2.72 0 4.28 1.3 4.28 3.72v4.1c0 .52.22.66.66.66zm-2.8-2.32v-.36h-2.68c-1.34 0-2.08.5-2.08 1.54 0 .86.72 1.46 1.9 1.46 1.8 0 2.84-1.06 2.86-2.64zm9.038 4.32c-3.1 0-5.08-2.02-5.08-5.22 0-3.16 2.04-5.26 5.14-5.26 2.64 0 4.28 1.46 4.7 3.78h-2.26c-.28-1.2-1.14-1.94-2.48-1.94-1.74 0-2.88 1.4-2.88 3.42 0 2 1.14 3.38 2.88 3.38 1.32 0 2.2-.76 2.46-1.94h2.28c-.4 2.32-2.14 3.78-4.76 3.78zm11.113 0c-3.1 0-5.08-2.02-5.08-5.22 0-3.16 2.04-5.26 5.14-5.26 2.64 0 4.28 1.46 4.7 3.78h-2.26c-.28-1.2-1.14-1.94-2.48-1.94-1.74 0-2.88 1.4-2.88 3.42 0 2 1.14 3.38 2.88 3.38 1.32 0 2.2-.76 2.46-1.94h2.28c-.4 2.32-2.14 3.78-4.76 3.78zm11.274 0c-3.22 0-5.24-2.08-5.24-5.22 0-3.16 2.02-5.26 5.04-5.26 2.96 0 4.94 1.88 5 4.88 0 .26-.02.54-.06.82h-7.72v.14c.06 1.74 1.16 2.88 2.86 2.88 1.32 0 2.28-.66 2.58-1.8h2.16c-.36 2.02-2.08 3.56-4.62 3.56zm-2.9-6.36h5.46c-.18-1.52-1.24-2.38-2.74-2.38-1.38 0-2.56.92-2.72 2.38zm8.947 2.86h2.12c.08 1.06 1 1.82 2.56 1.82 1.34 0 2.22-.52 2.22-1.34 0-1.1-.94-1.18-2.52-1.38-2.34-.28-4.18-.78-4.18-2.9 0-1.94 1.74-3.2 4.2-3.18 2.52 0 4.3 1.16 4.44 3.26h-2.12c-.12-.94-1-1.6-2.28-1.6-1.28 0-2.12.52-2.12 1.34 0 .96.98 1.08 2.46 1.24 2.34.28 4.24.76 4.24 3.04 0 1.96-1.86 3.2-4.34 3.2-2.74 0-4.62-1.28-4.68-3.5zm10.059 0h2.12c.08 1.06 1 1.82 2.56 1.82 1.34 0 2.22-.52 2.22-1.34 0-1.1-.94-1.18-2.52-1.38-2.34-.28-4.18-.78-4.18-2.9 0-1.94 1.74-3.2 4.2-3.18 2.52 0 4.3 1.16 4.44 3.26h-2.12c-.12-.94-1-1.6-2.28-1.6-1.28 0-2.12.52-2.12 1.34 0 .96.98 1.08 2.46 1.24 2.34.28 4.24.76 4.24 3.04 0 1.96-1.86 3.2-4.34 3.2-2.74 0-4.62-1.28-4.68-3.5zm15.371 0h2.12c.08 1.06 1 1.82 2.56 1.82 1.34 0 2.22-.52 2.22-1.34 0-1.1-.94-1.18-2.52-1.38-2.34-.28-4.18-.78-4.18-2.9 0-1.94 1.74-3.2 4.2-3.18 2.52 0 4.3 1.16 4.44 3.26h-2.12c-.12-.94-1-1.6-2.28-1.6-1.28 0-2.12.52-2.12 1.34 0 .96.98 1.08 2.46 1.24 2.34.28 4.24.76 4.24 3.04 0 1.96-1.86 3.2-4.34 3.2-2.74 0-4.62-1.28-4.68-3.5zm16.074-6.98c2.28 0 4.14 1.24 4.14 4.66v5.7h-2.16V28.5c0-1.94-.86-2.98-2.46-2.98-1.7 0-2.74 1.26-2.74 3.32v5.18h-2.16v-14h2.16v5.24c.64-.88 1.62-1.6 3.22-1.6zm15.464 8.48h.44v1.88h-1.14c-1.4 0-1.88-.62-1.88-1.64-.68 1.04-1.72 1.76-3.38 1.76-2.24 0-3.8-1.1-3.8-3 0-2.1 1.52-3.28 4.38-3.28h2.58v-.62c0-1.14-.82-1.84-2.24-1.84-1.28 0-2.14.6-2.3 1.5h-2.12c.22-2 1.94-3.24 4.52-3.24 2.72 0 4.28 1.3 4.28 3.72v4.1c0 .52.22.66.66.66zm-2.8-2.32v-.36h-2.68c-1.34 0-2.08.5-2.08 1.54 0 .86.72 1.46 1.9 1.46 1.8 0 2.84-1.06 2.86-2.64zm9.597-6.04h.48v2.02h-.96c-1.92 0-2.54 1.5-2.54 3.08v5.14h-2.16V23.78h1.92l.24 1.54c.52-.86 1.34-1.54 3.02-1.54zm6.184 10.36c-3.22 0-5.24-2.08-5.24-5.22 0-3.16 2.02-5.26 5.04-5.26 2.96 0 4.94 1.88 5 4.88 0 .26-.02.54-.06.82h-7.72v.14c.06 1.74 1.16 2.88 2.86 2.88 1.32 0 2.28-.66 2.58-1.8h2.16c-.36 2.02-2.08 3.56-4.62 3.56zm-2.9-6.36h5.46c-.18-1.52-1.24-2.38-2.74-2.38-1.38 0-2.56.92-2.72 2.38zm8.948 2.86h2.12c.08 1.06 1 1.82 2.56 1.82 1.34 0 2.22-.52 2.22-1.34 0-1.1-.94-1.18-2.521-1.38-2.339-.28-4.179-.78-4.179-2.9 0-1.94 1.74-3.2 4.2-3.18 2.52 0 4.3 1.16 4.44 3.26h-2.12c-.12-.94-1-1.6-2.28-1.6-1.28 0-2.121.52-2.121 1.34 0 .96.981 1.08 2.461 1.24 2.34.28 4.24.76 4.24 3.04 0 1.96-1.86 3.2-4.34 3.2-2.74 0-4.62-1.28-4.68-3.5z" fill="#fff"/></svg>