<svg width="184" height="40" viewBox="0 0 184 40" fill="none" xmlns="http://www.w3.org/2000/svg"><rect width="184" height="40" rx="20" fill="#fff"/><path d="M16.68 22.107h1.53c.119 1.598 1.36 2.652 3.179 2.652 1.598 0 2.737-.731 2.737-2.023 0-1.479-1.462-1.785-3.264-2.091-1.921-.323-3.893-.952-3.893-3.264 0-2.023 1.649-3.383 4.063-3.383 2.652 0 4.284 1.479 4.42 3.621h-1.53c-.17-1.377-1.275-2.278-2.89-2.278-1.547 0-2.584.68-2.584 1.955 0 1.428 1.445 1.717 3.23 2.023 1.938.323 3.927.969 3.927 3.281 0 2.057-1.734 3.502-4.233 3.502-2.907 0-4.607-1.649-4.692-3.995zm11.244 1.632v-5.134H26.36V17.33h1.564v-2.431h1.394v2.431h2.244v1.275h-2.244v5.117c0 .731.255 1.003 1.003 1.003h1.377V26h-1.513c-1.666 0-2.26-.731-2.26-2.261zm12.516.986h.442V26h-.765c-1.156 0-1.547-.493-1.564-1.343-.544.782-1.41 1.445-2.907 1.445-1.904 0-3.196-.952-3.196-2.533 0-1.734 1.207-2.703 3.485-2.703h2.55v-.595c0-1.122-.799-1.802-2.159-1.802-1.224 0-2.04.578-2.21 1.462h-1.394c.204-1.7 1.581-2.703 3.672-2.703 2.21 0 3.485 1.105 3.485 3.128v3.791c0 .459.17.578.561.578zm-1.955-2.261v-.425H35.8c-1.24 0-1.938.459-1.938 1.445 0 .85.731 1.428 1.887 1.428 1.734 0 2.737-1.003 2.737-2.448zm7.481-5.134h.391v1.36h-.697c-1.819 0-2.312 1.513-2.312 2.89V26h-1.394v-8.67h1.207l.187 1.309c.408-.663 1.071-1.309 2.618-1.309zm2.527 6.409v-5.134H46.93V17.33h1.564v-2.431h1.395v2.431h2.244v1.275h-2.244v5.117c0 .731.255 1.003 1.003 1.003h1.377V26h-1.514c-1.665 0-2.26-.731-2.26-2.261zm9.075-.595h1.428c.05 1.02.952 1.768 2.397 1.768 1.224 0 2.09-.527 2.09-1.326 0-1.088-.951-1.173-2.243-1.326-1.938-.238-3.485-.629-3.485-2.431 0-1.581 1.445-2.618 3.4-2.601 1.972.017 3.4.935 3.536 2.737h-1.428c-.102-.884-.918-1.547-2.108-1.547-1.207 0-2.023.51-2.023 1.309 0 .952.918 1.071 2.176 1.224 1.972.238 3.553.612 3.553 2.533 0 1.615-1.547 2.618-3.468 2.618-2.244 0-3.791-1.054-3.825-2.958zm13.21-5.916c2.396 0 4.164 1.615 4.164 4.437 0 2.652-1.768 4.437-4.165 4.437-1.462 0-2.448-.595-2.975-1.428V29.4h-1.394V17.33h1.207l.187 1.394c.578-.799 1.513-1.496 2.975-1.496zm-.137 7.633c1.717 0 2.873-1.309 2.873-3.196 0-1.887-1.156-3.196-2.873-3.196-1.7 0-2.856 1.309-2.856 3.162 0 1.904 1.156 3.23 2.856 3.23zm9.906-7.531h.391v1.36h-.697c-1.819 0-2.312 1.513-2.312 2.89V26h-1.394v-8.67h1.207l.187 1.309c.408-.663 1.071-1.309 2.618-1.309zm5.096 8.772c-2.6 0-4.3-1.785-4.3-4.437 0-2.635 1.665-4.437 4.113-4.437 2.448 0 4.046 1.547 4.114 4.114 0 .187-.017.391-.034.595h-6.732v.119c.051 1.649 1.088 2.805 2.737 2.805 1.224 0 2.176-.646 2.465-1.768h1.411c-.34 1.734-1.768 3.009-3.774 3.009zm-2.754-5.321h5.185c-.136-1.496-1.156-2.329-2.6-2.329-1.276 0-2.449.918-2.585 2.329zm15.939 3.944h.442V26h-.765c-1.156 0-1.547-.493-1.564-1.343-.544.782-1.411 1.445-2.907 1.445-1.904 0-3.196-.952-3.196-2.533 0-1.734 1.207-2.703 3.485-2.703h2.55v-.595c0-1.122-.799-1.802-2.159-1.802-1.224 0-2.04.578-2.21 1.462H91.11c.204-1.7 1.581-2.703 3.672-2.703 2.21 0 3.485 1.105 3.485 3.128v3.791c0 .459.17.578.561.578zm-1.955-2.261v-.425h-2.686c-1.241 0-1.938.459-1.938 1.445 0 .85.731 1.428 1.887 1.428 1.734 0 2.737-1.003 2.737-2.448zm10.203-3.808V14.1h1.394V26h-1.207l-.187-1.394c-.578.799-1.513 1.496-2.975 1.496-2.397 0-4.165-1.615-4.165-4.437 0-2.652 1.768-4.437 4.165-4.437 1.462 0 2.448.595 2.975 1.428zm-2.839 6.205c1.7 0 2.856-1.309 2.856-3.162 0-1.904-1.156-3.23-2.856-3.23-1.717 0-2.873 1.309-2.873 3.196 0 1.887 1.156 3.196 2.873 3.196zm14.95-7.633c2.397 0 4.165 1.615 4.165 4.437 0 2.652-1.768 4.437-4.165 4.437-1.462 0-2.448-.595-2.975-1.428L116.025 26h-1.207V14.1h1.394v4.624c.578-.799 1.513-1.496 2.975-1.496zm-.136 7.633c1.717 0 2.873-1.309 2.873-3.196 0-1.887-1.156-3.196-2.873-3.196-1.7 0-2.856 1.309-2.856 3.162 0 1.904 1.156 3.23 2.856 3.23zm9.889 1.241c-2.601 0-4.301-1.785-4.301-4.437 0-2.635 1.666-4.437 4.114-4.437s4.046 1.547 4.114 4.114c0 .187-.017.391-.034.595h-6.732v.119c.051 1.649 1.088 2.805 2.737 2.805 1.224 0 2.176-.646 2.465-1.768h1.411c-.34 1.734-1.768 3.009-3.774 3.009zm-2.754-5.321h5.185c-.136-1.496-1.156-2.329-2.601-2.329-1.275 0-2.448.918-2.584 2.329zm16.128 3.944h1.513V26h-1.598c-1.666 0-2.261-.731-2.261-2.261v-5.134h-3.57v5.117c0 .731.255 1.003.952 1.003h1.241V26h-1.326c-1.666 0-2.261-.731-2.261-2.261v-5.134h-1.564V17.33h1.564v-2.431h1.394v2.431h3.57v-2.431h1.394v2.431h2.193v1.275h-2.193v5.117c0 .731.255 1.003.952 1.003zm3.433-8.857a.876.876 0 01-.901-.901c0-.527.391-.901.901-.901s.901.374.901.901a.876.876 0 01-.901.901zM145.033 26v-8.67h1.394V26h-1.394zm7.554-8.772c1.955 0 3.502 1.071 3.502 3.944V26h-1.394v-4.743c0-1.802-.833-2.754-2.346-2.754-1.632 0-2.618 1.207-2.618 3.162V26h-1.394v-8.67h1.207l.187 1.173c.51-.663 1.394-1.275 2.856-1.275zm12.113 1.598l.187-1.496h1.207v8.245c0 2.499-1.326 3.927-4.301 3.927-2.21 0-3.757-1.037-3.978-2.941h1.428c.238 1.088 1.207 1.7 2.652 1.7 1.819 0 2.805-.85 2.805-2.737v-1.02c-.578.986-1.513 1.598-2.975 1.598-2.397 0-4.165-1.615-4.165-4.437 0-2.652 1.768-4.437 4.165-4.437 1.462 0 2.431.629 2.975 1.598zm-2.839 6.035c1.7 0 2.856-1.309 2.856-3.162 0-1.904-1.156-3.23-2.856-3.23-1.717 0-2.873 1.309-2.873 3.196 0 1.887 1.156 3.196 2.873 3.196z" fill="#000"/></svg>