<svg width="178" height="34" viewBox="0 0 178 34" fill="none" xmlns="http://www.w3.org/2000/svg"><path d="M.28 5.32V4.2h7.574v1.12H4.676V14H3.458V5.32H.28zm11.232 1.54h.322v1.12h-.574c-1.498 0-1.904 1.246-1.904 2.38V14H8.208V6.86h.994l.154 1.078c.336-.546.882-1.078 2.156-1.078zm7.385 6.09h.364V14h-.63c-.952 0-1.274-.406-1.288-1.106-.448.644-1.162 1.19-2.394 1.19-1.568 0-2.632-.784-2.632-2.086 0-1.428.994-2.226 2.87-2.226h2.1v-.49c0-.924-.658-1.484-1.778-1.484-1.008 0-1.68.476-1.82 1.204H12.54c.168-1.4 1.302-2.226 3.024-2.226 1.82 0 2.87.91 2.87 2.576v3.122c0 .378.14.476.462.476zm-1.61-1.862v-.35h-2.212c-1.022 0-1.596.378-1.596 1.19 0 .7.602 1.176 1.554 1.176 1.428 0 2.254-.826 2.254-2.016zm6.356-4.312c1.61 0 2.884.882 2.884 3.248V14H25.38v-3.906c0-1.484-.686-2.268-1.932-2.268-1.344 0-2.156.994-2.156 2.604V14h-1.148V6.86h.994l.154.966c.42-.546 1.148-1.05 2.352-1.05zm4.054 4.872h1.176c.042.84.784 1.456 1.974 1.456 1.008 0 1.722-.434 1.722-1.092 0-.896-.784-.966-1.848-1.092-1.596-.196-2.87-.518-2.87-2.002 0-1.302 1.19-2.156 2.8-2.142 1.624.014 2.8.77 2.912 2.254h-1.176c-.084-.728-.756-1.274-1.736-1.274-.994 0-1.666.42-1.666 1.078 0 .784.756.882 1.792 1.008 1.624.196 2.926.504 2.926 2.086 0 1.33-1.274 2.156-2.856 2.156-1.848 0-3.122-.868-3.15-2.436zm10.878-4.872c1.974 0 3.43 1.33 3.43 3.654 0 2.184-1.456 3.654-3.43 3.654-1.204 0-2.016-.49-2.45-1.176V16.8h-1.148V6.86h.994l.154 1.148c.476-.658 1.246-1.232 2.45-1.232zm-.112 6.286c1.414 0 2.366-1.078 2.366-2.632s-.952-2.632-2.366-2.632c-1.4 0-2.352 1.078-2.352 2.604 0 1.568.952 2.66 2.352 2.66zm11.168-.112h.364V14h-.63c-.952 0-1.274-.406-1.288-1.106-.448.644-1.162 1.19-2.394 1.19-1.568 0-2.632-.784-2.632-2.086 0-1.428.994-2.226 2.87-2.226h2.1v-.49c0-.924-.658-1.484-1.778-1.484-1.008 0-1.68.476-1.82 1.204h-1.148c.168-1.4 1.302-2.226 3.024-2.226 1.82 0 2.87.91 2.87 2.576v3.122c0 .378.14.476.462.476zm-1.61-1.862v-.35H45.81c-1.022 0-1.596.378-1.596 1.19 0 .7.602 1.176 1.554 1.176 1.428 0 2.254-.826 2.254-2.016zm6.16-4.228h.323v1.12h-.574c-1.498 0-1.904 1.246-1.904 2.38V14h-1.148V6.86h.994l.154 1.078c.336-.546.882-1.078 2.156-1.078zm4.198 7.224c-2.142 0-3.542-1.47-3.542-3.654 0-2.17 1.372-3.654 3.388-3.654s3.332 1.274 3.388 3.388c0 .154-.014.322-.028.49H56.04v.098c.042 1.358.896 2.31 2.254 2.31 1.008 0 1.792-.532 2.03-1.456h1.162c-.28 1.428-1.456 2.478-3.108 2.478zM56.11 9.702h4.27c-.112-1.232-.952-1.918-2.142-1.918-1.05 0-2.016.756-2.128 1.918zm10.312-2.926c1.61 0 2.884.882 2.884 3.248V14h-1.148v-3.906c0-1.484-.686-2.268-1.932-2.268-1.344 0-2.156.994-2.156 2.604V14h-1.148V6.86h.994l.154.966c.42-.546 1.148-1.05 2.352-1.05zm4.88 5.362V7.91h-1.289V6.86h1.288V4.858h1.148V6.86h1.848v1.05H72.45v4.214c0 .602.21.826.826.826h1.134V14h-1.246c-1.372 0-1.862-.602-1.862-1.862zm7.01-4.228V6.86h1.288v-.798c0-1.26.532-1.862 1.862-1.862h1.302v1.05h-1.232c-.574 0-.784.238-.784.784v.826h2.016v1.05H80.75V14h-1.148V7.91h-1.288zm8.243 6.174c-2.142 0-3.542-1.47-3.542-3.654 0-2.17 1.372-3.654 3.388-3.654s3.332 1.274 3.388 3.388c0 .154-.014.322-.028.49h-5.544v.098c.042 1.358.896 2.31 2.254 2.31 1.008 0 1.792-.532 2.03-1.456h1.162c-.28 1.428-1.456 2.478-3.108 2.478zm-2.268-4.382h4.27c-.112-1.232-.952-1.918-2.142-1.918-1.05 0-2.016.756-2.128 1.918zm10.102 4.382c-2.142 0-3.542-1.47-3.542-3.654 0-2.17 1.372-3.654 3.388-3.654s3.332 1.274 3.388 3.388c0 .154-.014.322-.028.49h-5.544v.098c.042 1.358.896 2.31 2.254 2.31 1.008 0 1.792-.532 2.03-1.456h1.162c-.28 1.428-1.456 2.478-3.108 2.478zm-2.268-4.382h4.27c-.112-1.232-.952-1.918-2.142-1.918-1.05 0-2.016.756-2.128 1.918zm6.491 1.946h1.176c.042.84.784 1.456 1.974 1.456 1.008 0 1.722-.434 1.722-1.092 0-.896-.784-.966-1.848-1.092-1.596-.196-2.87-.518-2.87-2.002 0-1.302 1.19-2.156 2.8-2.142 1.624.014 2.8.77 2.912 2.254h-1.176c-.084-.728-.756-1.274-1.736-1.274-.994 0-1.666.42-1.666 1.078 0 .784.756.882 1.792 1.008 1.624.196 2.926.504 2.926 2.086 0 1.33-1.274 2.156-2.856 2.156-1.848 0-3.122-.868-3.15-2.436zm17.258 1.302h.364V14h-.63c-.952 0-1.274-.406-1.288-1.106-.448.644-1.162 1.19-2.394 1.19-1.568 0-2.632-.784-2.632-2.086 0-1.428.994-2.226 2.87-2.226h2.1v-.49c0-.924-.658-1.484-1.778-1.484-1.008 0-1.68.476-1.82 1.204h-1.148c.168-1.4 1.302-2.226 3.024-2.226 1.82 0 2.87.91 2.87 2.576v3.122c0 .378.14.476.462.476zm-1.61-1.862v-.35h-2.212c-1.022 0-1.596.378-1.596 1.19 0 .7.602 1.176 1.554 1.176 1.428 0 2.254-.826 2.254-2.016zm6.357-4.312c1.61 0 2.884.882 2.884 3.248V14h-1.148v-3.906c0-1.484-.686-2.268-1.932-2.268-1.344 0-2.156.994-2.156 2.604V14h-1.148V6.86h.994l.154.966c.42-.546 1.148-1.05 2.352-1.05zm9.894 1.176V4.2h1.148V14h-.994l-.154-1.148c-.476.658-1.246 1.232-2.45 1.232-1.974 0-3.43-1.33-3.43-3.654 0-2.184 1.456-3.654 3.43-3.654 1.204 0 2.016.49 2.45 1.176zm-2.338 5.11c1.4 0 2.352-1.078 2.352-2.604 0-1.568-.952-2.66-2.352-2.66-1.414 0-2.366 1.078-2.366 2.632s.952 2.632 2.366 2.632zM6.412 24.952V21.2H7.56V31h-.994l-.154-1.148c-.476.658-1.246 1.232-2.45 1.232-1.974 0-3.43-1.33-3.43-3.654 0-2.184 1.456-3.654 3.43-3.654 1.204 0 2.016.49 2.45 1.176zm-2.338 5.11c1.4 0 2.352-1.078 2.352-2.604 0-1.568-.952-2.66-2.352-2.66-1.414 0-2.366 1.078-2.366 2.632s.952 2.632 2.366 2.632zm8.34 1.022c-2.142 0-3.542-1.47-3.542-3.654 0-2.17 1.372-3.654 3.388-3.654s3.332 1.274 3.388 3.388c0 .154-.014.322-.028.49h-5.544v.098c.042 1.358.896 2.31 2.254 2.31 1.008 0 1.792-.532 2.03-1.456h1.162c-.28 1.428-1.456 2.478-3.108 2.478zm-2.268-4.382h4.27c-.112-1.232-.952-1.918-2.142-1.918-1.05 0-2.016.756-2.128 1.918zm12.44-1.75V21.2h1.148V31h-.994l-.154-1.148c-.476.658-1.246 1.232-2.45 1.232-1.974 0-3.43-1.33-3.43-3.654 0-2.184 1.456-3.654 3.43-3.654 1.204 0 2.016.49 2.45 1.176zm-2.338 5.11c1.4 0 2.352-1.078 2.352-2.604 0-1.568-.952-2.66-2.352-2.66-1.414 0-2.366 1.078-2.366 2.632s.952 2.632 2.366 2.632zm5.638-7.406a.721.721 0 01-.742-.742c0-.434.322-.742.742-.742s.742.308.742.742a.721.721 0 01-.742.742zM25.298 31v-7.14h1.148V31h-1.148zm5.926.084c-2.086 0-3.458-1.414-3.458-3.64 0-2.184 1.414-3.668 3.486-3.668 1.75 0 2.856.98 3.15 2.548h-1.204c-.21-.952-.91-1.526-1.96-1.526-1.372 0-2.296 1.092-2.296 2.646 0 1.554.924 2.618 2.296 2.618 1.022 0 1.722-.588 1.946-1.498h1.218c-.28 1.54-1.442 2.52-3.178 2.52zm10.751-1.134h.364V31h-.63c-.952 0-1.274-.406-1.288-1.106-.448.644-1.162 1.19-2.394 1.19-1.568 0-2.632-.784-2.632-2.086 0-1.428.994-2.226 2.87-2.226h2.1v-.49c0-.924-.658-1.484-1.778-1.484-1.008 0-1.68.476-1.82 1.204h-1.148c.168-1.4 1.302-2.226 3.024-2.226 1.82 0 2.87.91 2.87 2.576v3.122c0 .378.14.476.462.476zm-1.61-1.862v-.35h-2.212c-1.022 0-1.596.378-1.596 1.19 0 .7.602 1.176 1.554 1.176 1.428 0 2.254-.826 2.254-2.016zm3.389 1.05V24.91h-1.288v-1.05h1.288v-2.002h1.148v2.002h1.847v1.05h-1.848v4.214c0 .602.21.826.826.826h1.135V31h-1.247c-1.372 0-1.861-.602-1.861-1.862zm7.215 1.946c-2.142 0-3.543-1.47-3.543-3.654 0-2.17 1.372-3.654 3.389-3.654 2.016 0 3.332 1.274 3.388 3.388 0 .154-.015.322-.029.49H48.63v.098c.042 1.358.896 2.31 2.255 2.31 1.008 0 1.791-.532 2.03-1.456h1.162c-.28 1.428-1.456 2.478-3.108 2.478zM48.7 26.702h4.27c-.111-1.232-.951-1.918-2.142-1.918-1.05 0-2.016.756-2.128 1.918zm12.44-1.75V21.2h1.148V31h-.993l-.154-1.148c-.477.658-1.246 1.232-2.45 1.232-1.974 0-3.43-1.33-3.43-3.654 0-2.184 1.456-3.654 3.43-3.654 1.203 0 2.015.49 2.45 1.176zm-2.337 5.11c1.4 0 2.352-1.078 2.352-2.604 0-1.568-.953-2.66-2.352-2.66-1.414 0-2.366 1.078-2.366 2.632s.952 2.632 2.366 2.632zm8.42-1.414h1.175c.042.84.784 1.456 1.974 1.456 1.008 0 1.722-.434 1.722-1.092 0-.896-.784-.966-1.848-1.092-1.596-.196-2.87-.518-2.87-2.002 0-1.302 1.19-2.156 2.8-2.142 1.624.014 2.8.77 2.912 2.254h-1.176c-.084-.728-.756-1.274-1.736-1.274-.994 0-1.666.42-1.666 1.078 0 .784.756.882 1.792 1.008 1.624.196 2.926.504 2.926 2.086 0 1.33-1.274 2.156-2.856 2.156-1.848 0-3.122-.868-3.15-2.436zM79.5 27.43v-3.57h1.148V31h-.994l-.154-.952c-.42.532-1.106 1.036-2.282 1.036-1.568 0-2.814-.882-2.814-3.248V23.86h1.148v3.906c0 1.484.672 2.268 1.862 2.268 1.302 0 2.086-.994 2.086-2.604zm6.31-3.654c1.975 0 3.43 1.33 3.43 3.654 0 2.184-1.455 3.654-3.43 3.654-1.203 0-2.015-.49-2.45-1.176V33.8h-1.147v-9.94h.994l.154 1.148c.476-.658 1.246-1.232 2.45-1.232zm-.111 6.286c1.414 0 2.366-1.078 2.366-2.632s-.952-2.632-2.366-2.632c-1.4 0-2.352 1.078-2.352 2.604 0 1.568.952 2.66 2.352 2.66zm8.451-6.286c1.975 0 3.43 1.33 3.43 3.654 0 2.184-1.456 3.654-3.43 3.654-1.203 0-2.016-.49-2.45-1.176V33.8h-1.147v-9.94h.993l.154 1.148c.477-.658 1.247-1.232 2.45-1.232zm-.111 6.286c1.413 0 2.365-1.078 2.365-2.632s-.951-2.632-2.365-2.632c-1.4 0-2.353 1.078-2.353 2.604 0 1.568.953 2.66 2.353 2.66zm8.143 1.022c-2.086 0-3.542-1.484-3.542-3.654s1.456-3.654 3.542-3.654 3.542 1.484 3.542 3.654-1.456 3.654-3.542 3.654zm0-1.022c1.414 0 2.366-1.106 2.366-2.632s-.952-2.632-2.366-2.632c-1.414 0-2.366 1.106-2.366 2.632s.952 2.632 2.366 2.632zm8.163-6.202h.322v1.12h-.574c-1.498 0-1.904 1.246-1.904 2.38V31h-1.148v-7.14h.994l.154 1.078c.336-.546.882-1.078 2.156-1.078zm2.081 5.278V24.91h-1.288v-1.05h1.288v-2.002h1.148v2.002h1.848v1.05h-1.848v4.214c0 .602.21.826.826.826h1.134V31h-1.246c-1.372 0-1.862-.602-1.862-1.862z" fill="#fff"/></svg>