<svg width="391" height="63" viewBox="0 0 391 63" fill="none" xmlns="http://www.w3.org/2000/svg"><path d="M6.04 17H1.28V3h4.76c4.38 0 7.14 2.82 7.14 6.98S10.42 17 6.04 17zM3.58 5v10h2.46c3.08 0 4.78-2.02 4.78-5.02 0-3-1.7-4.98-4.78-4.98H3.58zm12.506.32c-.74 0-1.32-.54-1.32-1.3s.58-1.3 1.32-1.3c.74 0 1.32.54 1.32 1.3s-.58 1.3-1.32 1.3zM14.986 17V6.76h2.16V17h-2.16zm3.837-3.38h2.12c.08 1.06 1 1.82 2.56 1.82 1.34 0 2.22-.52 2.22-1.34 0-1.1-.94-1.18-2.52-1.38-2.34-.28-4.18-.78-4.18-2.9 0-1.94 1.74-3.2 4.2-3.18 2.52 0 4.3 1.16 4.44 3.26h-2.12c-.12-.94-1-1.6-2.28-1.6-1.28 0-2.12.52-2.12 1.34 0 .96.98 1.08 2.46 1.24 2.34.28 4.24.76 4.24 3.04 0 1.96-1.86 3.2-4.34 3.2-2.74 0-4.62-1.28-4.68-3.5zm15.394 3.5c-3.1 0-5.08-2.02-5.08-5.22 0-3.16 2.04-5.26 5.14-5.26 2.64 0 4.28 1.46 4.7 3.78h-2.26c-.28-1.2-1.14-1.94-2.48-1.94-1.74 0-2.88 1.4-2.88 3.42 0 2 1.14 3.38 2.88 3.38 1.32 0 2.2-.76 2.46-1.94h2.28c-.4 2.32-2.14 3.78-4.76 3.78zm11.253 0c-3.12 0-5.22-2.1-5.22-5.24 0-3.12 2.1-5.24 5.22-5.24 3.12 0 5.22 2.12 5.22 5.24 0 3.14-2.1 5.24-5.22 5.24zm0-1.84c1.82 0 3.02-1.42 3.02-3.4s-1.2-3.4-3.02-3.4-3 1.42-3 3.4 1.18 3.4 3 3.4zM54.718 17l-3.78-10.24h2.32l2.82 7.92 2.78-7.92h2.28L57.358 17h-2.64zm11.905.12c-3.22 0-5.24-2.08-5.24-5.22 0-3.16 2.02-5.26 5.04-5.26 2.96 0 4.94 1.88 5 4.88 0 .26-.02.54-.06.82h-7.72v.14c.06 1.74 1.16 2.88 2.86 2.88 1.32 0 2.28-.66 2.58-1.8h2.16c-.36 2.02-2.08 3.56-4.62 3.56zm-2.9-6.36h5.46c-.18-1.52-1.24-2.38-2.74-2.38-1.38 0-2.56.92-2.72 2.38zm14.626-4h.48v2.02h-.96c-1.92 0-2.54 1.5-2.54 3.08V17h-2.16V6.76h1.92l.24 1.54c.52-.86 1.34-1.54 3.02-1.54zm7.67 7.46V8.66h-1.78v-1.9h1.78V3.9h2.18v2.86h2.5v1.9h-2.5V14c0 .8.28 1.1 1.1 1.1h1.52V17h-2c-1.96 0-2.8-.92-2.8-2.78zm15.417.9h.44V17h-1.14c-1.4 0-1.88-.62-1.88-1.64-.68 1.04-1.72 1.76-3.38 1.76-2.24 0-3.8-1.1-3.8-3 0-2.1 1.52-3.28 4.38-3.28h2.58v-.62c0-1.14-.82-1.84-2.24-1.84-1.28 0-2.14.6-2.3 1.5h-2.12c.22-2 1.94-3.24 4.52-3.24 2.72 0 4.28 1.3 4.28 3.72v4.1c0 .52.22.66.66.66zm-2.8-2.32v-.36h-2.68c-1.34 0-2.08.5-2.08 1.54 0 .86.72 1.46 1.9 1.46 1.8 0 2.84-1.06 2.86-2.64zm3.356 4.2l3.84-5.24-3.62-5h2.52l2.44 3.46 2.5-3.46h2.38l-3.64 5 3.86 5.24h-2.52l-2.68-3.72-2.7 3.72h-2.38zm17.096-4.8h-6.8v-1.78h6.8v1.78zm.717-3.54v-1.9h1.78V5.8c0-1.84.88-2.8 2.86-2.8h2.06v1.9h-1.78c-.7 0-1 .3-1 1v.86h2.78v1.9h-2.74V17h-2.18V8.66h-1.78zm12.998-1.9h.48v2.02h-.96c-1.92 0-2.54 1.5-2.54 3.08V17h-2.16V6.76h1.92l.24 1.54c.52-.86 1.34-1.54 3.02-1.54zm6.183 10.36c-3.22 0-5.24-2.08-5.24-5.22 0-3.16 2.02-5.26 5.04-5.26 2.96 0 4.94 1.88 5 4.88 0 .26-.02.54-.06.82h-7.72v.14c.06 1.74 1.16 2.88 2.86 2.88 1.32 0 2.28-.66 2.58-1.8h2.16c-.36 2.02-2.08 3.56-4.62 3.56zm-2.9-6.36h5.46c-.18-1.52-1.24-2.38-2.74-2.38-1.38 0-2.56.92-2.72 2.38zm14.307 6.36c-3.22 0-5.24-2.08-5.24-5.22 0-3.16 2.02-5.26 5.04-5.26 2.96 0 4.94 1.88 5 4.88 0 .26-.02.54-.06.82h-7.72v.14c.06 1.74 1.16 2.88 2.86 2.88 1.32 0 2.28-.66 2.58-1.8h2.16c-.36 2.02-2.08 3.56-4.62 3.56zm-2.9-6.36h5.46c-.18-1.52-1.24-2.38-2.74-2.38-1.38 0-2.56.92-2.72 2.38zm14.55-6.38l.6 1.42-2.38.88 1.64 1.86-1.16 1-1.6-2.1-1.58 2.08-1.14-1 1.64-1.86-2.36-.88.6-1.4 2.18 1.04-.06-2.44h1.48l-.06 2.46 2.2-1.06zm7.151 9.24h2.12c.08 1.06 1 1.82 2.56 1.82 1.34 0 2.22-.52 2.22-1.34 0-1.1-.94-1.18-2.52-1.38-2.34-.28-4.18-.78-4.18-2.9 0-1.94 1.74-3.2 4.2-3.18 2.52 0 4.3 1.16 4.44 3.26h-2.12c-.12-.94-1-1.6-2.28-1.6-1.28 0-2.12.52-2.12 1.34 0 .96.98 1.08 2.46 1.24 2.34.28 4.24.76 4.24 3.04 0 1.96-1.86 3.2-4.34 3.2-2.74 0-4.62-1.28-4.68-3.5zm16.174-6.98c2.8 0 4.84 1.96 4.84 5.24 0 3.16-2.04 5.24-4.84 5.24-1.58 0-2.68-.64-3.32-1.56V21h-2.16V6.76h1.88l.26 1.52c.68-.9 1.74-1.64 3.34-1.64zm-.36 8.66c1.8 0 3-1.42 3-3.42 0-2.02-1.2-3.4-3-3.4s-2.98 1.38-2.98 3.36c0 2.04 1.18 3.46 2.98 3.46zm12.111-8.54h.48v2.02h-.96c-1.92 0-2.54 1.5-2.54 3.08V17h-2.16V6.76h1.92l.24 1.54c.52-.86 1.34-1.54 3.02-1.54zm6.184 10.36c-3.22 0-5.24-2.08-5.24-5.22 0-3.16 2.02-5.26 5.04-5.26 2.96 0 4.94 1.88 5 4.88 0 .26-.02.54-.06.82h-7.72v.14c.06 1.74 1.16 2.88 2.86 2.88 1.32 0 2.28-.66 2.58-1.8h2.16c-.36 2.02-2.08 3.56-4.62 3.56zm-2.9-6.36h5.46c-.18-1.52-1.24-2.38-2.74-2.38-1.38 0-2.56.92-2.72 2.38zm18.806 4.36h.44V17h-1.14c-1.4 0-1.88-.62-1.88-1.64-.68 1.04-1.72 1.76-3.38 1.76-2.24 0-3.8-1.1-3.8-3 0-2.1 1.52-3.28 4.38-3.28h2.58v-.62c0-1.14-.82-1.84-2.24-1.84-1.28 0-2.14.6-2.3 1.5h-2.12c.22-2 1.94-3.24 4.52-3.24 2.72 0 4.28 1.3 4.28 3.72v4.1c0 .52.22.66.66.66zm-2.8-2.32v-.36h-2.68c-1.34 0-2.08.5-2.08 1.54 0 .86.72 1.46 1.9 1.46 1.8 0 2.84-1.06 2.86-2.64zm12.119-4.62V3h2.16v14h-1.88l-.26-1.54c-.66.9-1.72 1.66-3.34 1.66-2.78 0-4.84-1.96-4.84-5.24 0-3.16 2.06-5.24 4.84-5.24 1.56 0 2.66.64 3.32 1.54zm-2.961 7.12c1.801 0 2.981-1.4 2.981-3.38 0-2.04-1.18-3.44-2.981-3.44-1.799 0-2.979 1.4-2.979 3.4 0 2.02 1.18 3.42 2.979 3.42zm17.828-8.66c2.8 0 4.84 1.94 4.84 5.24 0 3.14-2.04 5.24-4.84 5.24-1.6 0-2.7-.68-3.34-1.6l-.26 1.48h-1.88V3h2.16v5.28c.68-.92 1.74-1.64 3.32-1.64zm-.36 8.66c1.8 0 3-1.4 3-3.42 0-2-1.2-3.4-3-3.4s-2.98 1.4-2.98 3.38c0 2.02 1.18 3.44 2.98 3.44zm11.791 1.82c-3.22 0-5.24-2.08-5.24-5.22 0-3.16 2.02-5.26 5.04-5.26 2.96 0 4.94 1.88 5 4.88 0 .26-.02.54-.06.82h-7.72v.14c.06 1.74 1.16 2.88 2.86 2.88 1.32 0 2.28-.66 2.58-1.8h2.16c-.36 2.02-2.08 3.56-4.62 3.56zm-2.9-6.36h5.46c-.18-1.52-1.24-2.38-2.74-2.38-1.38 0-2.56.92-2.72 2.38zm19.448 4.34h1.64V17h-2.08c-1.96 0-2.78-.92-2.78-2.78V8.66h-3.94V14c0 .8.28 1.1 1.06 1.1h1.34V17h-1.78c-1.96 0-2.8-.92-2.8-2.78V8.66h-1.78v-1.9h1.78V3.9h2.18v2.86h3.94V3.9h2.16v2.86h2.48v1.9h-2.48V14c0 .8.3 1.1 1.06 1.1zm4.126-9.78c-.74 0-1.32-.54-1.32-1.3s.58-1.3 1.32-1.3c.74 0 1.32.54 1.32 1.3s-.58 1.3-1.32 1.3zM274.4 17V6.76h2.16V17h-2.16zm9.677-10.36c2.26 0 4.12 1.24 4.12 4.66V17h-2.18v-5.52c0-1.94-.82-2.98-2.44-2.98-1.72 0-2.74 1.26-2.74 3.34V17h-2.16V6.76h1.88l.24 1.34c.64-.8 1.62-1.46 3.28-1.46zm13.905 1.72l.24-1.6h1.88v9.82c0 2.78-1.56 4.54-5.24 4.54-2.72 0-4.62-1.26-4.82-3.56h2.2c.26 1.14 1.26 1.8 2.78 1.8 1.88 0 2.94-.9 2.94-2.86v-1.14c-.68 1.02-1.74 1.68-3.34 1.68-2.78 0-4.84-1.94-4.84-5.2 0-3.14 2.06-5.2 4.84-5.2 1.6 0 2.7.7 3.36 1.72zm-3 6.86c1.8 0 2.98-1.38 2.98-3.34 0-2.02-1.18-3.42-2.98-3.42s-2.98 1.4-2.98 3.38c0 2 1.18 3.38 2.98 3.38zM.2 26.8V26h5.41v.8H3.34V33h-.87v-6.2H.2zm9.938 5.45h.26V33h-.45c-.68 0-.91-.29-.92-.79-.32.46-.83.85-1.71.85-1.12 0-1.88-.56-1.88-1.49 0-1.02.71-1.59 2.05-1.59h1.5v-.35c0-.66-.47-1.06-1.27-1.06-.72 0-1.2.34-1.3.86h-.82c.12-1 .93-1.59 2.16-1.59 1.3 0 2.05.65 2.05 1.84v2.23c0 .27.1.34.33.34zm-1.15-1.33v-.25h-1.58c-.73 0-1.14.27-1.14.85 0 .5.43.84 1.11.84 1.02 0 1.61-.59 1.61-1.44zm2.04 2.08v-7h.82v4.61l2.56-2.71h1.01l-1.99 2.11 2.13 2.99h-.99l-1.69-2.4-1.03 1.06V33h-.82zm7.165.06c-1.53 0-2.53-1.05-2.53-2.61 0-1.55.98-2.61 2.42-2.61s2.38.91 2.42 2.42c0 .11-.01.23-.02.35h-3.96v.07c.03.97.64 1.65 1.61 1.65.72 0 1.28-.38 1.45-1.04h.83c-.2 1.02-1.04 1.77-2.22 1.77zm-1.62-3.13h3.05c-.08-.88-.68-1.37-1.53-1.37-.75 0-1.44.54-1.52 1.37zm11.993 2.32h.26V33h-.45c-.68 0-.91-.29-.92-.79-.32.46-.83.85-1.71.85-1.12 0-1.88-.56-1.88-1.49 0-1.02.71-1.59 2.05-1.59h1.5v-.35c0-.66-.47-1.06-1.27-1.06-.72 0-1.2.34-1.3.86h-.82c.12-1 .93-1.59 2.16-1.59 1.3 0 2.05.65 2.05 1.84v2.23c0 .27.1.34.33.34zm-1.15-1.33v-.25h-1.58c-.73 0-1.14.27-1.14.85 0 .5.43.84 1.11.84 1.02 0 1.61-.59 1.61-1.44zm7.228-3.08c1.41 0 2.45.95 2.45 2.61 0 1.56-1.04 2.61-2.45 2.61-.86 0-1.44-.35-1.75-.84V35h-.82v-7.1h.71l.11.82c.34-.47.89-.88 1.75-.88zm-.08 4.49c1.01 0 1.69-.77 1.69-1.88 0-1.11-.68-1.88-1.69-1.88-1 0-1.68.77-1.68 1.86 0 1.12.68 1.9 1.68 1.9zm5.817.73c-1.49 0-2.53-1.06-2.53-2.61 0-1.55 1.04-2.61 2.53-2.61 1.49 0 2.53 1.06 2.53 2.61 0 1.55-1.04 2.61-2.53 2.61zm0-.73c1.01 0 1.69-.79 1.69-1.88 0-1.09-.68-1.88-1.69-1.88-1.01 0-1.69.79-1.69 1.88 0 1.09.68 1.88 1.69 1.88zm3.24-1.01h.84c.03.6.56 1.04 1.41 1.04.72 0 1.23-.31 1.23-.78 0-.64-.56-.69-1.32-.78-1.14-.14-2.05-.37-2.05-1.43 0-.93.85-1.54 2-1.53 1.16.01 2 .55 2.08 1.61h-.84c-.06-.52-.54-.91-1.24-.91-.71 0-1.19.3-1.19.77 0 .56.54.63 1.28.72 1.16.14 2.09.36 2.09 1.49 0 .95-.91 1.54-2.04 1.54-1.32 0-2.23-.62-2.25-1.74zm5.62-4.28c-.3 0-.53-.22-.53-.53 0-.31.23-.53.53-.53.3 0 .53.22.53.53 0 .31-.23.53-.53.53zm-.42 5.96v-5.1h.82V33h-.82zm2.324-1.33v-3.02h-.92v-.75h.92v-1.43h.82v1.43h1.32v.75h-1.32v3.01c0 .43.15.59.59.59h.81V33h-.89c-.98 0-1.33-.43-1.33-1.33zm3.35-4.63c-.3 0-.53-.22-.53-.53 0-.31.23-.53.53-.53.3 0 .53.22.53.53 0 .31-.23.53-.53.53zm-.42 5.96v-5.1h.82V33h-.82zm4.294.06c-1.49 0-2.53-1.06-2.53-2.61 0-1.55 1.04-2.61 2.53-2.61 1.49 0 2.53 1.06 2.53 2.61 0 1.55-1.04 2.61-2.53 2.61zm0-.73c1.01 0 1.69-.79 1.69-1.88 0-1.09-.68-1.88-1.69-1.88-1.01 0-1.69.79-1.69 1.88 0 1.09.68 1.88 1.69 1.88zm5.97-4.49c1.15 0 2.06.63 2.06 2.32V33h-.82v-2.79c0-1.06-.49-1.62-1.38-1.62-.96 0-1.54.71-1.54 1.86V33h-.82v-5.1h.71l.11.69c.3-.39.82-.75 1.68-.75zm8.073 5.22c-1.49 0-2.53-1.06-2.53-2.61 0-1.55 1.04-2.61 2.53-2.61 1.49 0 2.53 1.06 2.53 2.61 0 1.55-1.04 2.61-2.53 2.61zm0-.73c1.01 0 1.69-.79 1.69-1.88 0-1.09-.68-1.88-1.69-1.88-1.01 0-1.69.79-1.69 1.88 0 1.09.68 1.88 1.69 1.88zm5.97-4.49c1.15 0 2.06.63 2.06 2.32V33h-.82v-2.79c0-1.06-.49-1.62-1.38-1.62-.96 0-1.54.71-1.54 1.86V33h-.82v-5.1h.71l.11.69c.3-.39.82-.75 1.68-.75zm5.363-1.04V26h5.41v.8h-2.27V33h-.87v-6.2h-2.27zm7.622 6.26c-1.53 0-2.53-1.05-2.53-2.61 0-1.55.98-2.61 2.42-2.61s2.38.91 2.42 2.42c0 .11-.01.23-.02.35h-3.96v.07c.03.97.64 1.65 1.61 1.65.72 0 1.28-.38 1.45-1.04h.83c-.2 1.02-1.04 1.77-2.22 1.77zm-1.62-3.13h3.05c-.08-.88-.68-1.37-1.53-1.37-.75 0-1.44.54-1.52 1.37zm4.636 1.39h.84c.03.6.56 1.04 1.41 1.04.72 0 1.23-.31 1.23-.78 0-.64-.56-.69-1.32-.78-1.14-.14-2.05-.37-2.05-1.43 0-.93.85-1.54 2-1.53 1.16.01 2 .55 2.08 1.61h-.84c-.06-.52-.54-.91-1.24-.91-.71 0-1.19.3-1.19.77 0 .56.54.63 1.28.72 1.16.14 2.09.36 2.09 1.49 0 .95-.91 1.54-2.04 1.54-1.32 0-2.23-.62-2.25-1.74zm5.2 1.68v-7h.82v7h-.82zm6.454-.75h.26V33h-.45c-.68 0-.91-.29-.92-.79-.32.46-.83.85-1.71.85-1.12 0-1.88-.56-1.88-1.49 0-1.02.71-1.59 2.05-1.59h1.5v-.35c0-.66-.47-1.06-1.27-1.06-.72 0-1.2.34-1.3.86h-.82c.12-1 .93-1.59 2.16-1.59 1.3 0 2.05.65 2.05 1.84v2.23c0 .27.1.34.33.34zm-1.15-1.33v-.25h-1.58c-.73 0-1.14.27-1.14.85 0 .5.43.84 1.11.84 1.02 0 1.61-.59 1.61-1.44zm2.41 1.03c.49 0 .79.47.79 1.02 0 .85-.53 1.36-1.41 1.38v-.47c.64-.01.84-.46.84-.8 0-.05 0-.09-.01-.13-.08.08-.22.12-.34.12-.3 0-.53-.18-.53-.54 0-.33.24-.58.66-.58zm5.278 1.05h-.85v-7h.8l3.76 5.4V26h.85v7h-.8l-3.76-5.4V33zm7.198 0l-1.91-5.1h.88l1.54 4.17 1.53-4.17h.86l-1.91 5.1h-.99zm3.932-5.96c-.3 0-.53-.22-.53-.53 0-.31.23-.53.53-.53.3 0 .53.22.53.53 0 .31-.23.53-.53.53zm-.42 5.96v-5.1h.82V33h-.82zm5.963-4.32V26h.82v7h-.71l-.11-.82c-.34.47-.89.88-1.75.88-1.41 0-2.45-.95-2.45-2.61 0-1.56 1.04-2.61 2.45-2.61.86 0 1.44.35 1.75.84zm-1.67 3.65c1 0 1.68-.77 1.68-1.86 0-1.12-.68-1.9-1.68-1.9-1.01 0-1.69.77-1.69 1.88 0 1.11.68 1.88 1.69 1.88zm4.027-5.29c-.3 0-.53-.22-.53-.53 0-.31.23-.53.53-.53.3 0 .53.22.53.53 0 .31-.23.53-.53.53zm-.42 5.96v-5.1h.82V33h-.82zm6.453-.75h.26V33h-.45c-.68 0-.91-.29-.92-.79-.32.46-.83.85-1.71.85-1.12 0-1.88-.56-1.88-1.49 0-1.02.71-1.59 2.05-1.59h1.5v-.35c0-.66-.47-1.06-1.27-1.06-.72 0-1.2.34-1.3.86h-.82c.12-1 .93-1.59 2.16-1.59 1.3 0 2.05.65 2.05 1.84v2.23c0 .27.1.34.33.34zm-1.15-1.33v-.25h-1.58c-.73 0-1.14.27-1.14.85 0 .5.43.84 1.11.84 1.02 0 1.61-.59 1.61-1.44zm10.348 1.35h.66V33h-.76c-.43 0-.8-.08-1.06-.38l-.4-.45c-.57.59-1.22.89-1.97.89-1.23 0-2.2-.63-2.2-1.82 0-.73.41-1.51 1.57-2-.51-.62-.69-1.02-.69-1.62 0-.96.85-1.68 1.97-1.68.95 0 1.65.66 1.65 1.53 0 .77-.42 1.46-1.7 1.96l1.4 1.56 1.18-1.77h.87l-1.55 2.33.39.44c.2.23.38.28.64.28zm-2.94-5.64c-.64 0-1.06.4-1.06.96 0 .5.17.8.63 1.34.9-.36 1.31-.85 1.31-1.44 0-.5-.35-.86-.88-.86zm-.57 5.7c.56 0 1.04-.24 1.47-.7l-1.63-1.82c-.02-.02-.04-.05-.07-.07-.85.41-1.15.79-1.15 1.42 0 .74.57 1.17 1.38 1.17zm11.399-2.95c.78.18 1.4.78 1.4 1.74 0 1.13-.97 1.94-2.55 1.94-1.58 0-2.55-.81-2.55-1.94 0-.95.61-1.56 1.4-1.74-.67-.15-1.2-.74-1.2-1.58 0-1.1.92-1.86 2.35-1.86 1.43 0 2.35.76 2.35 1.86 0 .8-.52 1.43-1.2 1.58zm-2.64-1.58c0 .69.59 1.15 1.49 1.15s1.49-.46 1.49-1.15c0-.68-.59-1.14-1.49-1.14s-1.49.46-1.49 1.14zm1.49 4.54c1 0 1.69-.53 1.69-1.28 0-.74-.69-1.27-1.69-1.27s-1.69.53-1.69 1.27c0 .75.7 1.28 1.69 1.28zm3.664-.39c.49 0 .79.47.79 1.02 0 .85-.53 1.36-1.41 1.38v-.47c.64-.01.84-.46.84-.8 0-.05 0-.09-.01-.13-.08.08-.22.12-.34.12-.3 0-.53-.18-.53-.54 0-.33.24-.58.66-.58zm3.819-3.64c1.37 0 2.32.96 2.32 2.35 0 1.55-1.14 2.39-2.45 2.39-1.56 0-2.46-1.01-2.53-2.23h.83c.08.81.69 1.48 1.7 1.48.82 0 1.59-.55 1.59-1.63 0-.95-.61-1.62-1.58-1.62-.43 0-1.29.12-1.59.95l-.81-.02.23-3.98h4.19v.77h-3.42l-.16 2.21c.43-.51 1.03-.67 1.68-.67zm3.063 1.35v-.32c0-1.99 1.08-3.4 2.66-3.4 1.57 0 2.65 1.41 2.65 3.4v.32c0 2.09-1.08 3.4-2.65 3.4-1.58 0-2.66-1.31-2.66-3.4zm4.46-.03v-.26c0-1.66-.72-2.66-1.8-2.66-1.09 0-1.81 1-1.81 2.66v.26c0 1.66.72 2.66 1.81 2.66 1.08 0 1.8-1 1.8-2.66zm1.712.03v-.32c0-1.99 1.08-3.4 2.66-3.4 1.57 0 2.65 1.41 2.65 3.4v.32c0 2.09-1.08 3.4-2.65 3.4-1.58 0-2.66-1.31-2.66-3.4zm4.46-.03v-.26c0-1.66-.72-2.66-1.8-2.66-1.09 0-1.81 1-1.81 2.66v.26c0 1.66.72 2.66 1.81 2.66 1.08 0 1.8-1 1.8-2.66zm3.522.16v-1.75h.75v1.75h1.67v.69h-1.67v1.76h-.75v-1.76h-1.66v-.69h1.66zm8.531 3.27c-1.49 0-2.53-1.06-2.53-2.61 0-1.55 1.04-2.61 2.53-2.61 1.49 0 2.53 1.06 2.53 2.61 0 1.55-1.04 2.61-2.53 2.61zm0-.73c1.01 0 1.69-.79 1.69-1.88 0-1.09-.68-1.88-1.69-1.88-1.01 0-1.69.79-1.69 1.88 0 1.09.68 1.88 1.69 1.88zm3.792-.66v-3.02h-.92v-.75h.92v-1.43h.82v1.43h1.32v.75h-1.32v3.01c0 .43.15.59.59.59h.81V33h-.89c-.98 0-1.33-.43-1.33-1.33zm5.431-3.83c1.14 0 2.07.63 2.07 2.32V33h-.82v-2.79c0-1.06-.51-1.62-1.39-1.62-.95 0-1.54.71-1.54 1.86V33h-.82v-7h.82v2.74c.3-.48.82-.9 1.68-.9zm5.406 5.22c-1.53 0-2.53-1.05-2.53-2.61 0-1.55.98-2.61 2.42-2.61s2.38.91 2.42 2.42c0 .11-.01.23-.02.35h-3.96v.07c.03.97.64 1.65 1.61 1.65.72 0 1.28-.38 1.45-1.04h.83c-.2 1.02-1.04 1.77-2.22 1.77zm-1.62-3.13h3.05c-.08-.88-.68-1.37-1.53-1.37-.75 0-1.44.54-1.52 1.37zm7.226-2.03h.23v.8h-.41c-1.07 0-1.36.89-1.36 1.7V33h-.82v-5.1h.71l.11.77c.24-.39.63-.77 1.54-.77zm9.248-.06c1.06 0 1.93.61 1.93 2.22V33h-.82v-2.89c0-1-.44-1.52-1.21-1.52-.85 0-1.37.64-1.37 1.68V33h-.82v-2.89c0-1-.45-1.52-1.23-1.52-.84 0-1.35.7-1.35 1.72V33h-.82v-5.1h.71l.11.7c.27-.37.7-.76 1.49-.76.71 0 1.32.32 1.61.97.31-.55.86-.97 1.77-.97zm7.492 4.41h.26V33h-.45c-.68 0-.91-.29-.92-.79-.32.46-.83.85-1.71.85-1.12 0-1.88-.56-1.88-1.49 0-1.02.71-1.59 2.05-1.59h1.5v-.35c0-.66-.47-1.06-1.27-1.06-.72 0-1.2.34-1.3.86h-.82c.12-1 .93-1.59 2.16-1.59 1.3 0 2.05.65 2.05 1.84v2.23c0 .27.1.34.33.34zm-1.15-1.33v-.25h-1.58c-.73 0-1.14.27-1.14.85 0 .5.43.84 1.11.84 1.02 0 1.61-.59 1.61-1.44zm4.4-3.02h.23v.8h-.41c-1.07 0-1.36.89-1.36 1.7V33h-.82v-5.1h.71l.11.77c.24-.39.63-.77 1.54-.77zm.941 5.1v-7h.82v4.61l2.56-2.71h1.01l-1.99 2.11 2.13 2.99h-.99l-1.69-2.4-1.03 1.06V33h-.82zm7.165.06c-1.53 0-2.53-1.05-2.53-2.61 0-1.55.98-2.61 2.42-2.61s2.38.91 2.42 2.42c0 .11-.01.23-.02.35h-3.96v.07c.03.97.64 1.65 1.61 1.65.72 0 1.28-.38 1.45-1.04h.83c-.2 1.02-1.04 1.77-2.22 1.77zm-1.62-3.13h3.05c-.08-.88-.68-1.37-1.53-1.37-.75 0-1.44.54-1.52 1.37zm5.187 1.74v-3.02h-.92v-.75h.92v-1.43h.82v1.43h1.32v.75h-1.32v3.01c0 .43.15.59.59.59h.81V33h-.89c-.98 0-1.33-.43-1.33-1.33zm2.72-.35h.84c.03.6.56 1.04 1.41 1.04.72 0 1.23-.31 1.23-.78 0-.64-.56-.69-1.32-.78-1.14-.14-2.05-.37-2.05-1.43 0-.93.85-1.54 2-1.53 1.16.01 2 .55 2.08 1.61h-.84c-.06-.52-.54-.91-1.24-.91-.71 0-1.19.3-1.19.77 0 .56.54.63 1.28.72 1.16.14 2.09.36 2.09 1.49 0 .95-.91 1.54-2.04 1.54-1.32 0-2.23-.62-2.25-1.74z" fill="#fff"/><rect y="40.5" width="117" height="21" rx="10.5" fill="url(#paint0_linear_3524_546)"/><path d="M14.4 52.21h.9c.07.94.8 1.56 1.87 1.56.94 0 1.61-.43 1.61-1.19 0-.87-.86-1.05-1.92-1.23-1.13-.19-2.29-.56-2.29-1.92 0-1.19.97-1.99 2.39-1.99 1.56 0 2.52.87 2.6 2.13h-.9c-.1-.81-.75-1.34-1.7-1.34-.91 0-1.52.4-1.52 1.15 0 .84.85 1.01 1.9 1.19 1.14.19 2.31.57 2.31 1.93 0 1.21-1.02 2.06-2.49 2.06-1.71 0-2.71-.97-2.76-2.35zm6.614.96v-3.02h-.92v-.75h.92v-1.43h.82v1.43h1.32v.75h-1.32v3.01c0 .43.15.59.59.59h.81v.75h-.89c-.98 0-1.33-.43-1.33-1.33zm7.363.58h.26v.75h-.45c-.68 0-.91-.29-.92-.79-.32.46-.83.85-1.71.85-1.12 0-1.88-.56-1.88-1.49 0-1.02.71-1.59 2.05-1.59h1.5v-.35c0-.66-.47-1.06-1.27-1.06-.72 0-1.2.34-1.3.86h-.82c.12-1 .93-1.59 2.16-1.59 1.3 0 2.05.65 2.05 1.84v2.23c0 .27.1.34.33.34zm-1.15-1.33v-.25h-1.58c-.73 0-1.14.27-1.14.85 0 .5.43.84 1.11.84 1.02 0 1.61-.59 1.61-1.44zm4.4-3.02h.23v.8h-.41c-1.07 0-1.36.89-1.36 1.7v2.6h-.82v-5.1h.71l.11.77c.24-.39.63-.77 1.54-.77zm1.487 3.77v-3.02h-.92v-.75h.92v-1.43h.82v1.43h1.32v.75h-1.32v3.01c0 .43.15.59.59.59h.81v.75h-.89c-.98 0-1.33-.43-1.33-1.33zm5.338-.35h.84c.03.6.56 1.04 1.41 1.04.72 0 1.23-.31 1.23-.78 0-.64-.56-.69-1.32-.78-1.14-.14-2.05-.37-2.05-1.43 0-.93.85-1.54 2-1.53 1.16.01 2 .55 2.08 1.61h-.84c-.06-.52-.54-.91-1.24-.91-.71 0-1.19.3-1.19.77 0 .56.54.63 1.28.72 1.16.14 2.09.36 2.09 1.49 0 .95-.91 1.54-2.04 1.54-1.32 0-2.23-.62-2.25-1.74zm7.77-3.48c1.41 0 2.45.95 2.45 2.61 0 1.56-1.04 2.61-2.45 2.61-.86 0-1.44-.35-1.75-.84v2.78h-.82v-7.1h.71l.11.82c.34-.47.89-.88 1.75-.88zm-.08 4.49c1.01 0 1.69-.77 1.69-1.88 0-1.11-.68-1.88-1.69-1.88-1 0-1.68.77-1.68 1.86 0 1.12.68 1.9 1.68 1.9zm5.827-4.43h.23v.8h-.41c-1.07 0-1.36.89-1.36 1.7v2.6h-.82v-5.1h.71l.11.77c.24-.39.63-.77 1.54-.77zm2.998 5.16c-1.53 0-2.53-1.05-2.53-2.61 0-1.55.98-2.61 2.42-2.61s2.38.91 2.42 2.42c0 .11-.01.23-.02.35h-3.96v.07c.03.97.64 1.65 1.61 1.65.72 0 1.28-.38 1.45-1.04h.83c-.2 1.02-1.04 1.77-2.22 1.77zm-1.62-3.13h3.05c-.08-.88-.68-1.37-1.53-1.37-.75 0-1.44.54-1.52 1.37zm9.375 2.32h.26v.75h-.45c-.68 0-.91-.29-.92-.79-.32.46-.83.85-1.71.85-1.12 0-1.88-.56-1.88-1.49 0-1.02.71-1.59 2.05-1.59h1.5v-.35c0-.66-.47-1.06-1.27-1.06-.72 0-1.2.34-1.3.86h-.82c.12-1 .93-1.59 2.16-1.59 1.3 0 2.05.65 2.05 1.84v2.23c0 .27.1.34.33.34zm-1.15-1.33v-.25h-1.58c-.73 0-1.14.27-1.14.85 0 .5.43.84 1.11.84 1.02 0 1.61-.59 1.61-1.44zm6.002-2.24V47.5h.82v7h-.71l-.11-.82c-.34.47-.89.88-1.75.88-1.41 0-2.45-.95-2.45-2.61 0-1.56 1.04-2.61 2.45-2.61.86 0 1.44.35 1.75.84zm-1.67 3.65c1 0 1.68-.77 1.68-1.86 0-1.12-.68-1.9-1.68-1.9-1.01 0-1.69.77-1.69 1.88 0 1.11.68 1.88 1.69 1.88zm8.794-4.49c1.41 0 2.45.95 2.45 2.61 0 1.56-1.04 2.61-2.45 2.61-.86 0-1.44-.35-1.75-.84l-.11.78h-.71v-7h.82v2.72c.34-.47.89-.88 1.75-.88zm-.08 4.49c1.01 0 1.69-.77 1.69-1.88 0-1.11-.68-1.88-1.69-1.88-1 0-1.68.77-1.68 1.86 0 1.12.68 1.9 1.68 1.9zm5.817.73c-1.53 0-2.53-1.05-2.53-2.61 0-1.55.98-2.61 2.42-2.61s2.38.91 2.42 2.42c0 .11-.01.23-.02.35h-3.96v.07c.03.97.64 1.65 1.61 1.65.72 0 1.28-.38 1.45-1.04h.83c-.2 1.02-1.04 1.77-2.22 1.77zm-1.62-3.13h3.05c-.08-.88-.68-1.37-1.53-1.37-.75 0-1.44.54-1.52 1.37zm9.487 2.32h.89v.75h-.94c-.98 0-1.33-.43-1.33-1.33v-3.02h-2.1v3.01c0 .43.15.59.56.59h.73v.75h-.78c-.98 0-1.33-.43-1.33-1.33v-3.02h-.92v-.75h.92v-1.43h.82v1.43h2.1v-1.43h.82v1.43h1.29v.75h-1.29v3.01c0 .43.15.59.56.59zm2.02-5.21c-.3 0-.53-.22-.53-.53 0-.31.23-.53.53-.53.3 0 .53.22.53.53 0 .31-.23.53-.53.53zm-.42 5.96v-5.1h.82v5.1h-.82zm4.443-5.16c1.15 0 2.06.63 2.06 2.32v2.84h-.82v-2.79c0-1.06-.49-1.62-1.38-1.62-.96 0-1.54.71-1.54 1.86v2.55h-.82v-5.1h.71l.11.69c.3-.39.82-.75 1.68-.75zm7.126.94l.11-.88h.71v4.85c0 1.47-.78 2.31-2.53 2.31-1.3 0-2.21-.61-2.34-1.73h.84c.14.64.71 1 1.56 1 1.07 0 1.65-.5 1.65-1.61v-.6c-.34.58-.89.94-1.75.94-1.41 0-2.45-.95-2.45-2.61 0-1.56 1.04-2.61 2.45-2.61.86 0 1.43.37 1.75.94zm-1.67 3.55c1 0 1.68-.77 1.68-1.86 0-1.12-.68-1.9-1.68-1.9-1.01 0-1.69.77-1.69 1.88 0 1.11.68 1.88 1.69 1.88zM130.55 42.74l.23.57-1.22.45.83.98-.44.4-.84-1.05-.83 1.05-.43-.4.84-.99-1.22-.45.23-.56 1.16.53-.02-1.28h.57l-.03 1.29 1.17-.54zm.927.06V42h5.41v.8h-2.27V49h-.87v-6.2h-2.27zm9.939 5.45h.26V49h-.45c-.68 0-.91-.29-.92-.79-.32.46-.83.85-1.71.85-1.12 0-1.88-.56-1.88-1.49 0-1.02.71-1.59 2.05-1.59h1.5v-.35c0-.66-.47-1.06-1.27-1.06-.72 0-1.2.34-1.3.86h-.82c.12-1 .93-1.59 2.16-1.59 1.3 0 2.05.65 2.05 1.84v2.23c0 .27.1.34.33.34zm-1.15-1.33v-.25h-1.58c-.73 0-1.14.27-1.14.85 0 .5.43.84 1.11.84 1.02 0 1.61-.59 1.61-1.44zm1.5 2.08l1.94-2.62-1.81-2.48h.98l1.35 1.89 1.37-1.89h.93l-1.82 2.48 1.95 2.62h-.98l-1.49-2.05-1.49 2.05h-.93zm8.089 0v-7h.82v7h-.82zm6.453-.75h.26V49h-.45c-.68 0-.91-.29-.92-.79-.32.46-.83.85-1.71.85-1.12 0-1.88-.56-1.88-1.49 0-1.02.71-1.59 2.05-1.59h1.5v-.35c0-.66-.47-1.06-1.27-1.06-.72 0-1.2.34-1.3.86h-.82c.12-1 .93-1.59 2.16-1.59 1.3 0 2.05.65 2.05 1.84v2.23c0 .27.1.34.33.34zm-1.15-1.33v-.25h-1.58c-.73 0-1.14.27-1.14.85 0 .5.43.84 1.11.84 1.02 0 1.61-.59 1.61-1.44zm3.074 2.08l-1.65-5.1h.86l1.27 4.15 1.34-4.15h.76l1.27 4.15 1.33-4.15h.83l-1.7 5.1h-.9l-1.23-3.79-1.28 3.79h-.9zm6.354-1.68h.84c.03.6.56 1.04 1.41 1.04.72 0 1.23-.31 1.23-.78 0-.64-.56-.69-1.32-.78-1.14-.14-2.05-.37-2.05-1.43 0-.93.85-1.54 2-1.53 1.16.01 2 .55 2.08 1.61h-.84c-.06-.52-.54-.91-1.24-.91-.71 0-1.19.3-1.19.77 0 .56.54.63 1.28.72 1.16.14 2.09.36 2.09 1.49 0 .95-.91 1.54-2.04 1.54-1.32 0-2.23-.62-2.25-1.74zm12.328.93h.26V49h-.45c-.68 0-.91-.29-.92-.79-.32.46-.83.85-1.71.85-1.12 0-1.88-.56-1.88-1.49 0-1.02.71-1.59 2.05-1.59h1.5v-.35c0-.66-.47-1.06-1.27-1.06-.72 0-1.2.34-1.3.86h-.82c.12-1 .93-1.59 2.16-1.59 1.3 0 2.05.65 2.05 1.84v2.23c0 .27.1.34.33.34zm-1.15-1.33v-.25h-1.58c-.73 0-1.14.27-1.14.85 0 .5.43.84 1.11.84 1.02 0 1.61-.59 1.61-1.44zm4.4-3.02h.23v.8h-.41c-1.07 0-1.36.89-1.36 1.7V49h-.82v-5.1h.71l.11.77c.24-.39.63-.77 1.54-.77zm2.998 5.16c-1.53 0-2.53-1.05-2.53-2.61 0-1.55.98-2.61 2.42-2.61s2.38.91 2.42 2.42c0 .11-.01.23-.02.35h-3.96v.07c.03.97.64 1.65 1.61 1.65.72 0 1.28-.38 1.45-1.04h.83c-.2 1.02-1.04 1.77-2.22 1.77zm-1.62-3.13h3.05c-.08-.88-.68-1.37-1.53-1.37-.75 0-1.44.54-1.52 1.37zm7.273 1.39h.84c.03.6.56 1.04 1.41 1.04.72 0 1.23-.31 1.23-.78 0-.64-.56-.69-1.32-.78-1.14-.14-2.05-.37-2.05-1.43 0-.93.85-1.54 2-1.53 1.16.01 2 .55 2.08 1.61h-.84c-.06-.52-.54-.91-1.24-.91-.71 0-1.19.3-1.19.77 0 .56.54.63 1.28.72 1.16.14 2.09.36 2.09 1.49 0 .95-.91 1.54-2.04 1.54-1.32 0-2.23-.62-2.25-1.74zm8.77-.87V43.9h.82V49h-.71l-.11-.68c-.3.38-.79.74-1.63.74-1.12 0-2.01-.63-2.01-2.32V43.9h.82v2.79c0 1.06.48 1.62 1.33 1.62.93 0 1.49-.71 1.49-1.86zm4.508-2.61c1.41 0 2.45.95 2.45 2.61 0 1.56-1.04 2.61-2.45 2.61-.86 0-1.44-.35-1.75-.84l-.11.78h-.71v-7h.82v2.72c.34-.47.89-.88 1.75-.88zm-.08 4.49c1.01 0 1.69-.77 1.69-1.88 0-1.11-.68-1.88-1.69-1.88-1 0-1.68.77-1.68 1.86 0 1.12.68 1.9 1.68 1.9zm3.937-5.29c-.3 0-.53-.22-.53-.53 0-.31.23-.53.53-.53.3 0 .53.22.53.53 0 .31-.23.53-.53.53zM204.34 51v-.75h.64c.41 0 .56-.17.56-.56V43.9h.82v5.77c0 .9-.38 1.33-1.33 1.33h-.69zm5.492-1.94c-1.53 0-2.53-1.05-2.53-2.61 0-1.55.98-2.61 2.42-2.61s2.38.91 2.42 2.42c0 .11-.01.23-.02.35h-3.96v.07c.03.97.64 1.65 1.61 1.65.72 0 1.28-.38 1.45-1.04h.83c-.2 1.02-1.04 1.77-2.22 1.77zm-1.62-3.13h3.05c-.08-.88-.68-1.37-1.53-1.37-.75 0-1.44.54-1.52 1.37zm7.156 3.13c-1.49 0-2.47-1.01-2.47-2.6 0-1.56 1.01-2.62 2.49-2.62 1.25 0 2.04.7 2.25 1.82h-.86c-.15-.68-.65-1.09-1.4-1.09-.98 0-1.64.78-1.64 1.89 0 1.11.66 1.87 1.64 1.87.73 0 1.23-.42 1.39-1.07h.87c-.2 1.1-1.03 1.8-2.27 1.8zm3.549-1.39v-3.02h-.92v-.75h.92v-1.43h.82v1.43h1.32v.75h-1.32v3.01c0 .43.15.59.59.59h.81V49h-.89c-.98 0-1.33-.43-1.33-1.33zm5.927 0v-3.02h-.92v-.75h.92v-1.43h.82v1.43h1.32v.75h-1.32v3.01c0 .43.15.59.59.59h.81V49h-.89c-.98 0-1.33-.43-1.33-1.33zm5.154 1.39c-1.49 0-2.53-1.06-2.53-2.61 0-1.55 1.04-2.61 2.53-2.61 1.49 0 2.53 1.06 2.53 2.61 0 1.55-1.04 2.61-2.53 2.61zm0-.73c1.01 0 1.69-.79 1.69-1.88 0-1.09-.68-1.88-1.69-1.88-1.01 0-1.69.79-1.69 1.88 0 1.09.68 1.88 1.69 1.88zm8.377.73c-1.49 0-2.47-1.01-2.47-2.6 0-1.56 1.01-2.62 2.49-2.62 1.25 0 2.04.7 2.25 1.82h-.86c-.15-.68-.65-1.09-1.4-1.09-.98 0-1.64.78-1.64 1.89 0 1.11.66 1.87 1.64 1.87.73 0 1.23-.42 1.39-1.07h.87c-.2 1.1-1.03 1.8-2.27 1.8zm5.669-5.22c1.14 0 2.07.63 2.07 2.32V49h-.82v-2.79c0-1.06-.51-1.62-1.39-1.62-.95 0-1.54.71-1.54 1.86V49h-.82v-7h.82v2.74c.3-.48.82-.9 1.68-.9zm7.626 4.41h.26V49h-.45c-.68 0-.91-.29-.92-.79-.32.46-.83.85-1.71.85-1.12 0-1.88-.56-1.88-1.49 0-1.02.71-1.59 2.05-1.59h1.5v-.35c0-.66-.47-1.06-1.27-1.06-.72 0-1.2.34-1.3.86h-.82c.12-1 .93-1.59 2.16-1.59 1.3 0 2.05.65 2.05 1.84v2.23c0 .27.1.34.33.34zm-1.15-1.33v-.25h-1.58c-.73 0-1.14.27-1.14.85 0 .5.43.84 1.11.84 1.02 0 1.61-.59 1.61-1.44zm4.54-3.08c1.15 0 2.06.63 2.06 2.32V49h-.82v-2.79c0-1.06-.49-1.62-1.38-1.62-.96 0-1.54.71-1.54 1.86V49h-.82v-5.1h.71l.11.69c.3-.39.82-.75 1.68-.75zm7.125.94l.11-.88h.71v4.85c0 1.47-.78 2.31-2.53 2.31-1.3 0-2.21-.61-2.34-1.73h.84c.14.64.71 1 1.56 1 1.07 0 1.65-.5 1.65-1.61v-.6c-.34.58-.89.94-1.75.94-1.41 0-2.45-.95-2.45-2.61 0-1.56 1.04-2.61 2.45-2.61.86 0 1.43.37 1.75.94zm-1.67 3.55c1 0 1.68-.77 1.68-1.86 0-1.12-.68-1.9-1.68-1.9-1.01 0-1.69.77-1.69 1.88 0 1.11.68 1.88 1.69 1.88zm5.958.73c-1.53 0-2.53-1.05-2.53-2.61 0-1.55.98-2.61 2.42-2.61s2.38.91 2.42 2.42c0 .11-.01.23-.02.35h-3.96v.07c.03.97.64 1.65 1.61 1.65.72 0 1.28-.38 1.45-1.04h.83c-.2 1.02-1.04 1.77-2.22 1.77zm-1.62-3.13h3.05c-.08-.88-.68-1.37-1.53-1.37-.75 0-1.44.54-1.52 1.37zm11.992 2.32h.26V49h-.45c-.68 0-.91-.29-.92-.79-.32.46-.83.85-1.71.85-1.12 0-1.88-.56-1.88-1.49 0-1.02.71-1.59 2.05-1.59h1.5v-.35c0-.66-.47-1.06-1.27-1.06-.72 0-1.2.34-1.3.86h-.82c.12-1 .93-1.59 2.16-1.59 1.3 0 2.05.65 2.05 1.84v2.23c0 .27.1.34.33.34zm-1.15-1.33v-.25h-1.58c-.73 0-1.14.27-1.14.85 0 .5.43.84 1.11.84 1.02 0 1.61-.59 1.61-1.44zm4.541-3.08c1.15 0 2.06.63 2.06 2.32V49h-.82v-2.79c0-1.06-.49-1.62-1.38-1.62-.96 0-1.54.71-1.54 1.86V49h-.82v-5.1h.71l.11.69c.3-.39.82-.75 1.68-.75zm7.067.84V42h.82v7h-.71l-.11-.82c-.34.47-.89.88-1.75.88-1.41 0-2.45-.95-2.45-2.61 0-1.56 1.04-2.61 2.45-2.61.86 0 1.44.35 1.75.84zm-1.67 3.65c1 0 1.68-.77 1.68-1.86 0-1.12-.68-1.9-1.68-1.9-1.01 0-1.69.77-1.69 1.88 0 1.11.68 1.88 1.69 1.88zM131.58 56.68V54h.82v7h-.71l-.11-.82c-.34.47-.89.88-1.75.88-1.41 0-2.45-.95-2.45-2.61 0-1.56 1.04-2.61 2.45-2.61.86 0 1.44.35 1.75.84zm-1.67 3.65c1 0 1.68-.77 1.68-1.86 0-1.12-.68-1.9-1.68-1.9-1.01 0-1.69.77-1.69 1.88 0 1.11.68 1.88 1.69 1.88zm5.957.73c-1.53 0-2.53-1.05-2.53-2.61 0-1.55.98-2.61 2.42-2.61s2.38.91 2.42 2.42c0 .11-.01.23-.02.35h-3.96v.07c.03.97.64 1.65 1.61 1.65.72 0 1.28-.38 1.45-1.04h.83c-.2 1.02-1.04 1.77-2.22 1.77zm-1.62-3.13h3.05c-.08-.88-.68-1.37-1.53-1.37-.75 0-1.44.54-1.52 1.37zm7.436-2.09c1.41 0 2.45.95 2.45 2.61 0 1.56-1.04 2.61-2.45 2.61-.86 0-1.44-.35-1.75-.84V63h-.82v-7.1h.71l.11.82c.34-.47.89-.88 1.75-.88zm-.08 4.49c1.01 0 1.69-.77 1.69-1.88 0-1.11-.68-1.88-1.69-1.88-1 0-1.68.77-1.68 1.86 0 1.12.68 1.9 1.68 1.9zm5.817.73c-1.53 0-2.53-1.05-2.53-2.61 0-1.55.98-2.61 2.42-2.61s2.38.91 2.42 2.42c0 .11-.01.23-.02.35h-3.96v.07c.03.97.64 1.65 1.61 1.65.72 0 1.28-.38 1.45-1.04h.83c-.2 1.02-1.04 1.77-2.22 1.77zm-1.62-3.13h3.05c-.08-.88-.68-1.37-1.53-1.37-.75 0-1.44.54-1.52 1.37zm7.365-2.09c1.15 0 2.06.63 2.06 2.32V61h-.82v-2.79c0-1.06-.49-1.62-1.38-1.62-.96 0-1.54.71-1.54 1.86V61h-.82v-5.1h.71l.11.69c.3-.39.82-.75 1.68-.75zm7.067.84V54h.82v7h-.71l-.11-.82c-.34.47-.89.88-1.75.88-1.41 0-2.45-.95-2.45-2.61 0-1.56 1.04-2.61 2.45-2.61.86 0 1.44.35 1.75.84zm-1.67 3.65c1 0 1.68-.77 1.68-1.86 0-1.12-.68-1.9-1.68-1.9-1.01 0-1.69.77-1.69 1.88 0 1.11.68 1.88 1.69 1.88zm8.575.73c-1.49 0-2.53-1.06-2.53-2.61 0-1.55 1.04-2.61 2.53-2.61 1.49 0 2.53 1.06 2.53 2.61 0 1.55-1.04 2.61-2.53 2.61zm0-.73c1.01 0 1.69-.79 1.69-1.88 0-1.09-.68-1.88-1.69-1.88-1.01 0-1.69.79-1.69 1.88 0 1.09.68 1.88 1.69 1.88zm5.97-4.49c1.15 0 2.06.63 2.06 2.32V61h-.82v-2.79c0-1.06-.49-1.62-1.38-1.62-.96 0-1.54.71-1.54 1.86V61h-.82v-5.1h.71l.11.69c.3-.39.82-.75 1.68-.75zm6.143-.8c-.3 0-.53-.22-.53-.53 0-.31.23-.53.53-.53.3 0 .53.22.53.53 0 .31-.23.53-.53.53zm-.42 5.96v-5.1h.82V61h-.82zm4.443-5.16c1.15 0 2.06.63 2.06 2.32V61h-.82v-2.79c0-1.06-.49-1.62-1.38-1.62-.96 0-1.54.71-1.54 1.86V61h-.82v-5.1h.71l.11.69c.3-.39.82-.75 1.68-.75zm7.067.84V54h.82v7h-.71l-.11-.82c-.34.47-.89.88-1.75.88-1.41 0-2.45-.95-2.45-2.61 0-1.56 1.04-2.61 2.45-2.61.86 0 1.44.35 1.75.84zm-1.67 3.65c1 0 1.68-.77 1.68-1.86 0-1.12-.68-1.9-1.68-1.9-1.01 0-1.69.77-1.69 1.88 0 1.11.68 1.88 1.69 1.88zm4.027-5.29c-.3 0-.53-.22-.53-.53 0-.31.23-.53.53-.53.3 0 .53.22.53.53 0 .31-.23.53-.53.53zm-.42 5.96v-5.1h.82V61h-.82zm3.343 0l-1.91-5.1h.88l1.54 4.17 1.53-4.17h.86l-1.91 5.1h-.99zm3.932-5.96c-.3 0-.53-.22-.53-.53 0-.31.23-.53.53-.53.3 0 .53.22.53.53 0 .31-.23.53-.53.53zm-.42 5.96v-5.1h.82V61h-.82zm5.964-4.32V54h.82v7h-.71l-.11-.82c-.34.47-.89.88-1.75.88-1.41 0-2.45-.95-2.45-2.61 0-1.56 1.04-2.61 2.45-2.61.86 0 1.44.35 1.75.84zm-1.67 3.65c1 0 1.68-.77 1.68-1.86 0-1.12-.68-1.9-1.68-1.9-1.01 0-1.69.77-1.69 1.88 0 1.11.68 1.88 1.69 1.88zm7.177-1.88V55.9h.82V61h-.71l-.11-.68c-.3.38-.79.74-1.63.74-1.12 0-2.01-.63-2.01-2.32V55.9h.82v2.79c0 1.06.48 1.62 1.33 1.62.93 0 1.49-.71 1.49-1.86zm6.447 1.8h.26V61h-.45c-.68 0-.91-.29-.92-.79-.32.46-.83.85-1.71.85-1.12 0-1.88-.56-1.88-1.49 0-1.02.71-1.59 2.05-1.59h1.5v-.35c0-.66-.47-1.06-1.27-1.06-.72 0-1.2.34-1.3.86h-.82c.12-1 .93-1.59 2.16-1.59 1.3 0 2.05.65 2.05 1.84v2.23c0 .27.1.34.33.34zm-1.15-1.33v-.25h-1.58c-.73 0-1.14.27-1.14.85 0 .5.43.84 1.11.84 1.02 0 1.61-.59 1.61-1.44zm2.041 2.08v-7h.82v7h-.82zm6.85.06c-1.49 0-2.47-1.01-2.47-2.6 0-1.56 1.01-2.62 2.49-2.62 1.25 0 2.04.7 2.25 1.82h-.86c-.15-.68-.65-1.09-1.4-1.09-.98 0-1.64.78-1.64 1.89 0 1.11.66 1.87 1.64 1.87.73 0 1.23-.42 1.39-1.07h.87c-.2 1.1-1.03 1.8-2.27 1.8zm3.589-6.02c-.3 0-.53-.22-.53-.53 0-.31.23-.53.53-.53.3 0 .53.22.53.53 0 .31-.23.53-.53.53zm-.42 5.96v-5.1h.82V61h-.82zm4.304-5.1h.23v.8h-.41c-1.07 0-1.36.89-1.36 1.7V61h-.82v-5.1h.71l.11.77c.24-.39.63-.77 1.54-.77zm2.938 5.16c-1.49 0-2.47-1.01-2.47-2.6 0-1.56 1.01-2.62 2.49-2.62 1.25 0 2.04.7 2.25 1.82h-.86c-.15-.68-.65-1.09-1.4-1.09-.98 0-1.64.78-1.64 1.89 0 1.11.66 1.87 1.64 1.87.73 0 1.23-.42 1.39-1.07h.87c-.2 1.1-1.03 1.8-2.27 1.8zm6.739-2.61V55.9h.82V61h-.71l-.11-.68c-.3.38-.79.74-1.63.74-1.12 0-2.01-.63-2.01-2.32V55.9h.82v2.79c0 1.06.48 1.62 1.33 1.62.93 0 1.49-.71 1.49-1.86zm7.627-2.61c1.06 0 1.93.61 1.93 2.22V61h-.82v-2.89c0-1-.44-1.52-1.21-1.52-.85 0-1.37.64-1.37 1.68V61h-.82v-2.89c0-1-.45-1.52-1.23-1.52-.84 0-1.35.7-1.35 1.72V61h-.82v-5.1h.71l.11.7c.27-.37.7-.76 1.49-.76.71 0 1.32.32 1.61.97.31-.55.86-.97 1.77-.97zm2.772 3.48h.84c.03.6.56 1.04 1.41 1.04.72 0 1.23-.31 1.23-.78 0-.64-.56-.69-1.32-.78-1.14-.14-2.05-.37-2.05-1.43 0-.93.85-1.54 2-1.53 1.16.01 2 .55 2.08 1.61h-.84c-.06-.52-.54-.91-1.24-.91-.71 0-1.19.3-1.19.77 0 .56.54.63 1.28.72 1.16.14 2.09.36 2.09 1.49 0 .95-.91 1.54-2.04 1.54-1.32 0-2.23-.62-2.25-1.74zm5.58.35v-3.02H257v-.75h.92v-1.43h.82v1.43h1.32v.75h-1.32v3.01c0 .43.15.59.59.59h.81V61h-.89c-.98 0-1.33-.43-1.33-1.33zm7.363.58h.26V61h-.45c-.68 0-.91-.29-.92-.79-.32.46-.83.85-1.71.85-1.12 0-1.88-.56-1.88-1.49 0-1.02.71-1.59 2.05-1.59h1.5v-.35c0-.66-.47-1.06-1.27-1.06-.72 0-1.2.34-1.3.86h-.82c.12-1 .93-1.59 2.16-1.59 1.3 0 2.05.65 2.05 1.84v2.23c0 .27.1.34.33.34zm-1.15-1.33v-.25h-1.58c-.73 0-1.14.27-1.14.85 0 .5.43.84 1.11.84 1.02 0 1.61-.59 1.61-1.44zm4.54-3.08c1.15 0 2.06.63 2.06 2.32V61h-.82v-2.79c0-1.06-.49-1.62-1.38-1.62-.96 0-1.54.71-1.54 1.86V61h-.82v-5.1h.71l.11.69c.3-.39.82-.75 1.68-.75zm5.337 5.22c-1.49 0-2.47-1.01-2.47-2.6 0-1.56 1.01-2.62 2.49-2.62 1.25 0 2.04.7 2.25 1.82h-.86c-.15-.68-.65-1.09-1.4-1.09-.98 0-1.64.78-1.64 1.89 0 1.11.66 1.87 1.64 1.87.73 0 1.23-.42 1.39-1.07h.87c-.2 1.1-1.03 1.8-2.27 1.8zm5.519 0c-1.53 0-2.53-1.05-2.53-2.61 0-1.55.98-2.61 2.42-2.61s2.38.91 2.42 2.42c0 .11-.01.23-.02.35h-3.96v.07c.03.97.64 1.65 1.61 1.65.72 0 1.28-.38 1.45-1.04h.83c-.2 1.02-1.04 1.77-2.22 1.77zm-1.62-3.13h3.05c-.08-.88-.68-1.37-1.53-1.37-.75 0-1.44.54-1.52 1.37zm4.636 1.39h.84c.03.6.56 1.04 1.41 1.04.72 0 1.23-.31 1.23-.78 0-.64-.56-.69-1.32-.78-1.14-.14-2.05-.37-2.05-1.43 0-.93.85-1.54 2-1.53 1.16.01 2 .55 2.08 1.61h-.84c-.06-.52-.54-.91-1.24-.91-.71 0-1.19.3-1.19.77 0 .56.54.63 1.28.72 1.16.14 2.09.36 2.09 1.49 0 .95-.91 1.54-2.04 1.54-1.32 0-2.23-.62-2.25-1.74zm5.022 1.18c0-.34.24-.56.57-.56.33 0 .57.22.57.56 0 .34-.24.56-.57.56-.33 0-.57-.22-.57-.56z" fill="#fff"/><defs><linearGradient id="paint0_linear_3524_546" x1="0" y1="40.5" x2="8.098" y2="82.499" gradientUnits="userSpaceOnUse"><stop stop-color="#FF4343"/><stop offset="1" stop-color="#E62B50"/></linearGradient></defs></svg>