<svg width="225" height="44" viewBox="0 0 225 44" fill="none" xmlns="http://www.w3.org/2000/svg"><rect width="225" height="44" rx="22" fill="#fff"/><path d="M30.245 24.734h1.677c.13 1.75 1.49 2.906 3.484 2.906 1.751 0 3-.801 3-2.217 0-1.62-1.603-1.956-3.578-2.291-2.105-.355-4.266-1.044-4.266-3.578 0-2.216 1.807-3.707 4.452-3.707 2.907 0 4.695 1.62 4.844 3.968h-1.676c-.187-1.509-1.398-2.496-3.168-2.496-1.695 0-2.831.745-2.831 2.142 0 1.565 1.583 1.882 3.54 2.217 2.123.354 4.303 1.062 4.303 3.596 0 2.254-1.9 3.838-4.639 3.838-3.186 0-5.049-1.807-5.142-4.378zm12.323 1.788v-5.626h-1.714v-1.397h1.714v-2.665h1.527V19.5h2.46v1.397h-2.46v5.608c0 .8.28 1.099 1.1 1.099h1.508V29h-1.658c-1.825 0-2.477-.801-2.477-2.478zm13.716 1.08h.484V29h-.838c-1.267 0-1.695-.54-1.714-1.472-.596.857-1.546 1.584-3.186 1.584-2.086 0-3.502-1.043-3.502-2.776 0-1.9 1.322-2.962 3.819-2.962h2.794v-.652c0-1.23-.875-1.975-2.366-1.975-1.341 0-2.235.633-2.422 1.602h-1.527c.223-1.863 1.732-2.962 4.024-2.962 2.422 0 3.82 1.21 3.82 3.428v4.154c0 .503.185.634.614.634zm-2.143-2.477v-.466h-2.943c-1.36 0-2.124.503-2.124 1.584 0 .931.801 1.565 2.068 1.565 1.9 0 3-1.1 3-2.683zm8.198-5.626h.429v1.49h-.764c-1.993 0-2.534 1.658-2.534 3.167V29h-1.527v-9.501h1.322l.205 1.434c.447-.726 1.174-1.434 2.87-1.434zm2.77 7.023v-5.626h-1.714v-1.397h1.714v-2.665h1.528V19.5h2.46v1.397h-2.46v5.608c0 .8.28 1.099 1.1 1.099h1.508V29h-1.658c-1.826 0-2.478-.801-2.478-2.478zm9.945-.652h1.564c.056 1.118 1.044 1.938 2.627 1.938 1.342 0 2.292-.578 2.292-1.453 0-1.193-1.043-1.286-2.46-1.454-2.123-.26-3.819-.689-3.819-2.664 0-1.732 1.584-2.869 3.727-2.85 2.16.018 3.726 1.024 3.875 3h-1.565c-.112-.97-1.006-1.696-2.31-1.696-1.323 0-2.217.559-2.217 1.434 0 1.044 1.006 1.174 2.384 1.342 2.161.26 3.894.67 3.894 2.776 0 1.77-1.695 2.869-3.8 2.869-2.46 0-4.155-1.155-4.192-3.242zm14.476-6.483c2.626 0 4.564 1.77 4.564 4.862 0 2.907-1.938 4.863-4.564 4.863-1.603 0-2.683-.652-3.26-1.565v5.179h-1.528V19.499h1.322l.205 1.527c.634-.875 1.658-1.64 3.26-1.64zm-.15 8.365c1.882 0 3.15-1.435 3.15-3.503s-1.268-3.502-3.15-3.502c-1.862 0-3.13 1.434-3.13 3.465 0 2.087 1.268 3.54 3.13 3.54zm10.856-8.253h.429v1.49h-.764c-1.993 0-2.534 1.658-2.534 3.167V29H95.84v-9.501h1.322l.205 1.434c.447-.726 1.174-1.434 2.869-1.434zm5.585 9.613c-2.85 0-4.713-1.956-4.713-4.863 0-2.887 1.826-4.862 4.508-4.862 2.683 0 4.434 1.695 4.509 4.508 0 .205-.019.429-.037.652h-7.378v.13c.056 1.808 1.193 3.075 3 3.075 1.341 0 2.384-.708 2.701-1.938h1.546c-.372 1.9-1.937 3.298-4.136 3.298zm-3.018-5.831h5.683c-.15-1.64-1.267-2.553-2.851-2.553-1.397 0-2.683 1.006-2.832 2.552zm17.467 4.322h.485V29h-.839c-1.266 0-1.695-.54-1.714-1.472-.596.857-1.546 1.584-3.185 1.584-2.087 0-3.503-1.043-3.503-2.776 0-1.9 1.323-2.962 3.819-2.962h2.795v-.652c0-1.23-.876-1.975-2.366-1.975-1.341 0-2.236.633-2.422 1.602h-1.528c.224-1.863 1.733-2.962 4.024-2.962 2.422 0 3.82 1.21 3.82 3.428v4.154c0 .503.186.634.614.634zm-2.142-2.478v-.466h-2.944c-1.36 0-2.123.503-2.123 1.584 0 .931.801 1.565 2.067 1.565 1.901 0 3-1.1 3-2.683zm11.181-4.173v-4.993h1.528V29h-1.323l-.205-1.528c-.633.876-1.658 1.64-3.26 1.64-2.627 0-4.564-1.77-4.564-4.863 0-2.906 1.937-4.862 4.564-4.862 1.602 0 2.683.652 3.26 1.565zm-3.111 6.8c1.863 0 3.13-1.435 3.13-3.465 0-2.087-1.267-3.54-3.13-3.54-1.882 0-3.148 1.434-3.148 3.502 0 2.068 1.266 3.503 3.148 3.503zm16.384-8.365c2.627 0 4.564 1.77 4.564 4.862 0 2.907-1.937 4.863-4.564 4.863-1.602 0-2.683-.652-3.26-1.565L139.117 29h-1.323V15.959h1.528v5.067c.633-.875 1.658-1.64 3.26-1.64zm-.149 8.365c1.881 0 3.148-1.435 3.148-3.503s-1.267-3.502-3.148-3.502c-1.863 0-3.13 1.434-3.13 3.465 0 2.087 1.267 3.54 3.13 3.54zm10.837 1.36c-2.85 0-4.713-1.956-4.713-4.863 0-2.887 1.825-4.862 4.508-4.862s4.434 1.695 4.509 4.508c0 .205-.019.429-.038.652h-7.377v.13c.056 1.808 1.192 3.075 2.999 3.075 1.342 0 2.385-.708 2.702-1.938h1.546c-.373 1.9-1.938 3.298-4.136 3.298zm-3.018-5.831h5.682c-.149-1.64-1.267-2.553-2.85-2.553-1.398 0-2.683 1.006-2.832 2.552zm17.675 4.322h1.658V29h-1.752c-1.825 0-2.477-.801-2.477-2.478v-5.626h-3.913v5.608c0 .8.28 1.099 1.044 1.099h1.36V29h-1.454c-1.825 0-2.477-.801-2.477-2.478v-5.626h-1.714v-1.397h1.714v-2.665h1.527V19.5h3.913v-2.665h1.527V19.5h2.404v1.397h-2.404v5.608c0 .8.28 1.099 1.044 1.099zm3.762-9.707c-.559 0-.988-.41-.988-.987 0-.578.429-.987.988-.987a.96.96 0 01.987.987.96.96 0 01-.987.987zM170.906 29v-9.501h1.528V29h-1.528zm8.278-9.613c2.143 0 3.838 1.174 3.838 4.322V29h-1.528v-5.198c0-1.975-.913-3.018-2.571-3.018-1.788 0-2.869 1.323-2.869 3.465V29h-1.527v-9.501h1.322l.205 1.285c.559-.726 1.528-1.397 3.13-1.397zm13.275 1.751l.205-1.64h1.323v9.036c0 2.739-1.454 4.304-4.714 4.304-2.422 0-4.117-1.137-4.359-3.223h1.565c.261 1.192 1.322 1.863 2.906 1.863 1.993 0 3.074-.932 3.074-3V27.36c-.633 1.081-1.658 1.752-3.26 1.752-2.627 0-4.565-1.77-4.565-4.863 0-2.906 1.938-4.862 4.565-4.862 1.602 0 2.664.69 3.26 1.751zm-3.111 6.614c1.863 0 3.13-1.435 3.13-3.465 0-2.087-1.267-3.54-3.13-3.54-1.882 0-3.149 1.434-3.149 3.502 0 2.068 1.267 3.503 3.149 3.503z" fill="#000"/></svg>