<svg width="180" height="50" viewBox="0 0 180 50" fill="none" xmlns="http://www.w3.org/2000/svg"><g clip-path="url(#clip0_3524_668)"><path fill-rule="evenodd" clip-rule="evenodd" d="M5.531 5.61A8.774 8.774 0 018.29 3.6a7.79 7.79 0 013.341-.73c1.305 0 2.355.17 3.146.516.791.346 1.561.841 2.306 1.494.36.284.733.411 1.115.38.382-.03.709-.17.977-.427.27-.253.407-.572.407-.961 0-.186-.016-.34-.046-.474a1.154 1.154 0 00-.183-.395 1.589 1.589 0 00-.38-.38c-1.123-.935-2.24-1.606-3.356-2.01C14.505.203 13.176 0 11.627 0 9.978 0 8.454.315 7.05.943A11.561 11.561 0 003.36 3.55 12.141 12.141 0 00.89 7.425C.296 8.9 0 10.489 0 12.196c0 1.707.296 3.334.889 4.818.592 1.484 1.414 2.78 2.47 3.887a11.281 11.281 0 003.702 2.591c1.414.622 2.936.931 4.563.931 1.366 0 2.667-.222 3.9-.67a12.166 12.166 0 003.48-1.983 1.7 1.7 0 00.36-.535c.076-.195.119-.393.119-.597 0-.448-.12-.798-.36-1.054a1.35 1.35 0 00-.886-.427c-.351-.03-.709.087-1.07.353a11.25 11.25 0 01-2.635 1.478 7.932 7.932 0 01-2.905.532c-1.188 0-2.3-.242-3.34-.718a8.63 8.63 0 01-2.759-1.997 9.3 9.3 0 01-1.854-2.972c-.443-1.129-.663-2.344-.663-3.643s.22-2.486.663-3.615a9.319 9.319 0 011.854-2.969l.003.004zM25.641.303c-.444 0-.813.148-1.115.442-.303.297-.453.674-.453 1.141v20.645c0 .448.15.822.453 1.129.302.302.671.457 1.114.457.443 0 .84-.151 1.127-.457.294-.307.437-.68.437-1.13V1.887c0-.467-.147-.85-.437-1.14-.29-.295-.665-.443-1.127-.443zm22.317 0H31.847c-.422 0-.767.14-1.042.411-.269.272-.406.625-.406 1.055 0 .43.137.776.406 1.054.269.272.617.412 1.041.412h6.506v19.302c0 .448.15.823.452 1.129.302.303.672.457 1.115.457.443 0 .812-.151 1.115-.457a1.54 1.54 0 00.452-1.13V3.229h6.475c.421 0 .766-.139 1.041-.41.269-.273.406-.626.406-1.055 0-.43-.137-.777-.406-1.055C48.73.436 48.382.3 47.958.3v.003zm24.03.384a1.197 1.197 0 00-.904-.38c-.32 0-.593.064-.812.197-.22.133-.413.319-.571.563l-7.169 11.448-7.049-11.328c-.183-.284-.37-.504-.571-.655-.201-.152-.47-.226-.812-.226-.382 0-.718.118-1.008.353a1.41 1.41 0 00-.526.915c-.06.374.04.776.303 1.206l8.038 12.657v7.106c0 .448.15.823.453 1.129.302.303.662.457 1.087.457.424 0 .812-.151 1.115-.457a1.54 1.54 0 00.452-1.129v-7.112l8.1-12.657c.24-.387.342-.767.302-1.141A1.617 1.617 0 0071.99.69l-.003-.003zM87.925.302c-.443 0-.812.148-1.115.442-.302.297-.452.674-.452 1.141v20.645c0 .448.15.822.452 1.129.303.302.672.457 1.115.457.443 0 .84-.151 1.127-.457.293-.307.437-.68.437-1.13V1.887c0-.467-.147-.85-.437-1.14-.29-.295-.666-.443-1.127-.443zm23.722 0a1.54 1.54 0 00-1.115.442c-.302.297-.451.674-.451 1.141v16.68L96.951.881C96.63.495 96.23.303 95.743.303c-.443 0-.81.148-1.1.442-.293.297-.436.674-.436 1.141v20.645c0 .448.146.822.436 1.129.29.302.657.457 1.1.457.443 0 .84-.151 1.127-.457.29-.307.437-.68.437-1.13V5.883l13.13 17.685c.14.182.324.318.556.411.232.093.446.14.647.14.461 0 .834-.152 1.115-.458.281-.307.421-.68.421-1.13V1.887c0-.467-.14-.85-.421-1.14-.272-.295-.648-.443-1.109-.443zm21.536 3.337a10.83 10.83 0 00-3.69-2.468c-1.414-.578-2.987-.869-4.712-.869h-5.452c-.443 0-.813.148-1.115.442-.302.297-.452.674-.452 1.141v20.645c0 .448.15.822.452 1.129.302.302.672.457 1.115.457h5.452c1.725 0 3.295-.29 4.712-.869a10.905 10.905 0 003.69-2.468 11.028 11.028 0 002.41-3.781c.562-1.45.842-3.056.842-4.803 0-1.747-.28-3.343-.842-4.787a11.064 11.064 0 00-2.41-3.77zm-.874 13.266c-.745 1.373-1.762 2.449-3.057 3.231-1.295.783-2.785 1.175-4.474 1.175h-3.886V3.108h3.886c1.686 0 3.176.386 4.474 1.16 1.295.773 2.315 1.84 3.057 3.203.742 1.364 1.115 2.935 1.115 4.725 0 1.79-.37 3.337-1.115 4.71zm23.502-13.678c.462 0 .831-.133 1.115-.399.278-.262.422-.609.422-1.035 0-.427-.141-.81-.422-1.083-.277-.272-.653-.411-1.115-.411h-13.615c-.443 0-.813.148-1.115.442-.302.297-.452.674-.452 1.141v20.645c0 .448.15.822.452 1.128.302.303.672.458 1.115.458h13.615c.462 0 .831-.14 1.115-.411.278-.272.422-.637.422-1.083 0-.445-.141-.773-.422-1.036-.277-.262-.653-.398-1.115-.398h-12.049v-7.617h8.644c.461 0 .831-.139 1.115-.411.278-.272.421-.625.421-1.055 0-.43-.14-.776-.421-1.054-.281-.272-.654-.411-1.115-.411h-8.644v-7.41h12.049zm16.988 8.841l6.866-9.267c.241-.365.351-.74.333-1.13a1.498 1.498 0 00-.391-.973c-.241-.263-.571-.399-.996-.399-.461 0-.83.151-1.115.458l-6.749 9.091-6.472-9.088c-.22-.306-.593-.458-1.115-.458-.421 0-.758.142-1.008.427-.25.287-.397.618-.437 1.008-.039.386.062.739.303 1.067l6.615 9.292-7.009 9.46a1.762 1.762 0 00-.361 1.082c0 .399.119.742.361 1.036.241.297.592.442 1.053.442.422 0 .785-.151 1.088-.457l6.915-9.315 6.551 9.194c.159.204.336.352.525.442.193.093.416.14.678.14.443 0 .788-.143 1.042-.427.25-.285.388-.628.406-1.036a1.668 1.668 0 00-.333-1.098l-6.753-9.484.003-.007zm-71.78 29.356c0 3.05-1.93 4.843-4.554 4.843-1.026 0-1.93-.251-2.55-.52l-.709.665h-.214v-10.78c0-.934-.159-1.203-.76-1.487l-.443-.217v-.198l2.96-.665.228.161v5.47c.761-.736 1.436-1.218 2.606-1.218 2.055 0 3.436 1.667 3.436 3.946zm-1.897 1.169c0-2.403-1.1-3.999-2.71-3.999-.6 0-.974.143-1.435.486v4.267c0 1.667.761 2.459 1.897 2.459 1.38 0 2.251-1.114 2.251-3.21l-.003-.003zm11.701-4.933v.27l-.284.052c-.657.127-.956.501-1.576 1.955l-3.384 7.891c-.672 1.577-1.366 2.171-2.196 2.171-.584 0-.904-.467-.904-.986 0-.665.778-1.077 2.321-.987a16.77 16.77 0 00.904-1.793l-2.798-6.35c-.657-1.486-.834-1.774-1.576-1.901l-.302-.052v-.27c.424 0 1.524.02 2.284.02.761 0 1.912-.02 2.322-.02v.27l-.355.052c-.531.09-.69.27-.69.557 0 .288.107.665.229.986l1.808 4.627 1.488-3.875c.265-.7.424-1.237.424-1.614 0-.378-.229-.61-.709-.681l-.39-.052v-.27c.424 0 1.044.02 1.789.02.746 0 1.17-.02 1.595-.02zm14.269 4.355c0 2.607-2.449 4.354-5.357 4.354-1.787 0-2.95-.294-3.842-.693l-.498-3.07h.372l.373.735c.892 1.744 1.995 2.502 3.76 2.502 2.016 0 3.158-1.008 3.158-2.672 0-1.472-.831-2.23-3.241-3.07-2.721-.947-4.071-1.998-4.071-4.373s2.138-4.122 4.798-4.122c1.662 0 2.618.232 3.531.609l.498 3.198h-.394l-.354-.758c-.81-1.744-1.848-2.524-3.427-2.524-1.662 0-2.639 1.008-2.639 2.44s.788 2.165 3.072 2.944c2.991 1.008 4.258 2.165 4.258 4.5h.003zm6.955 2.777l.25.337c-.831.735-1.704 1.218-2.782 1.218-1.601 0-2.432-.736-2.432-2.462v-6.729h-1.475v-.377l1.579-.609 1.558-3.154h.644v3.238h2.679v.902h-2.679v6.668c0 .99.477 1.472 1.268 1.472.54 0 .892-.149 1.393-.504h-.003zm10.888-3.557c0 2.923-2.098 5.174-5.046 5.174-2.947 0-5.027-1.85-5.027-5.319 0-2.922 2.077-5.173 5.046-5.173 2.968 0 5.027 1.849 5.027 5.318zm-2.556.59c0-3.258-1.017-5.383-2.762-5.383-1.411 0-2.223 1.095-2.223 4.057 0 3.26 1.038 5.384 2.761 5.384 1.432 0 2.224-1.095 2.224-4.057zm14.849 4.058v.315c-.458 0-1.64-.021-2.535-.021-.895 0-2.055.021-2.553.021v-.315l.333-.062c.892-.167 1.059-.442 1.059-2.291v-3.974c0-1.534-.665-2.291-1.826-2.291-.809 0-1.496.315-2.098.78v5.488c0 1.849.147 2.124 1.06 2.291l.333.062v.316c-.498 0-1.662-.022-2.554-.022-.892 0-2.077.022-2.553.022v-.316l.394-.062c.831-.127.995-.442.995-2.461V38.97c0-1.095-.186-1.389-.913-1.744l-.497-.254v-.232l3.469-.78.269.19v1.41c1.1-.947 2.12-1.578 3.405-1.578 1.848 0 2.847 1.008 2.847 3.133v4.249c0 2.06.165 2.313 1.017 2.461l.354.062-.006-.003zm9.728-5.656h-6.811v.148c.061 2.883 1.601 4.648 3.677 4.648 1.142 0 1.931-.42 2.783-1.283l.269.21c-1.082 1.516-2.472 2.462-4.28 2.462-2.638 0-4.611-1.83-4.611-4.963 0-3.386 2.513-5.53 4.941-5.53 2.679 0 3.968 1.516 4.029 4.311l.003-.003zm-6.814-.566h4.361c-.061-2.124-.809-3.197-2.015-3.197-1.35 0-2.224 1.178-2.346 3.197zm21.706 6.222v.315c-.394 0-2.327-.043-3.094-.043-.766 0-3.219.043-3.634.043v-.315l.684-.105c.666-.105.956-.294.956-.693 0-.358-.208-.779-.684-1.533l-2.41-3.742-2.41 3.364c-.562.78-.83 1.389-.83 1.81 0 .42.25.692.934.797l.706.105v.316c-.395 0-2.12-.044-2.887-.044-.766 0-2.015.044-2.409.044v-.316l.372-.062c.977-.167 1.891-1.008 2.618-1.954l3.509-4.648-3.47-5.152c-.809-1.2-1.371-1.744-2.223-1.892l-.458-.084v-.315c.394 0 2.327.043 3.094.043.766 0 3.176-.043 3.591-.043v.315l-.684.106c-.58.083-.913.293-.913.692 0 .359.208.78.684 1.534l2.077 3.238 2.034-2.882c.541-.78.831-1.389.831-1.788 0-.42-.269-.692-.935-.797l-.705-.106v-.315c.394 0 2.12.043 2.886.043.767 0 2.016-.043 2.41-.043v.315l-.373.062c-.977.167-1.847.925-2.617 1.954l-3.137 4.163 3.8 5.634c.809 1.2 1.371 1.744 2.223 1.892l.458.084.006.003z" fill="#fff"/></g><defs><clipPath id="clip0_3524_668"><path fill="#fff" d="M0 0h180v50H0z"/></clipPath></defs></svg>