<svg width="111" height="32" viewBox="0 0 111 32" fill="none" xmlns="http://www.w3.org/2000/svg"><path d="M3.17.76l.23.57-1.22.45.83.98-.44.4-.84-1.05L.9 3.16l-.43-.4.84-.99-1.22-.45.23-.56 1.16.53L1.46.01h.57L2 1.3 3.17.76zm.927.06v-.8h5.41v.8h-2.27v6.2h-.87V.82h-2.27zm9.939 5.45h.26v.75h-.45c-.68 0-.91-.29-.92-.79-.32.46-.83.85-1.71.85-1.12 0-1.88-.56-1.88-1.49 0-1.02.71-1.59 2.05-1.59h1.5v-.35c0-.66-.47-1.06-1.27-1.06-.72 0-1.2.34-1.3.86h-.82c.12-1 .93-1.59 2.16-1.59 1.3 0 2.05.65 2.05 1.84v2.23c0 .27.1.34.33.34zm-1.15-1.33v-.25h-1.58c-.73 0-1.14.27-1.14.85 0 .5.43.84 1.11.84 1.02 0 1.61-.59 1.61-1.44zm1.5 2.08l1.94-2.62-1.81-2.48h.98l1.35 1.89 1.37-1.89h.93l-1.82 2.48 1.95 2.62h-.98l-1.49-2.05-1.49 2.05h-.93zm8.089 0v-7h.82v7h-.82zm6.453-.75h.26v.75h-.45c-.68 0-.91-.29-.92-.79-.32.46-.83.85-1.71.85-1.12 0-1.88-.56-1.88-1.49 0-1.02.71-1.59 2.05-1.59h1.5v-.35c0-.66-.47-1.06-1.27-1.06-.72 0-1.2.34-1.3.86h-.82c.12-1 .93-1.59 2.16-1.59 1.3 0 2.05.65 2.05 1.84v2.23c0 .27.1.34.33.34zm-1.15-1.33v-.25h-1.58c-.73 0-1.14.27-1.14.85 0 .5.43.84 1.11.84 1.02 0 1.61-.59 1.61-1.44zm3.074 2.08l-1.65-5.1h.86l1.27 4.15 1.34-4.15h.76l1.27 4.15 1.33-4.15h.83l-1.7 5.1h-.9l-1.23-3.79-1.28 3.79h-.9zm6.354-1.68h.84c.03.6.56 1.04 1.41 1.04.72 0 1.23-.31 1.23-.78 0-.64-.56-.69-1.32-.78-1.14-.14-2.05-.37-2.05-1.43 0-.93.85-1.54 2-1.53 1.16.01 2 .55 2.08 1.61h-.84c-.06-.52-.54-.91-1.24-.91-.71 0-1.19.3-1.19.77 0 .56.54.63 1.28.72 1.16.14 2.09.36 2.09 1.49 0 .95-.91 1.54-2.04 1.54-1.32 0-2.23-.62-2.25-1.74zm12.328.93h.26v.75h-.45c-.68 0-.91-.29-.92-.79-.32.46-.83.85-1.71.85-1.12 0-1.88-.56-1.88-1.49 0-1.02.71-1.59 2.05-1.59h1.5v-.35c0-.66-.47-1.06-1.27-1.06-.72 0-1.2.34-1.3.86h-.82c.12-1 .93-1.59 2.16-1.59 1.3 0 2.05.65 2.05 1.84v2.23c0 .27.1.34.33.34zm-1.15-1.33v-.25h-1.58c-.73 0-1.14.27-1.14.85 0 .5.43.84 1.11.84 1.02 0 1.61-.59 1.61-1.44zm4.4-3.02h.23v.8h-.41c-1.07 0-1.36.89-1.36 1.7v2.6h-.82v-5.1h.71l.11.77c.24-.39.63-.77 1.54-.77zm2.998 5.16c-1.53 0-2.53-1.05-2.53-2.61 0-1.55.98-2.61 2.42-2.61s2.38.91 2.42 2.42c0 .11-.01.23-.02.35h-3.96v.07c.03.97.64 1.65 1.61 1.65.72 0 1.28-.38 1.45-1.04h.83c-.2 1.02-1.04 1.77-2.22 1.77zm-1.62-3.13h3.05c-.08-.88-.68-1.37-1.53-1.37-.75 0-1.44.54-1.52 1.37zm7.273 1.39h.84c.03.6.56 1.04 1.41 1.04.72 0 1.23-.31 1.23-.78 0-.64-.56-.69-1.32-.78-1.14-.14-2.05-.37-2.05-1.43 0-.93.85-1.54 2-1.53 1.16.01 2 .55 2.08 1.61h-.84c-.06-.52-.54-.91-1.24-.91-.71 0-1.19.3-1.19.77 0 .56.54.63 1.28.72 1.16.14 2.09.36 2.09 1.49 0 .95-.91 1.54-2.04 1.54-1.32 0-2.23-.62-2.25-1.74zm8.77-.87V1.92h.82v5.1h-.71l-.11-.68c-.3.38-.79.74-1.63.74-1.12 0-2.01-.63-2.01-2.32V1.92h.82v2.79c0 1.06.48 1.62 1.33 1.62.93 0 1.49-.71 1.49-1.86zm4.508-2.61c1.41 0 2.45.95 2.45 2.61 0 1.56-1.04 2.61-2.45 2.61-.86 0-1.44-.35-1.75-.84l-.11.78h-.71v-7h.82v2.72c.34-.47.89-.88 1.75-.88zm-.08 4.49c1.01 0 1.69-.77 1.69-1.88 0-1.11-.68-1.88-1.69-1.88-1 0-1.68.77-1.68 1.86 0 1.12.68 1.9 1.68 1.9zm3.937-5.29c-.3 0-.53-.22-.53-.53 0-.31.23-.53.53-.53.3 0 .53.22.53.53 0 .31-.23.53-.53.53zm-1.61 7.96v-.75h.64c.41 0 .56-.17.56-.56V1.92h.82v5.77c0 .9-.38 1.33-1.33 1.33h-.69zm5.492-1.94c-1.53 0-2.53-1.05-2.53-2.61 0-1.55.98-2.61 2.42-2.61s2.38.91 2.42 2.42c0 .11-.01.23-.02.35h-3.96v.07c.03.97.64 1.65 1.61 1.65.72 0 1.28-.38 1.45-1.04h.83c-.2 1.02-1.04 1.77-2.22 1.77zm-1.62-3.13h3.05c-.08-.88-.68-1.37-1.53-1.37-.75 0-1.44.54-1.52 1.37zm7.156 3.13c-1.49 0-2.47-1.01-2.47-2.6 0-1.56 1.01-2.62 2.49-2.62 1.25 0 2.04.7 2.25 1.82h-.86c-.15-.68-.65-1.09-1.4-1.09-.98 0-1.64.78-1.64 1.89 0 1.11.66 1.87 1.64 1.87.73 0 1.23-.42 1.39-1.07h.87c-.2 1.1-1.03 1.8-2.27 1.8zm3.549-1.39V2.67h-.92v-.75h.92V.49h.82v1.43h1.32v.75h-1.32v3.01c0 .43.15.59.59.59h.81v.75h-.89c-.98 0-1.33-.43-1.33-1.33zm5.927 0V2.67h-.92v-.75h.92V.49h.82v1.43h1.32v.75h-1.32v3.01c0 .43.15.59.59.59h.81v.75h-.89c-.98 0-1.33-.43-1.33-1.33zm5.154 1.39c-1.49 0-2.53-1.06-2.53-2.61 0-1.55 1.04-2.61 2.53-2.61 1.49 0 2.53 1.06 2.53 2.61 0 1.55-1.04 2.61-2.53 2.61zm0-.73c1.01 0 1.69-.79 1.69-1.88 0-1.09-.68-1.88-1.69-1.88-1.01 0-1.69.79-1.69 1.88 0 1.09.68 1.88 1.69 1.88zM2.47 19.08C.98 19.08 0 18.07 0 16.48c0-1.56 1.01-2.62 2.49-2.62 1.25 0 2.04.7 2.25 1.82h-.86c-.15-.68-.65-1.09-1.4-1.09-.98 0-1.64.78-1.64 1.89 0 1.11.66 1.87 1.64 1.87.73 0 1.23-.42 1.39-1.07h.87c-.2 1.1-1.03 1.8-2.27 1.8zm5.67-5.22c1.14 0 2.07.63 2.07 2.32v2.84h-.82v-2.79c0-1.06-.51-1.62-1.39-1.62-.95 0-1.54.71-1.54 1.86v2.55h-.82v-7h.82v2.74c.3-.48.82-.9 1.68-.9zm7.624 4.41h.26v.75h-.45c-.68 0-.91-.29-.92-.79-.32.46-.83.85-1.71.85-1.12 0-1.88-.56-1.88-1.49 0-1.02.71-1.59 2.05-1.59h1.5v-.35c0-.66-.47-1.06-1.27-1.06-.72 0-1.2.34-1.3.86h-.82c.12-1 .93-1.59 2.16-1.59 1.3 0 2.05.65 2.05 1.84v2.23c0 .27.1.34.33.34zm-1.15-1.33v-.25h-1.58c-.73 0-1.14.27-1.14.85 0 .5.43.84 1.11.84 1.02 0 1.61-.59 1.61-1.44zm4.54-3.08c1.15 0 2.06.63 2.06 2.32v2.84h-.82v-2.79c0-1.06-.49-1.62-1.38-1.62-.96 0-1.54.71-1.54 1.86v2.55h-.82v-5.1h.71l.11.69c.3-.39.82-.75 1.68-.75zm7.126.94l.11-.88h.71v4.85c0 1.47-.78 2.31-2.53 2.31-1.3 0-2.21-.61-2.34-1.73h.84c.14.64.71 1 1.56 1 1.07 0 1.65-.5 1.65-1.61v-.6c-.34.58-.89.94-1.75.94-1.41 0-2.45-.95-2.45-2.61 0-1.56 1.04-2.61 2.45-2.61.86 0 1.43.37 1.75.94zm-1.67 3.55c1 0 1.68-.77 1.68-1.86 0-1.12-.68-1.9-1.68-1.9-1.01 0-1.69.77-1.69 1.88 0 1.11.68 1.88 1.69 1.88zm5.957.73c-1.53 0-2.53-1.05-2.53-2.61 0-1.55.98-2.61 2.42-2.61s2.38.91 2.42 2.42c0 .11-.01.23-.02.35h-3.96v.07c.03.97.64 1.65 1.61 1.65.72 0 1.28-.38 1.45-1.04h.83c-.2 1.02-1.04 1.77-2.22 1.77zm-1.62-3.13h3.05c-.08-.88-.68-1.37-1.53-1.37-.75 0-1.44.54-1.52 1.37zm11.993 2.32h.26v.75h-.45c-.68 0-.91-.29-.92-.79-.32.46-.83.85-1.71.85-1.12 0-1.88-.56-1.88-1.49 0-1.02.71-1.59 2.05-1.59h1.5v-.35c0-.66-.47-1.06-1.27-1.06-.72 0-1.2.34-1.3.86h-.82c.12-1 .93-1.59 2.16-1.59 1.3 0 2.05.65 2.05 1.84v2.23c0 .27.1.34.33.34zm-1.15-1.33v-.25h-1.58c-.73 0-1.14.27-1.14.85 0 .5.43.84 1.11.84 1.02 0 1.61-.59 1.61-1.44zm4.54-3.08c1.15 0 2.06.63 2.06 2.32v2.84h-.82v-2.79c0-1.06-.49-1.62-1.38-1.62-.96 0-1.54.71-1.54 1.86v2.55h-.82v-5.1h.71l.11.69c.3-.39.82-.75 1.68-.75zm7.067.84v-2.68h.82v7h-.71l-.11-.82c-.34.47-.89.88-1.75.88-1.41 0-2.45-.95-2.45-2.61 0-1.56 1.04-2.61 2.45-2.61.86 0 1.44.35 1.75.84zm-1.67 3.65c1 0 1.68-.77 1.68-1.86 0-1.12-.68-1.9-1.68-1.9-1.01 0-1.69.77-1.69 1.88 0 1.11.68 1.88 1.69 1.88zm10.245-3.65v-2.68h.82v7h-.71l-.11-.82c-.34.47-.89.88-1.75.88-1.41 0-2.45-.95-2.45-2.61 0-1.56 1.04-2.61 2.45-2.61.86 0 1.44.35 1.75.84zm-1.67 3.65c1 0 1.68-.77 1.68-1.86 0-1.12-.68-1.9-1.68-1.9-1.01 0-1.69.77-1.69 1.88 0 1.11.68 1.88 1.69 1.88zm5.957.73c-1.53 0-2.53-1.05-2.53-2.61 0-1.55.98-2.61 2.42-2.61s2.38.91 2.42 2.42c0 .11-.01.23-.02.35h-3.96v.07c.03.97.64 1.65 1.61 1.65.72 0 1.28-.38 1.45-1.04h.83c-.2 1.02-1.04 1.77-2.22 1.77zm-1.62-3.13h3.05c-.08-.88-.68-1.37-1.53-1.37-.75 0-1.44.54-1.52 1.37zm7.435-2.09c1.41 0 2.45.95 2.45 2.61 0 1.56-1.04 2.61-2.45 2.61-.86 0-1.44-.35-1.75-.84v2.78h-.82v-7.1h.71l.11.82c.34-.47.89-.88 1.75-.88zm-.08 4.49c1.01 0 1.69-.77 1.69-1.88 0-1.11-.68-1.88-1.69-1.88-1 0-1.68.77-1.68 1.86 0 1.12.68 1.9 1.68 1.9zm5.817.73c-1.53 0-2.53-1.05-2.53-2.61 0-1.55.98-2.61 2.42-2.61s2.38.91 2.42 2.42c0 .11-.01.23-.02.35h-3.96v.07c.03.97.64 1.65 1.61 1.65.72 0 1.28-.38 1.45-1.04h.83c-.2 1.02-1.04 1.77-2.22 1.77zm-1.62-3.13h3.05c-.08-.88-.68-1.37-1.53-1.37-.75 0-1.44.54-1.52 1.37zm7.366-2.09c1.15 0 2.06.63 2.06 2.32v2.84h-.82v-2.79c0-1.06-.49-1.62-1.38-1.62-.96 0-1.54.71-1.54 1.86v2.55h-.82v-5.1h.71l.11.69c.3-.39.82-.75 1.68-.75zm7.067.84v-2.68h.82v7h-.71l-.11-.82c-.34.47-.89.88-1.75.88-1.41 0-2.45-.95-2.45-2.61 0-1.56 1.04-2.61 2.45-2.61.86 0 1.44.35 1.75.84zm-1.67 3.65c1 0 1.68-.77 1.68-1.86 0-1.12-.68-1.9-1.68-1.9-1.01 0-1.69.77-1.69 1.88 0 1.11.68 1.88 1.69 1.88zm8.574.73c-1.49 0-2.53-1.06-2.53-2.61 0-1.55 1.04-2.61 2.53-2.61 1.49 0 2.53 1.06 2.53 2.61 0 1.55-1.04 2.61-2.53 2.61zm0-.73c1.01 0 1.69-.79 1.69-1.88 0-1.09-.68-1.88-1.69-1.88-1.01 0-1.69.79-1.69 1.88 0 1.09.68 1.88 1.69 1.88zm5.97-4.49c1.15 0 2.06.63 2.06 2.32v2.84h-.82v-2.79c0-1.06-.49-1.62-1.38-1.62-.96 0-1.54.71-1.54 1.86v2.55h-.82v-5.1h.71l.11.69c.3-.39.82-.75 1.68-.75zM.6 25.06c-.3 0-.53-.22-.53-.53 0-.31.23-.53.53-.53.3 0 .53.22.53.53 0 .31-.23.53-.53.53zm-.42 5.96v-5.1H1v5.1H.18zm4.443-5.16c1.15 0 2.06.63 2.06 2.32v2.84h-.82v-2.79c0-1.06-.49-1.62-1.38-1.62-.96 0-1.54.71-1.54 1.86v2.55h-.82v-5.1h.71l.11.69c.3-.39.82-.75 1.68-.75zm7.067.84v-2.68h.82v7h-.71l-.11-.82c-.34.47-.89.88-1.75.88-1.41 0-2.45-.95-2.45-2.61 0-1.56 1.04-2.61 2.45-2.61.86 0 1.44.35 1.75.84zm-1.67 3.65c1 0 1.68-.77 1.68-1.86 0-1.12-.68-1.9-1.68-1.9-1.01 0-1.69.77-1.69 1.88 0 1.11.68 1.88 1.69 1.88zm4.027-5.29c-.3 0-.53-.22-.53-.53 0-.31.23-.53.53-.53.3 0 .53.22.53.53 0 .31-.23.53-.53.53zm-.42 5.96v-5.1h.82v5.1h-.82zm3.344 0l-1.91-5.1h.88l1.54 4.17 1.53-4.17h.86l-1.91 5.1h-.99zm3.932-5.96c-.3 0-.53-.22-.53-.53 0-.31.23-.53.53-.53.3 0 .53.22.53.53 0 .31-.23.53-.53.53zm-.42 5.96v-5.1h.82v5.1h-.82zm5.963-4.32v-2.68h.82v7h-.71l-.11-.82c-.34.47-.89.88-1.75.88-1.41 0-2.45-.95-2.45-2.61 0-1.56 1.04-2.61 2.45-2.61.86 0 1.44.35 1.75.84zm-1.67 3.65c1 0 1.68-.77 1.68-1.86 0-1.12-.68-1.9-1.68-1.9-1.01 0-1.69.77-1.69 1.88 0 1.11.68 1.88 1.69 1.88zm7.177-1.88v-2.55h.82v5.1h-.71l-.11-.68c-.3.38-.79.74-1.63.74-1.12 0-2.01-.63-2.01-2.32v-2.84h.82v2.79c0 1.06.48 1.62 1.33 1.62.93 0 1.49-.71 1.49-1.86zm6.448 1.8h.26v.75h-.45c-.68 0-.91-.29-.92-.79-.32.46-.83.85-1.71.85-1.12 0-1.88-.56-1.88-1.49 0-1.02.71-1.59 2.05-1.59h1.5v-.35c0-.66-.47-1.06-1.27-1.06-.72 0-1.2.34-1.3.86h-.82c.12-1 .93-1.59 2.16-1.59 1.3 0 2.05.65 2.05 1.84v2.23c0 .27.1.34.33.34zm-1.15-1.33v-.25h-1.58c-.73 0-1.14.27-1.14.85 0 .5.43.84 1.11.84 1.02 0 1.61-.59 1.61-1.44zm2.04 2.08v-7h.82v7h-.82zm6.851.06c-1.49 0-2.47-1.01-2.47-2.6 0-1.56 1.01-2.62 2.49-2.62 1.25 0 2.04.7 2.25 1.82h-.86c-.15-.68-.65-1.09-1.4-1.09-.98 0-1.64.78-1.64 1.89 0 1.11.66 1.87 1.64 1.87.73 0 1.23-.42 1.39-1.07h.87c-.2 1.1-1.03 1.8-2.27 1.8zm3.589-6.02c-.3 0-.53-.22-.53-.53 0-.31.23-.53.53-.53.3 0 .53.22.53.53 0 .31-.23.53-.53.53zm-.42 5.96v-5.1h.82v5.1h-.82zm4.303-5.1h.23v.8h-.41c-1.07 0-1.36.89-1.36 1.7v2.6h-.82v-5.1h.71l.11.77c.24-.39.63-.77 1.54-.77zm2.938 5.16c-1.49 0-2.47-1.01-2.47-2.6 0-1.56 1.01-2.62 2.49-2.62 1.25 0 2.04.7 2.25 1.82h-.86c-.15-.68-.65-1.09-1.4-1.09-.98 0-1.64.78-1.64 1.89 0 1.11.66 1.87 1.64 1.87.73 0 1.23-.42 1.39-1.07h.87c-.2 1.1-1.03 1.8-2.27 1.8zm6.74-2.61v-2.55h.82v5.1h-.71l-.11-.68c-.3.38-.79.74-1.63.74-1.12 0-2.01-.63-2.01-2.32v-2.84h.82v2.79c0 1.06.48 1.62 1.33 1.62.93 0 1.49-.71 1.49-1.86zm7.627-2.61c1.06 0 1.93.61 1.93 2.22v2.94h-.82v-2.89c0-1-.44-1.52-1.21-1.52-.85 0-1.37.64-1.37 1.68v2.73h-.82v-2.89c0-1-.45-1.52-1.23-1.52-.84 0-1.35.7-1.35 1.72v2.69h-.82v-5.1h.71l.11.7c.27-.37.7-.76 1.49-.76.71 0 1.32.32 1.61.97.31-.55.86-.97 1.77-.97zm2.772 3.48h.84c.03.6.56 1.04 1.41 1.04.72 0 1.23-.31 1.23-.78 0-.64-.56-.69-1.32-.78-1.14-.14-2.05-.37-2.05-1.43 0-.93.85-1.54 2-1.53 1.16.01 2 .55 2.08 1.61h-.84c-.06-.52-.54-.91-1.24-.91-.71 0-1.19.3-1.19.77 0 .56.54.63 1.28.72 1.16.14 2.09.36 2.09 1.49 0 .95-.91 1.54-2.04 1.54-1.32 0-2.23-.62-2.25-1.74zm5.58.35v-3.02h-.92v-.75h.92v-1.43h.82v1.43h1.32v.75h-1.32v3.01c0 .43.15.59.59.59h.81v.75h-.89c-.98 0-1.33-.43-1.33-1.33zm7.362.58h.26v.75h-.45c-.68 0-.91-.29-.92-.79-.32.46-.83.85-1.71.85-1.12 0-1.88-.56-1.88-1.49 0-1.02.71-1.59 2.05-1.59h1.5v-.35c0-.66-.47-1.06-1.27-1.06-.72 0-1.2.34-1.3.86h-.82c.12-1 .93-1.59 2.16-1.59 1.3 0 2.05.65 2.05 1.84v2.23c0 .27.1.34.33.34zm-1.15-1.33v-.25h-1.58c-.73 0-1.14.27-1.14.85 0 .5.43.84 1.11.84 1.02 0 1.61-.59 1.61-1.44zm4.54-3.08c1.15 0 2.06.63 2.06 2.32v2.84h-.82v-2.79c0-1.06-.49-1.62-1.38-1.62-.96 0-1.54.71-1.54 1.86v2.55h-.82v-5.1h.71l.11.69c.3-.39.82-.75 1.68-.75zm5.338 5.22c-1.49 0-2.47-1.01-2.47-2.6 0-1.56 1.01-2.62 2.49-2.62 1.25 0 2.04.7 2.25 1.82h-.86c-.15-.68-.65-1.09-1.4-1.09-.98 0-1.64.78-1.64 1.89 0 1.11.66 1.87 1.64 1.87.73 0 1.23-.42 1.39-1.07h.87c-.2 1.1-1.03 1.8-2.27 1.8zm5.519 0c-1.53 0-2.53-1.05-2.53-2.61 0-1.55.98-2.61 2.42-2.61s2.38.91 2.42 2.42c0 .11-.01.23-.02.35h-3.96v.07c.03.97.64 1.65 1.61 1.65.72 0 1.28-.38 1.45-1.04h.83c-.2 1.02-1.04 1.77-2.22 1.77zm-1.62-3.13h3.05c-.08-.88-.68-1.37-1.53-1.37-.75 0-1.44.54-1.52 1.37zm4.636 1.39h.84c.03.6.56 1.04 1.41 1.04.72 0 1.23-.31 1.23-.78 0-.64-.56-.69-1.32-.78-1.14-.14-2.05-.37-2.05-1.43 0-.93.85-1.54 2-1.53 1.16.01 2 .55 2.08 1.61h-.84c-.06-.52-.54-.91-1.24-.91-.71 0-1.19.3-1.19.77 0 .56.54.63 1.28.72 1.16.14 2.09.36 2.09 1.49 0 .95-.91 1.54-2.04 1.54-1.32 0-2.23-.62-2.25-1.74zm5.022 1.18c0-.34.24-.56.57-.56.33 0 .57.22.57.56 0 .34-.24.56-.57.56-.33 0-.57-.22-.57-.56z" fill="#fff"/></svg>