<svg width="140" height="39" viewBox="0 0 140 39" fill="none" xmlns="http://www.w3.org/2000/svg"><g clip-path="url(#clip0_3524_1135)"><path fill-rule="evenodd" clip-rule="evenodd" d="M4.302 4.375a6.826 6.826 0 012.145-1.567 6.045 6.045 0 012.599-.57c1.014 0 1.832.133 2.447.403s1.214.656 1.793 1.165c.28.222.57.321.867.297.297-.024.551-.133.76-.333a.988.988 0 00.316-.75 1.66 1.66 0 00-.035-.37.902.902 0 00-.143-.308 1.238 1.238 0 00-.294-.297c-.874-.728-1.744-1.251-2.611-1.567C11.281.159 10.248 0 9.044 0 7.76 0 6.575.246 5.483.736a8.992 8.992 0 00-2.87 2.033A9.473 9.473 0 00.691 5.791C.231 6.941 0 8.181 0 9.513c0 1.332.23 2.6.691 3.758a9.373 9.373 0 001.922 3.032 8.776 8.776 0 002.88 2.021 8.7 8.7 0 003.548.726 8.793 8.793 0 003.034-.523 9.456 9.456 0 002.705-1.546c.124-.126.217-.266.28-.418a1.27 1.27 0 00.093-.465c0-.35-.092-.622-.28-.823a1.05 1.05 0 00-.689-.332c-.273-.025-.55.067-.831.274-.656.49-1.34.876-2.05 1.153a6.154 6.154 0 01-2.26.415 6.158 6.158 0 01-2.598-.56A6.713 6.713 0 014.3 14.668a7.256 7.256 0 01-1.442-2.317 7.732 7.732 0 01-.516-2.842c0-1.013.171-1.94.516-2.82A7.272 7.272 0 014.3 4.374l.002.002zM19.942.236c-.344 0-.631.116-.867.345-.235.232-.351.526-.351.89v16.103c0 .35.116.642.351.88.236.237.523.357.867.357.345 0 .654-.118.877-.357.228-.238.34-.53.34-.88V1.471c0-.364-.114-.663-.34-.89-.226-.229-.518-.345-.877-.345zm17.358 0H24.77c-.328 0-.597.109-.81.321-.21.212-.317.487-.317.823 0 .335.107.605.316.822.21.212.48.321.81.321h5.06v15.056c0 .35.117.641.352.88.235.237.522.357.867.357.344 0 .632-.118.867-.357s.352-.53.352-.88V2.519h5.036c.328 0 .596-.11.81-.322.209-.212.316-.487.316-.822 0-.335-.107-.606-.316-.823C37.9.34 37.63.234 37.3.234v.002zm18.69.3a.93.93 0 00-.702-.297c-.25 0-.461.05-.632.154-.171.104-.32.249-.444.44L48.636 9.76 43.153.926a1.942 1.942 0 00-.444-.511c-.156-.118-.366-.176-.632-.176-.296 0-.558.091-.783.275a1.1 1.1 0 00-.409.714c-.048.292.03.605.235.94l6.253 9.873v5.543c0 .35.116.641.351.88.235.236.516.357.846.357.33 0 .632-.118.867-.357s.351-.53.351-.88v-5.548l6.3-9.872c.188-.302.266-.599.236-.89a1.263 1.263 0 00-.33-.736L55.99.535zm12.396-.3c-.344 0-.632.116-.867.345-.235.232-.351.526-.351.89v16.103c0 .35.116.642.351.88.235.237.523.357.867.357.345 0 .654-.118.877-.357.228-.238.34-.53.34-.88V1.471c0-.364-.114-.663-.34-.89-.226-.229-.518-.345-.877-.345zm18.45 0c-.344 0-.631.116-.866.345-.235.232-.352.526-.352.89v13.01L75.406.688a1.165 1.165 0 00-.938-.45c-.345 0-.63.115-.856.344-.228.232-.34.526-.34.89v16.103c0 .35.115.642.34.88.226.237.511.357.856.357.344 0 .653-.118.876-.357.226-.238.34-.53.34-.88V4.588l10.212 13.794c.11.142.252.248.432.32.181.073.347.11.504.11.359 0 .649-.119.867-.358.219-.238.328-.53.328-.88V1.471c0-.364-.11-.663-.328-.89-.211-.229-.504-.345-.862-.345zm16.751 2.603a8.426 8.426 0 00-2.87-1.925c-1.1-.45-2.323-.678-3.665-.678h-4.24c-.345 0-.633.116-.868.345-.235.232-.352.526-.352.89v16.103c0 .35.117.642.352.88.235.237.523.357.867.357h4.24c1.343 0 2.564-.226 3.666-.677a8.48 8.48 0 002.87-1.925 8.603 8.603 0 001.874-2.95c.437-1.131.655-2.383.655-3.746s-.218-2.607-.655-3.734a8.63 8.63 0 00-1.874-2.94zm-.68 10.348a6.488 6.488 0 01-2.378 2.52c-1.007.61-2.166.917-3.48.917h-3.022v-14.2h3.022c1.311 0 2.47.302 3.48.905a6.416 6.416 0 012.378 2.498c.577 1.064.867 2.29.867 3.686 0 1.397-.287 2.603-.867 3.674zm18.28-10.669c.358 0 .646-.104.867-.311.216-.205.328-.475.328-.808 0-.333-.11-.632-.328-.844-.216-.212-.509-.321-.867-.321h-10.59c-.345 0-.632.116-.867.345-.236.231-.352.526-.352.89v16.103c0 .35.116.641.352.88.235.236.522.357.867.357h10.59c.358 0 .646-.109.867-.32.216-.213.328-.498.328-.845s-.11-.603-.328-.808c-.216-.205-.509-.311-.867-.311h-9.372v-5.941h6.723c.359 0 .646-.109.867-.32.216-.213.328-.488.328-.823 0-.336-.109-.606-.328-.823-.218-.212-.508-.32-.867-.32h-6.723v-5.78h9.372zm13.212 6.896l5.34-7.229c.188-.284.274-.576.26-.88a1.173 1.173 0 00-.305-.76c-.187-.205-.444-.311-.774-.311-.359 0-.646.118-.867.357l-5.25 7.091-5.034-7.089c-.171-.238-.461-.357-.867-.357-.328 0-.589.111-.784.333a1.376 1.376 0 00-.339.787c-.031.301.047.576.235.832l5.145 7.248-5.452 7.378c-.187.253-.28.533-.28.844 0 .312.093.58.28.808.188.232.461.345.82.345.328 0 .61-.118.846-.357l5.378-7.265 5.095 7.171c.124.16.261.275.409.345.15.073.323.109.527.109.345 0 .613-.111.81-.333a1.27 1.27 0 00.316-.808 1.301 1.301 0 00-.259-.856l-5.252-7.398.002-.005zM78.57 32.312c0 2.378-1.501 3.777-3.542 3.777a5.088 5.088 0 01-1.983-.405l-.551.518h-.167v-8.408c0-.729-.123-.939-.591-1.16l-.345-.17v-.154l2.302-.518.178.125v4.267c.592-.574 1.117-.95 2.027-.95 1.598 0 2.672 1.3 2.672 3.078zm-1.475.911c0-1.874-.855-3.119-2.107-3.119-.468 0-.758.111-1.117.38v3.328c0 1.3.592 1.917 1.476 1.917 1.073 0 1.75-.868 1.75-2.503l-.002-.003zm9.1-3.847v.21l-.22.04c-.511.1-.744.392-1.226 1.525l-2.632 6.156C81.594 38.537 81.055 39 80.409 39c-.454 0-.703-.364-.703-.77 0-.518.605-.839 1.805-.769.207-.364.468-.84.703-1.399l-2.176-4.952c-.51-1.16-.648-1.384-1.226-1.483l-.235-.041v-.21c.33 0 1.186.015 1.777.015.592 0 1.487-.015 1.805-.015v.21l-.275.04c-.413.07-.537.21-.537.435 0 .224.083.519.178.77l1.406 3.608 1.157-3.022c.207-.546.33-.965.33-1.26 0-.294-.178-.475-.55-.53l-.305-.041v-.21c.33 0 .813.015 1.392.015.58 0 .91-.015 1.24-.015zm11.099 3.396c0 2.034-1.905 3.396-4.167 3.396-1.39 0-2.295-.229-2.988-.54l-.387-2.395h.29l.29.574c.693 1.36 1.55 1.951 2.923 1.951 1.568 0 2.457-.786 2.457-2.084 0-1.148-.646-1.739-2.52-2.395-2.117-.738-3.167-1.558-3.167-3.41 0-1.853 1.663-3.216 3.732-3.216 1.292 0 2.035.181 2.746.476l.387 2.494h-.306l-.276-.591c-.63-1.36-1.437-1.969-2.665-1.969-1.293 0-2.053.787-2.053 1.903 0 1.117.613 1.689 2.39 2.297 2.326.786 3.311 1.688 3.311 3.51h.003zm5.409 2.166l.195.263c-.646.574-1.326.95-2.164.95-1.245 0-1.891-.574-1.891-1.92v-5.248h-1.148v-.294l1.228-.476 1.212-2.46h.501v2.526h2.084v.704h-2.084v5.2c0 .772.371 1.148.986 1.148.42 0 .694-.115 1.083-.393h-.002zm8.469-2.774c0 2.28-1.632 4.036-3.925 4.036-2.292 0-3.91-1.443-3.91-4.149 0-2.28 1.615-4.035 3.925-4.035 2.309 0 3.91 1.442 3.91 4.148zm-1.989.46c0-2.541-.791-4.198-2.147-4.198-1.098 0-1.73.854-1.73 3.164 0 2.543.808 4.2 2.148 4.2 1.114 0 1.729-.854 1.729-3.165zm11.55 3.165v.246c-.356 0-1.276-.016-1.972-.016s-1.598.017-1.986.017v-.247l.259-.048c.694-.13.825-.345.825-1.787v-3.1c0-1.196-.518-1.787-1.421-1.787-.63 0-1.164.246-1.632.608v4.281c0 1.443.114 1.657.824 1.788l.259.048v.246c-.387 0-1.292-.017-1.986-.017-.693 0-1.615.017-1.986.017v-.246l.307-.048c.646-.1.774-.345.774-1.92v-3.428c0-.854-.144-1.083-.71-1.36l-.387-.198v-.18l2.698-.609.21.148v1.1c.855-.739 1.648-1.23 2.648-1.23 1.437 0 2.214.785 2.214 2.443v3.314c0 1.606.129 1.804.791 1.92l.276.048-.005-.003zm7.566-4.411h-5.297v.116c.047 2.248 1.245 3.625 2.86 3.625.888 0 1.501-.328 2.164-1.001l.209.164c-.841 1.182-1.922 1.92-3.328 1.92-2.053 0-3.587-1.428-3.587-3.871 0-2.641 1.955-4.313 3.843-4.313 2.084 0 3.086 1.182 3.134 3.362l.002-.002zm-5.3-.441h3.392c-.047-1.657-.629-2.494-1.567-2.494-1.05 0-1.73.918-1.825 2.494zm16.883 4.852v.246c-.306 0-1.81-.033-2.406-.033-.597 0-2.504.033-2.827.033v-.245l.532-.082c.518-.082.744-.23.744-.54 0-.28-.162-.608-.533-1.197l-1.874-2.919-1.874 2.625c-.437.608-.646 1.083-.646 1.41 0 .329.194.54.727.623l.548.082v.246c-.306 0-1.648-.034-2.245-.034-.596 0-1.567.034-1.874.034v-.246l.29-.048c.76-.13 1.47-.786 2.036-1.525l2.729-3.625-2.698-4.018c-.63-.936-1.067-1.36-1.73-1.476l-.356-.066v-.246c.306 0 1.81.034 2.406.034.597 0 2.471-.034 2.794-.034v.246l-.532.082c-.451.066-.711.23-.711.54 0 .28.162.609.533 1.197l1.615 2.526 1.582-2.248c.421-.608.646-1.084.646-1.395 0-.328-.209-.54-.727-.622l-.548-.082v-.246c.306 0 1.648.034 2.244.034.597 0 1.568-.034 1.875-.034v.246l-.29.048c-.76.13-1.437.721-2.036 1.525l-2.44 3.246 2.956 4.395c.629.936 1.066 1.36 1.729 1.476l.356.065.005.002z" fill="#fff"/></g><defs><clipPath id="clip0_3524_1135"><path fill="#fff" d="M0 0h140v39H0z"/></clipPath></defs></svg>